<?xml version="1.0" encoding="utf-8"?>
<!-- Generator: Adobe Illustrator 22.0.1, SVG Export Plug-In . SVG Version: 6.00 Build 0)  -->
<svg version="1.1" id="圖層_1" xmlns="http://www.w3.org/2000/svg" xmlns:xlink="http://www.w3.org/1999/xlink" x="0px" y="0px"
	 viewBox="0 0 81.6 123.1" style="enable-background:new 0 0 81.6 123.1;" xml:space="preserve">
<style type="text/css">
	.st0{fill:#101A39;}
	.st1{fill:url(#SVGID_1_);}
</style>
<g>
	<path class="st0" d="M10.7,96.3H14c1.6,0,2.8,0.4,3.7,1.3c0.9,0.9,1.3,2.1,1.3,3.7c0,1.6-0.4,2.8-1.3,3.7c-0.9,0.9-2.1,1.3-3.7,1.3
		h-3.3V96.3z M13.9,105.3c1.3,0,2.3-0.3,2.9-1s1-1.7,1-3c0-2.7-1.3-4-3.9-4h-2.1v8H13.9z"/>
	<path class="st0" d="M26.9,102.7h-5.2c0,0.9,0.2,1.6,0.6,2c0.4,0.5,1,0.7,1.8,0.7c0.8,0,1.6-0.3,2.3-0.8l0.4,0.8
		c-0.3,0.3-0.7,0.5-1.2,0.7s-1,0.3-1.5,0.3c-1.1,0-2-0.3-2.6-1c-0.6-0.6-0.9-1.5-0.9-2.7c0-0.7,0.1-1.4,0.4-1.9
		c0.3-0.6,0.7-1,1.2-1.3c0.5-0.3,1.1-0.5,1.7-0.5c0.9,0,1.7,0.3,2.2,0.9c0.5,0.6,0.8,1.5,0.8,2.5V102.7z M22.5,100.4
		c-0.4,0.4-0.6,0.9-0.7,1.5h4.1c-0.1-0.7-0.2-1.2-0.6-1.5c-0.3-0.3-0.8-0.5-1.4-0.5S22.8,100.1,22.5,100.4z"/>
	<path class="st0" d="M30.4,97.2c-0.2,0.2-0.3,0.6-0.3,1.1v0.9h1.7v0.9h-1.7v6.1H29v-6.1h-1.4v-0.9H29v-1.1c0-0.7,0.2-1.3,0.6-1.7
		c0.4-0.4,0.9-0.6,1.5-0.6c0.3,0,0.6,0,1,0.1v1c-0.3-0.1-0.5-0.1-0.7-0.1C30.9,96.9,30.6,97,30.4,97.2z"/>
	<path class="st0" d="M39.1,102.7H34c0,0.9,0.2,1.6,0.6,2c0.4,0.5,1,0.7,1.8,0.7c0.8,0,1.6-0.3,2.3-0.8l0.4,0.8
		c-0.3,0.3-0.7,0.5-1.2,0.7s-1,0.3-1.5,0.3c-1.1,0-2-0.3-2.6-1c-0.6-0.6-0.9-1.5-0.9-2.7c0-0.7,0.1-1.4,0.4-1.9
		c0.3-0.6,0.7-1,1.2-1.3c0.5-0.3,1.1-0.5,1.7-0.5c0.9,0,1.7,0.3,2.2,0.9c0.5,0.6,0.8,1.5,0.8,2.5V102.7z M34.7,100.4
		c-0.4,0.4-0.6,0.9-0.7,1.5h4.1c-0.1-0.7-0.2-1.2-0.6-1.5c-0.3-0.3-0.8-0.5-1.4-0.5S35.1,100.1,34.7,100.4z"/>
	<path class="st0" d="M46.9,101.8v4.4h-1.1v-4.4c0-0.7-0.1-1.1-0.4-1.4c-0.3-0.3-0.7-0.5-1.2-0.5c-0.7,0-1.2,0.2-1.6,0.6
		c-0.4,0.4-0.6,0.9-0.6,1.6v4h-1.1v-5.1c0-0.7,0-1.4-0.1-2h1.1l0.1,1.3c0.2-0.5,0.5-0.8,1-1.1c0.4-0.2,0.9-0.4,1.5-0.4
		C46,99,46.9,100,46.9,101.8z"/>
	<path class="st0" d="M48.6,105.4l0.4-0.8c0.4,0.3,0.8,0.5,1.2,0.6c0.4,0.1,0.8,0.2,1.3,0.2c0.5,0,0.9-0.1,1.2-0.3s0.4-0.4,0.4-0.8
		c0-0.3-0.1-0.5-0.3-0.7c-0.2-0.2-0.5-0.3-0.9-0.4l-1.2-0.3c-0.6-0.1-1-0.4-1.4-0.7s-0.5-0.7-0.5-1.2c0-0.6,0.2-1.1,0.7-1.5
		c0.5-0.4,1.1-0.6,2-0.6c0.5,0,1,0.1,1.4,0.2c0.4,0.2,0.8,0.4,1.1,0.7l-0.4,0.8c-0.7-0.6-1.4-0.8-2.1-0.8c-0.5,0-0.9,0.1-1.2,0.3
		S50,100.7,50,101c0,0.3,0.1,0.5,0.3,0.7c0.2,0.2,0.5,0.3,0.8,0.4l1.2,0.3c0.7,0.1,1.1,0.4,1.5,0.7s0.5,0.7,0.5,1.2
		c0,0.6-0.2,1.1-0.7,1.5c-0.5,0.4-1.2,0.5-2,0.5C50.2,106.3,49.3,106,48.6,105.4z"/>
	<path class="st0" d="M55.9,96.2h1.4v1.3h-1.4V96.2z M56,106.2v-7h1.1v7H56z"/>
	<path class="st0" d="M64.4,99.2h1.1l-3,7h-1.1l-3-7h1.2L62,105L64.4,99.2z"/>
	<path class="st0" d="M72.6,102.7h-5.2c0,0.9,0.2,1.6,0.6,2c0.4,0.5,1,0.7,1.8,0.7c0.8,0,1.6-0.3,2.3-0.8l0.4,0.8
		c-0.3,0.3-0.7,0.5-1.2,0.7s-1,0.3-1.5,0.3c-1.1,0-2-0.3-2.6-1c-0.6-0.6-0.9-1.5-0.9-2.7c0-0.7,0.1-1.4,0.4-1.9
		c0.3-0.6,0.7-1,1.2-1.3c0.5-0.3,1.1-0.5,1.7-0.5c0.9,0,1.7,0.3,2.2,0.9c0.5,0.6,0.8,1.5,0.8,2.5V102.7z M68.1,100.4
		c-0.4,0.4-0.6,0.9-0.7,1.5h4.1c-0.1-0.7-0.2-1.2-0.6-1.5c-0.3-0.3-0.8-0.5-1.4-0.5S68.5,100.1,68.1,100.4z"/>
	<path class="st0" d="M16.7,122.1h2.2v1h-5.6v-1h2.2v-7.6l-2,1.3v-1.1l2.5-1.6h0.7V122.1z"/>
	<path class="st0" d="M20.6,122.2l0.4-0.8c0.4,0.3,0.8,0.5,1.2,0.6c0.4,0.1,0.8,0.2,1.3,0.2c0.5,0,0.9-0.1,1.2-0.3s0.4-0.4,0.4-0.8
		c0-0.3-0.1-0.5-0.3-0.7c-0.2-0.2-0.5-0.3-0.9-0.4l-1.2-0.3c-0.6-0.1-1-0.4-1.4-0.7s-0.5-0.7-0.5-1.2c0-0.6,0.2-1.1,0.7-1.5
		c0.5-0.4,1.1-0.6,2-0.6c0.5,0,1,0.1,1.4,0.2c0.4,0.2,0.8,0.4,1.1,0.7l-0.4,0.8c-0.7-0.6-1.4-0.8-2.1-0.8c-0.5,0-0.9,0.1-1.2,0.3
		s-0.4,0.5-0.4,0.8c0,0.3,0.1,0.5,0.3,0.7c0.2,0.2,0.5,0.3,0.8,0.4l1.2,0.3c0.7,0.1,1.1,0.4,1.5,0.7s0.5,0.7,0.5,1.2
		c0,0.6-0.2,1.1-0.7,1.5c-0.5,0.4-1.2,0.5-2,0.5C22.2,123.1,21.3,122.8,20.6,122.2z"/>
	<path class="st0" d="M29.4,116.9v3.9c0,0.5,0.1,0.9,0.3,1.1s0.5,0.3,0.9,0.3c0.3,0,0.5,0,0.8-0.1v1c-0.3,0.1-0.6,0.1-1,0.1
		c-0.7,0-1.2-0.2-1.6-0.6s-0.6-0.9-0.6-1.7v-4h-1.4V116h1.4v-1.8l1.1-0.4v2.2h2v0.9H29.4z"/>
	<path class="st0" d="M39,123v-9h-3.5v-1h8.1v1h-3.5v9H39z"/>
	<path class="st0" d="M49.7,119.5h-5.2c0,0.9,0.2,1.6,0.6,2c0.4,0.5,1,0.7,1.8,0.7c0.8,0,1.6-0.3,2.3-0.8l0.4,0.8
		c-0.3,0.3-0.7,0.5-1.2,0.7s-1,0.3-1.5,0.3c-1.1,0-2-0.3-2.6-1c-0.6-0.6-0.9-1.5-0.9-2.7c0-0.7,0.1-1.4,0.4-1.9
		c0.3-0.6,0.7-1,1.2-1.3c0.5-0.3,1.1-0.5,1.7-0.5c0.9,0,1.7,0.3,2.2,0.9c0.5,0.6,0.8,1.5,0.8,2.5V119.5z M45.3,117.2
		c-0.4,0.4-0.6,0.9-0.7,1.5h4.1c-0.1-0.7-0.2-1.2-0.6-1.5c-0.3-0.3-0.8-0.5-1.4-0.5S45.7,116.9,45.3,117.2z"/>
	<path class="st0" d="M57.7,116v7h-1.1v-1.3c-0.2,0.4-0.5,0.8-0.9,1c-0.4,0.2-0.9,0.4-1.4,0.4c-0.6,0-1.2-0.1-1.6-0.4
		c-0.5-0.3-0.8-0.7-1.1-1.3s-0.4-1.2-0.4-1.9c0-0.7,0.1-1.4,0.4-1.9c0.3-0.6,0.6-1,1.1-1.3c0.5-0.3,1-0.5,1.6-0.5
		c0.6,0,1,0.1,1.4,0.4c0.4,0.2,0.7,0.6,0.9,1V116H57.7z M56,121.5c0.4-0.5,0.6-1.1,0.6-2c0-0.9-0.2-1.5-0.6-2
		c-0.4-0.5-0.9-0.7-1.6-0.7c-0.7,0-1.2,0.2-1.6,0.7c-0.4,0.5-0.6,1.2-0.6,2c0,0.9,0.2,1.5,0.6,2s0.9,0.7,1.6,0.7
		C55.1,122.2,55.6,122,56,121.5z"/>
	<path class="st0" d="M70,118.6v4.4h-1.1v-4.4c0-0.7-0.1-1.1-0.3-1.4s-0.6-0.4-1.1-0.4c-0.6,0-1.1,0.2-1.4,0.6s-0.5,0.9-0.5,1.6v4
		h-1.1v-4.4c0-0.7-0.1-1.1-0.4-1.4c-0.2-0.3-0.6-0.5-1.1-0.5c-0.6,0-1.1,0.2-1.4,0.6c-0.3,0.4-0.5,0.9-0.5,1.6v4h-1.1V118
		c0-0.7,0-1.4-0.1-2h1.1l0.1,1.2c0.2-0.4,0.5-0.8,0.9-1c0.4-0.2,0.8-0.4,1.4-0.4c0.6,0,1,0.1,1.4,0.3c0.4,0.2,0.6,0.6,0.8,1
		c0.2-0.4,0.5-0.8,0.9-1s0.9-0.4,1.4-0.4C69.2,115.8,70,116.8,70,118.6z"/>
</g>
<linearGradient id="SVGID_1_" gradientUnits="userSpaceOnUse" x1="61.2307" y1="76.1734" x2="20.4056" y2="5.4623">
	<stop  offset="0" style="stop-color:#8B3F74"/>
	<stop  offset="1" style="stop-color:#101A39"/>
</linearGradient>
<path class="st1" d="M42.9,48.4V35.1h-1.8l-4.8,2.5l0.7,1.7l3.6-2v11.1h-3.9v1.9h9.5v-1.9H42.9z M40.8,0C18.3,0,0,18.3,0,40.8
	c0,22.5,18.3,40.8,40.8,40.8c22.5,0,40.8-18.3,40.8-40.8C81.6,18.3,63.4,0,40.8,0z M55.4,54.4c-4.6,7.7-10.6,11.4-13.8,12.9
	l-0.3,0.2L41,67.3c-3.2-1.5-9.2-5.2-13.8-12.9C22.7,46.8,21,37.7,22,27.3l0.1-0.5l0.5-0.1c7.1-2,18.3-8.8,18.4-8.9l0.4-0.2l0.4,0.2
	c0.1,0.1,11.3,6.9,18.4,8.9l0.5,0.1l0.1,0.5C61.7,37.7,59.9,46.8,55.4,54.4z M47.5,22.8c-2.9-1.5-5.3-2.9-6.2-3.5
	c-0.9,0.5-3.3,2-6.2,3.5c-4.7,2.5-8.7,4.3-11.7,5.2c-0.9,9.9,0.8,18.5,5.1,25.6c4.2,7.1,9.7,10.6,12.8,12.1
	c3.1-1.5,8.5-5.1,12.8-12.1c4.3-7.1,6-15.8,5.1-25.6C56.2,27,52.2,25.3,47.5,22.8z M41.3,62.7C33.9,59.1,23.9,49,25.8,29.8
	c6.1-1.7,15.6-7.5,15.6-7.5s9.5,5.8,15.6,7.5C58.7,49,48.7,59.1,41.3,62.7z"/>
</svg>
