<?xml version="1.0" encoding="utf-8"?>
<!-- Generator: Adobe Illustrator 22.0.1, SVG Export Plug-In . SVG Version: 6.00 Build 0)  -->
<svg version="1.1" id="圖層_1" xmlns="http://www.w3.org/2000/svg" xmlns:xlink="http://www.w3.org/1999/xlink" x="0px" y="0px"
	 viewBox="0 0 81.1 123.7" style="enable-background:new 0 0 81.1 123.7;" xml:space="preserve">
<style type="text/css">
	.st0{fill:#101A39;}
	.st1{fill:url(#SVGID_1_);}
</style>
<g>
	<path class="st0" d="M21.9,96.8H23v10h-0.9l-6-8v8H15v-10h0.9l6,8V96.8z"/>
	<path class="st0" d="M32.4,102.5c0.3,0.4,0.5,0.9,0.5,1.5c0,0.9-0.3,1.5-0.9,2c-0.6,0.5-1.4,0.7-2.5,0.7h-4.1v-10h4
		c1,0,1.8,0.2,2.4,0.7c0.6,0.5,0.8,1.1,0.8,1.9c0,0.5-0.1,1-0.4,1.4c-0.3,0.4-0.7,0.7-1.2,0.9C31.7,101.8,32.1,102.1,32.4,102.5z
		 M26.6,101.3h2.7c0.7,0,1.3-0.1,1.7-0.4s0.6-0.7,0.6-1.3c0-1.1-0.8-1.7-2.3-1.7h-2.7V101.3z M31.2,105.4c0.4-0.3,0.6-0.7,0.6-1.4
		c0-1.2-0.8-1.8-2.3-1.8h-2.9v3.6h2.9C30.3,105.9,30.8,105.7,31.2,105.4z"/>
	<path class="st0" d="M42.5,106.8l-1.1-2.6h-5.2l-1.1,2.6h-1.2l4.4-10h1l4.4,10H42.5z M36.6,103.3H41l-2.2-5.1L36.6,103.3z"/>
	<path class="st0" d="M52.7,105.8h2.2v1h-5.6v-1h2.2v-7.6l-2,1.3v-1.1l2.5-1.6h0.7V105.8z"/>
	<path class="st0" d="M56.6,106l0.4-0.8c0.4,0.3,0.8,0.5,1.2,0.6c0.4,0.1,0.8,0.2,1.3,0.2c0.5,0,0.9-0.1,1.2-0.3s0.4-0.4,0.4-0.8
		c0-0.3-0.1-0.5-0.3-0.7c-0.2-0.2-0.5-0.3-0.9-0.4l-1.2-0.3c-0.6-0.1-1-0.4-1.4-0.7s-0.5-0.7-0.5-1.2c0-0.6,0.2-1.1,0.7-1.5
		c0.5-0.4,1.1-0.6,2-0.6c0.5,0,1,0.1,1.4,0.2c0.4,0.2,0.8,0.4,1.1,0.7l-0.4,0.8c-0.7-0.6-1.4-0.8-2.1-0.8c-0.5,0-0.9,0.1-1.2,0.3
		s-0.4,0.5-0.4,0.8c0,0.3,0.1,0.5,0.3,0.7c0.2,0.2,0.5,0.3,0.8,0.4l1.2,0.3c0.7,0.1,1.1,0.4,1.5,0.7s0.5,0.7,0.5,1.2
		c0,0.6-0.2,1.1-0.7,1.5c-0.5,0.4-1.2,0.5-2,0.5C58.2,106.9,57.3,106.6,56.6,106z"/>
	<path class="st0" d="M65.4,100.7v3.9c0,0.5,0.1,0.9,0.3,1.1s0.5,0.3,0.9,0.3c0.3,0,0.5,0,0.8-0.1v1c-0.3,0.1-0.6,0.1-1,0.1
		c-0.7,0-1.2-0.2-1.6-0.6s-0.6-0.9-0.6-1.7v-4h-1.4v-0.9h1.4V98l1.1-0.4v2.2h2v0.9H65.4z"/>
	<path class="st0" d="M26.5,123.6v-9h-3.5v-1h8.1v1h-3.5v9H26.5z"/>
	<path class="st0" d="M37.3,120.1h-5.2c0,0.9,0.2,1.6,0.6,2c0.4,0.5,1,0.7,1.8,0.7c0.8,0,1.6-0.3,2.3-0.8l0.4,0.8
		c-0.3,0.3-0.7,0.5-1.2,0.7s-1,0.3-1.5,0.3c-1.1,0-2-0.3-2.6-1c-0.6-0.6-0.9-1.5-0.9-2.7c0-0.7,0.1-1.4,0.4-1.9
		c0.3-0.6,0.7-1,1.2-1.3c0.5-0.3,1.1-0.5,1.7-0.5c0.9,0,1.7,0.3,2.2,0.9c0.5,0.6,0.8,1.5,0.8,2.5V120.1z M32.8,117.8
		c-0.4,0.4-0.6,0.9-0.7,1.5h4.1c-0.1-0.7-0.2-1.2-0.6-1.5c-0.3-0.3-0.8-0.5-1.4-0.5S33.2,117.5,32.8,117.8z"/>
	<path class="st0" d="M45.2,116.6v7h-1.1v-1.3c-0.2,0.4-0.5,0.8-0.9,1c-0.4,0.2-0.9,0.4-1.4,0.4c-0.6,0-1.2-0.1-1.6-0.4
		c-0.5-0.3-0.8-0.7-1.1-1.3s-0.4-1.2-0.4-1.9c0-0.7,0.1-1.4,0.4-1.9c0.3-0.6,0.6-1,1.1-1.3c0.5-0.3,1-0.5,1.6-0.5
		c0.6,0,1,0.1,1.4,0.4c0.4,0.2,0.7,0.6,0.9,1v-1.2H45.2z M43.5,122.1c0.4-0.5,0.6-1.1,0.6-2c0-0.9-0.2-1.5-0.6-2
		c-0.4-0.5-0.9-0.7-1.6-0.7c-0.7,0-1.2,0.2-1.6,0.7c-0.4,0.5-0.6,1.2-0.6,2c0,0.9,0.2,1.5,0.6,2s0.9,0.7,1.6,0.7
		C42.6,122.8,43.1,122.5,43.5,122.1z"/>
	<path class="st0" d="M57.5,119.2v4.4h-1.1v-4.4c0-0.7-0.1-1.1-0.3-1.4s-0.6-0.4-1.1-0.4c-0.6,0-1.1,0.2-1.4,0.6s-0.5,0.9-0.5,1.6v4
		h-1.1v-4.4c0-0.7-0.1-1.1-0.4-1.4c-0.2-0.3-0.6-0.5-1.1-0.5c-0.6,0-1.1,0.2-1.4,0.6c-0.3,0.4-0.5,0.9-0.5,1.6v4h-1.1v-5.1
		c0-0.7,0-1.4-0.1-2h1.1l0.1,1.2c0.2-0.4,0.5-0.8,0.9-1c0.4-0.2,0.8-0.4,1.4-0.4c0.6,0,1,0.1,1.4,0.3c0.4,0.2,0.6,0.6,0.8,1
		c0.2-0.4,0.5-0.8,0.9-1s0.9-0.4,1.4-0.4C56.7,116.4,57.5,117.3,57.5,119.2z"/>
</g>
<linearGradient id="SVGID_1_" gradientUnits="userSpaceOnUse" x1="60.8354" y1="75.6819" x2="20.2742" y2="5.4277">
	<stop  offset="0" style="stop-color:#8B3F74"/>
	<stop  offset="1" style="stop-color:#101A39"/>
</linearGradient>
<path class="st1" d="M42.3,49.2V35.8h-1.8l-4.8,2.5l0.7,1.7l3.6-2v11.1h-3.9v1.9h9.5v-1.9H42.3z M42.3,49.2V35.8h-1.8l-4.8,2.5
	l0.7,1.7l3.6-2v11.1h-3.9v1.9h9.5v-1.9H42.3z M40.6,0C18.2,0,0,18.2,0,40.6s18.2,40.6,40.6,40.6S81.1,63,81.1,40.6S63,0,40.6,0z
	 M53.8,33.1c0.8,0.8,1.7,1.5,2.7,1.9v10.2l-2.7-2.4V33.1z M25,35c1-0.4,2-1.2,2.8-2v9.8L25,45.3V35z M25,46.7l0.9-0.9l2.9-2.7V32.8
	h0.1v-1.3c0.7-1.1,1.1-2.3,1.3-3.5V17.2h4.4v6.5c0,3.4,2.7,6.1,6.1,6.1s6.1-2.7,6.1-6.1v-6.5h4.4V28c0.1,1.3,0.7,2.6,1.4,3.7v11.5
	l3.5,3.1l0,0l0.3,0.3v13.2l-15.7-0.1L25,59.9V46.7z M66.9,66.9c-7,7-16.4,10.9-26.3,10.9s-19.3-3.9-26.3-10.9
	c-7-7-10.9-16.4-10.9-26.3c0-5.7,1.3-11.2,3.7-16.3L8,24.7c-2.4,5-3.6,10.3-3.6,15.8c0,9.7,3.8,18.8,10.6,25.6
	c6.8,6.8,15.9,10.6,25.6,10.6S59.3,73,66.2,66.2c6.8-6.8,10.6-15.9,10.6-25.6c0-5.5-1.2-10.9-3.6-15.8l0.9-0.4
	c2.5,5.1,3.7,10.6,3.7,16.3C77.8,50.5,73.9,59.8,66.9,66.9z M36.1,49.2v1.9h9.5v-1.9h-3.4V35.8h-1.8l-4.8,2.5l0.7,1.7l3.6-2v11.1
	H36.1z M42.3,49.2V35.8h-1.8l-4.8,2.5l0.7,1.7l3.6-2v11.1h-3.9v1.9h9.5v-1.9H42.3z M42.3,49.2V35.8h-1.8l-4.8,2.5l0.7,1.7l3.6-2
	v11.1h-3.9v1.9h9.5v-1.9H42.3z"/>
</svg>
