<?xml version="1.0" encoding="utf-8"?>
<!-- Generator: Adobe Illustrator 22.0.1, SVG Export Plug-In . SVG Version: 6.00 Build 0)  -->
<svg version="1.1" id="圖層_1" xmlns="http://www.w3.org/2000/svg" xmlns:xlink="http://www.w3.org/1999/xlink" x="0px" y="0px"
	 viewBox="0 0 497.9 95.3" style="enable-background:new 0 0 497.9 95.3;" xml:space="preserve">
<style type="text/css">
	.st0{fill:url(#SVGID_1_);}
	.st1{fill:#4057A5;}
	.st2{font-family:'CenturyGothic';}
	.st3{font-size:60px;}
	.st4{letter-spacing:36;}
	.st5{fill:#101A39;}
	.st6{font-family:'Muli-Regular';}
	.st7{font-size:24px;}
</style>
<linearGradient id="SVGID_1_" gradientUnits="userSpaceOnUse" x1="-70.5102" y1="454.3288" x2="7.4142" y2="454.3288" gradientTransform="matrix(0.7071 -0.7071 0.7071 0.7071 -260.0071 -292.8162)">
	<stop  offset="0" style="stop-color:#8B3F74"/>
	<stop  offset="1" style="stop-color:#101A39"/>
</linearGradient>
<path class="st0" d="M66.5,78.3c-15.2,15.2-39.9,15.2-55.1,0s-15.2-39.9,0-55.1s39.9-15.2,55.1,0S81.7,63.1,66.5,78.3z M12.5,24.3
	C-2,38.9-2,62.6,12.5,77.2s38.2,14.6,52.8,0s14.6-38.2,0-52.8S27.1,9.8,12.5,24.3z M61.7,74.6L61.7,74.6l1.2-1.2L61.7,74.6z
	 M62.9,74.6l0.5-0.5l0,0C63.3,74.3,63.1,74.4,62.9,74.6z M19,77.8l0.1-0.9c0,0,0,0,0,0L19,77.8z M14.3,26c0.2-0.2,0.4-0.4,0.6-0.5
	l0,0L14.3,26z M38.6,16c-4.8,0-9.4,1-13.7,2.8c-0.3,0.1-0.6,0.3-1,0.5c-3.3,1.6-6.3,3.7-9,6.2c-0.2,0.2-0.4,0.4-0.6,0.5l-0.1,0.1
	c-0.2,0.2-0.4,0.4-0.5,0.6c-6.1,6.4-9.5,14.8-9.5,23.7c0,2.8,0.3,5.6,1,8.3c0.4,1.6,0.9,3.2,1.5,4.7c1.9,4.5,4.7,8.7,8.3,12
	c0.1,0.1,0.1,0.1,0.2,0.2c1.2,1.1,2.4,2.1,3.7,3c0,0,0.1,0,0.1,0.1c1.9,1.3,3.9,2.4,6.1,3.4c0,0,0.1,0,0.1,0c0.1,0,0.1,0,0.1,0.1
	c2.6,1.1,5.4,1.8,8.1,2.2c1.7,0.3,3.4,0.4,5.1,0.4c1.7,0,3.4-0.1,5.1-0.4c7-1.1,13.5-4.2,18.6-9.1c0.2-0.2,0.4-0.3,0.5-0.5l0.1-0.1
	c0.2-0.2,0.4-0.4,0.5-0.5c1.1-1.1,2.1-2.3,3-3.6c0.2-0.2,0.4-0.5,0.5-0.7l0-0.1c3.9-5.7,6-12.4,6-19.4c0-5.3-1.2-10.3-3.5-15
	c-1.2-2.4-2.7-4.7-4.4-6.8l0,0C58.5,20.6,48.9,16,38.6,16z M19.2,76.9L19,77.8L19.2,76.9C19.2,76.9,19.2,76.9,19.2,76.9z M19.7,77
	c-1.1-0.8-2.2-1.7-3.3-2.7l0,0c0,0-0.1-0.1-0.1-0.1l0,0c-3.4-3.2-6.1-7.1-7.9-11.4c-0.6-1.4-1.1-2.9-1.5-4.5c-0.6-2.6-1-5.3-1-7.9
	c0-1,0-2,0.1-3C10.3,54,15.4,59,21.7,62.6c5.9,3.4,11.7,5,16.4,6.2c3.5,0.9,6.4,1.7,8.3,2.9c-5.3,3-10.7,4.3-14.9,4.9
	C25.8,77.5,21.1,77.1,19.7,77z M43.4,82.7c-1.6,0.2-3.2,0.4-4.9,0.4c-1.6,0-3.2-0.1-4.8-0.4c-2.6-0.4-5.2-1.1-7.7-2.1l0,0l0,0
	l-0.1,0c0,0,0,0,0,0l-0.2-0.1l0,0c-1-0.4-2-0.9-2.9-1.4c2.3,0.1,5.4,0,8.9-0.5c4.6-0.6,10.4-2.1,16.1-5.5c1.7,1.7,2.6,3.5,2.5,5.1
	c0,1.7-1,2.8-1.4,3.3C47.1,81.9,45.3,82.4,43.4,82.7z M61,74.1c-2.8,2.6-6,4.7-9.4,6.2c0.2-0.6,0.4-1.4,0.4-2.2c0-2-0.9-4.1-2.7-6.1
	c1.8-1.2,3.7-2.6,5.4-4.3L61,74.1z M53.4,66.5c-1.7,1.7-3.6,3.1-5.4,4.3c-2.1-1.7-5.4-2.6-9.5-3.6c-9.4-2.5-22.3-5.9-32.1-22.6
	c1.1-6.2,4-12,8.4-16.7L53.4,66.5z M61.7,74.6L61.7,74.6l1.2-1.2L61.7,74.6z M16.1,26.7c2.5-2.4,5.3-4.3,8.5-5.8
	c0.4-0.2,0.7-0.3,1-0.4c2.1-0.9,4.2-1.6,6.4-2l0.2,0.2l0.1,0c17,9.8,20.4,22.8,22.9,32.3c1,3.9,1.9,7.1,3.5,9.3
	c-1.2,1.8-2.5,3.5-3.9,5L16.1,26.7z M65.5,68.8L65.5,68.8c-0.2,0.3-0.3,0.5-0.5,0.7l0,0c-0.8,1.2-1.8,2.3-2.7,3.3l-6.3-6.3
	c1.4-1.5,2.7-3.2,3.9-4.9c2.1,2,4.2,3,6.3,2.9c0.8,0,1.5-0.2,2.2-0.4C67.5,65.6,66.6,67.2,65.5,68.8z M67.9,36.1
	c2.2,4.5,3.3,9.3,3.3,14.3c0,3.8-0.6,7.4-1.9,10.9c-0.4,0.4-1.6,1.4-3.3,1.4c-1.7,0-3.5-0.9-5.3-2.7c3.9-6.6,6.2-14.8,6.9-24.5
	C67.7,35.7,67.8,35.9,67.9,36.1z M63.7,29.6L63.7,29.6c0.9,1,1.6,2.1,2.3,3.1c-0.4,10.3-2.5,19-6.4,25.8c-1.1-1.9-1.9-4.7-2.8-8.1
	C55.5,45.8,54,39.9,50.6,34c-3.8-6.5-9-11.7-16.1-16.1c1.3-0.2,2.7-0.2,4.1-0.2C48.3,17.7,57.5,22.1,63.7,29.6z M18.9,78.6
	L18.9,78.6c0,0.1,0,0.1,0.1,0.1C19,78.6,19,78.6,18.9,78.6z M19,77.8l0.1-0.9c0,0,0,0,0,0L19,77.8z M13.7,26.7L13.7,26.7
	c0.2-0.2,0.4-0.4,0.6-0.6L13.7,26.7z M62.3,75.2L62.3,75.2l0.5-0.5C62.6,74.9,62.5,75.1,62.3,75.2z M61.7,74.6L61.7,74.6l1.2-1.2
	L61.7,74.6z M61.7,74.6L61.7,74.6l1.2-1.2L61.7,74.6z"/>
<text transform="matrix(1 0 0 1 116.7699 51.5403)" class="st1 st2 st3 st4">NSAP</text>
<text transform="matrix(1 0 0 1 118.7699 88.7287)" class="st5 st6 st7">NBA Static Analyzing &amp; Predicting</text>
</svg>
