<?xml version="1.0" encoding="utf-8"?>
<!-- Generator: Adobe Illustrator 22.0.1, SVG Export Plug-In . SVG Version: 6.00 Build 0)  -->
<svg version="1.1" id="圖層_1" xmlns="http://www.w3.org/2000/svg" xmlns:xlink="http://www.w3.org/1999/xlink" x="0px" y="0px"
	 viewBox="0 0 496 86.8" style="enable-background:new 0 0 496 86.8;" xml:space="preserve">
<style type="text/css">
	.st0{clip-path:url(#SVGID_2_);fill:#4F2A55;}
	.st1{clip-path:url(#SVGID_2_);fill:#4E2A55;}
	.st2{clip-path:url(#SVGID_2_);fill:#4D2954;}
	.st3{clip-path:url(#SVGID_2_);fill:#833C70;}
	.st4{clip-path:url(#SVGID_2_);fill:#813B6F;}
	.st5{clip-path:url(#SVGID_2_);fill:#843C70;}
	.st6{clip-path:url(#SVGID_2_);fill:#5C2E5B;}
	.st7{clip-path:url(#SVGID_2_);fill:#5B2E5B;}
	.st8{clip-path:url(#SVGID_2_);fill:#5A2D5A;}
	.st9{clip-path:url(#SVGID_2_);fill:#592D5A;}
	.st10{clip-path:url(#SVGID_2_);fill:#582D59;}
	.st11{clip-path:url(#SVGID_2_);fill:#572C59;}
	.st12{clip-path:url(#SVGID_2_);fill:#562C58;}
	.st13{clip-path:url(#SVGID_2_);fill:#552C58;}
	.st14{clip-path:url(#SVGID_2_);fill:#532B57;}
	.st15{clip-path:url(#SVGID_2_);fill:#522B57;}
	.st16{clip-path:url(#SVGID_2_);fill:#512B56;}
	.st17{clip-path:url(#SVGID_2_);fill:#502A56;}
	.st18{clip-path:url(#SVGID_2_);fill:#4C2954;}
	.st19{clip-path:url(#SVGID_2_);fill:#4B2953;}
	.st20{clip-path:url(#SVGID_2_);fill:#4A2953;}
	.st21{clip-path:url(#SVGID_2_);fill:#492852;}
	.st22{clip-path:url(#SVGID_2_);fill:#482852;}
	.st23{clip-path:url(#SVGID_2_);fill:#472851;}
	.st24{clip-path:url(#SVGID_2_);fill:#462751;}
	.st25{clip-path:url(#SVGID_2_);fill:#452750;}
	.st26{clip-path:url(#SVGID_2_);fill:#442750;}
	.st27{clip-path:url(#SVGID_2_);fill:#43264F;}
	.st28{clip-path:url(#SVGID_2_);fill:#42264F;}
	.st29{clip-path:url(#SVGID_2_);fill:#41264E;}
	.st30{clip-path:url(#SVGID_2_);fill:#40254E;}
	.st31{clip-path:url(#SVGID_2_);fill:#3F254D;}
	.st32{clip-path:url(#SVGID_2_);fill:#3E254D;}
	.st33{clip-path:url(#SVGID_2_);fill:#3D254C;}
	.st34{clip-path:url(#SVGID_2_);fill:#3C244C;}
	.st35{clip-path:url(#SVGID_2_);fill:#3B244B;}
	.st36{clip-path:url(#SVGID_2_);fill:#3A244B;}
	.st37{clip-path:url(#SVGID_2_);fill:#38234A;}
	.st38{clip-path:url(#SVGID_2_);fill:#37234A;}
	.st39{clip-path:url(#SVGID_2_);fill:#362349;}
	.st40{clip-path:url(#SVGID_2_);fill:#352349;}
	.st41{clip-path:url(#SVGID_2_);fill:#342248;}
	.st42{clip-path:url(#SVGID_2_);fill:#332248;}
	.st43{clip-path:url(#SVGID_2_);fill:#322247;}
	.st44{clip-path:url(#SVGID_2_);fill:#312247;}
	.st45{clip-path:url(#SVGID_2_);fill:#302146;}
	.st46{clip-path:url(#SVGID_2_);fill:#2F2146;}
	.st47{clip-path:url(#SVGID_2_);fill:#2E2145;}
	.st48{clip-path:url(#SVGID_2_);fill:#2D2145;}
	.st49{clip-path:url(#SVGID_2_);fill:#2B2044;}
	.st50{clip-path:url(#SVGID_2_);fill:#2A2044;}
	.st51{clip-path:url(#SVGID_2_);fill:#292043;}
	.st52{clip-path:url(#SVGID_2_);fill:#282043;}
	.st53{clip-path:url(#SVGID_2_);fill:#271F42;}
	.st54{clip-path:url(#SVGID_2_);fill:#261F42;}
	.st55{clip-path:url(#SVGID_2_);fill:#251F42;}
	.st56{clip-path:url(#SVGID_2_);fill:#241F41;}
	.st57{clip-path:url(#SVGID_2_);fill:#231E41;}
	.st58{clip-path:url(#SVGID_2_);fill:#221E40;}
	.st59{clip-path:url(#SVGID_2_);fill:#201E40;}
	.st60{clip-path:url(#SVGID_2_);fill:#1F1D3F;}
	.st61{clip-path:url(#SVGID_2_);fill:#1E1D3F;}
	.st62{clip-path:url(#SVGID_2_);fill:#1D1D3E;}
	.st63{clip-path:url(#SVGID_2_);fill:#1C1D3E;}
	.st64{clip-path:url(#SVGID_2_);fill:#1B1C3D;}
	.st65{clip-path:url(#SVGID_2_);fill:#1A1C3D;}
	.st66{clip-path:url(#SVGID_2_);fill:#191C3C;}
	.st67{clip-path:url(#SVGID_2_);fill:#171C3C;}
	.st68{clip-path:url(#SVGID_2_);fill:#161B3C;}
	.st69{clip-path:url(#SVGID_2_);fill:#151B3B;}
	.st70{clip-path:url(#SVGID_2_);fill:#141B3B;}
	.st71{clip-path:url(#SVGID_2_);fill:#131A3A;}
	.st72{clip-path:url(#SVGID_2_);fill:#121A3A;}
	.st73{clip-path:url(#SVGID_2_);fill:#111A39;}
	.st74{clip-path:url(#SVGID_2_);fill:#101A39;}
	.st75{clip-path:url(#SVGID_2_);fill:#78386A;}
	.st76{clip-path:url(#SVGID_2_);fill:#773769;}
	.st77{clip-path:url(#SVGID_2_);fill:#763769;}
	.st78{clip-path:url(#SVGID_2_);fill:#753668;}
	.st79{clip-path:url(#SVGID_2_);fill:#743668;}
	.st80{clip-path:url(#SVGID_2_);fill:#733667;}
	.st81{clip-path:url(#SVGID_2_);fill:#723567;}
	.st82{clip-path:url(#SVGID_2_);fill:#713566;}
	.st83{clip-path:url(#SVGID_2_);fill:#703566;}
	.st84{clip-path:url(#SVGID_2_);fill:#6F3465;}
	.st85{clip-path:url(#SVGID_2_);fill:#6E3464;}
	.st86{clip-path:url(#SVGID_2_);fill:#6C3464;}
	.st87{clip-path:url(#SVGID_2_);fill:#6B3363;}
	.st88{clip-path:url(#SVGID_2_);fill:#6A3363;}
	.st89{clip-path:url(#SVGID_2_);fill:#693362;}
	.st90{clip-path:url(#SVGID_2_);fill:#683262;}
	.st91{clip-path:url(#SVGID_2_);fill:#673261;}
	.st92{clip-path:url(#SVGID_2_);fill:#663161;}
	.st93{clip-path:url(#SVGID_2_);fill:#653160;}
	.st94{clip-path:url(#SVGID_2_);fill:#643160;}
	.st95{clip-path:url(#SVGID_2_);fill:#63305F;}
	.st96{clip-path:url(#SVGID_2_);fill:#62305E;}
	.st97{clip-path:url(#SVGID_2_);fill:#61305E;}
	.st98{clip-path:url(#SVGID_2_);fill:#602F5D;}
	.st99{clip-path:url(#SVGID_2_);fill:#5F2F5D;}
	.st100{clip-path:url(#SVGID_2_);fill:#5E2F5C;}
	.st101{clip-path:url(#SVGID_2_);fill:#5D2E5C;}
	.st102{clip-path:url(#SVGID_2_);fill:#893E73;}
	.st103{clip-path:url(#SVGID_2_);fill:#883E73;}
	.st104{clip-path:url(#SVGID_2_);fill:#873E72;}
	.st105{clip-path:url(#SVGID_2_);fill:#863D72;}
	.st106{clip-path:url(#SVGID_2_);fill:#853D71;}
	.st107{clip-path:url(#SVGID_2_);fill:#803B6F;}
	.st108{clip-path:url(#SVGID_2_);fill:#7F3B6E;}
	.st109{clip-path:url(#SVGID_2_);fill:#7E3A6D;}
	.st110{clip-path:url(#SVGID_2_);fill:#7D3A6D;}
	.st111{clip-path:url(#SVGID_2_);fill:#7C396C;}
	.st112{clip-path:url(#SVGID_2_);fill:#7B396C;}
	.st113{clip-path:url(#SVGID_2_);fill:#7A386B;}
	.st114{clip-path:url(#SVGID_2_);fill:#79386B;}
	.st115{clip-path:url(#SVGID_2_);fill:#8B3F74;}
	.st116{clip-path:url(#SVGID_2_);fill:#8A3F74;}
	.st117{fill:#4057A5;}
	.st118{fill:#101A39;}
</style>
<g>
	<g>
		<defs>
			<path id="SVGID_1_" d="M66.5,70.9c-15.2,15.2-39.9,15.2-55.1,0s-15.2-39.9,0-55.1s39.9-15.2,55.1,0S81.7,55.7,66.5,70.9z
				 M12.5,17C-2,31.5-2,55.2,12.5,69.8s38.2,14.6,52.8,0s14.6-38.2,0-52.8S27.1,2.4,12.5,17z M61.7,67.3L61.7,67.3l1.2-1.2
				L61.7,67.3z M62.9,67.3l0.5-0.5l0,0C63.3,66.9,63.1,67.1,62.9,67.3z M19,70.4l0.1-0.9c0,0,0,0,0,0L19,70.4z M14.3,18.7
				c0.2-0.2,0.4-0.4,0.6-0.5l0,0L14.3,18.7z M38.6,8.6c-4.8,0-9.4,1-13.7,2.8c-0.3,0.1-0.6,0.3-1,0.5c-3.3,1.6-6.3,3.7-9,6.2
				c-0.2,0.2-0.4,0.4-0.6,0.5l-0.1,0.1c-0.2,0.2-0.4,0.4-0.5,0.6C7.5,25.7,4.2,34.1,4.2,43c0,2.8,0.3,5.6,1,8.3
				c0.4,1.6,0.9,3.2,1.5,4.7c1.9,4.5,4.7,8.7,8.3,12c0.1,0.1,0.1,0.1,0.2,0.2c1.2,1.1,2.4,2.1,3.7,3c0,0,0.1,0,0.1,0.1
				c1.9,1.3,3.9,2.4,6.1,3.4c0,0,0.1,0,0.1,0c0.1,0,0.1,0,0.1,0.1c2.6,1.1,5.4,1.8,8.1,2.2c1.7,0.3,3.4,0.4,5.1,0.4
				c1.7,0,3.4-0.1,5.1-0.4c7-1.1,13.5-4.2,18.6-9.1c0.2-0.2,0.4-0.3,0.5-0.5l0.1-0.1c0.2-0.2,0.4-0.4,0.5-0.5c1.1-1.1,2.1-2.3,3-3.6
				c0.2-0.2,0.4-0.5,0.5-0.7l0-0.1c3.9-5.7,6-12.4,6-19.4c0-5.3-1.2-10.3-3.5-15c-1.2-2.4-2.7-4.7-4.4-6.8l0,0
				C58.5,13.2,48.9,8.6,38.6,8.6z M19.2,69.6L19,70.4L19.2,69.6C19.2,69.6,19.2,69.6,19.2,69.6z M19.7,69.6
				c-1.1-0.8-2.2-1.7-3.3-2.7l0,0c0,0-0.1-0.1-0.1-0.1l0,0c-3.4-3.2-6.1-7.1-7.9-11.4c-0.6-1.4-1.1-2.9-1.5-4.5
				c-0.6-2.6-1-5.3-1-7.9c0-1,0-2,0.1-3c4.2,6.7,9.4,11.7,15.6,15.3c5.9,3.4,11.7,5,16.4,6.2c3.5,0.9,6.4,1.7,8.3,2.9
				c-5.3,3-10.7,4.3-14.9,4.9C25.8,70.2,21.1,69.8,19.7,69.6z M43.4,75.3c-1.6,0.2-3.2,0.4-4.9,0.4c-1.6,0-3.2-0.1-4.8-0.4
				c-2.6-0.4-5.2-1.1-7.7-2.1l0,0l0,0l-0.1,0c0,0,0,0,0,0L25.7,73l0,0c-1-0.4-2-0.9-2.9-1.4c2.3,0.1,5.4,0,8.9-0.5
				c4.6-0.6,10.4-2.1,16.1-5.5c1.7,1.7,2.6,3.5,2.5,5.1c0,1.7-1,2.8-1.4,3.3C47.1,74.6,45.3,75,43.4,75.3z M61,66.7
				c-2.8,2.6-6,4.7-9.4,6.2c0.2-0.6,0.4-1.4,0.4-2.2c0-2-0.9-4.1-2.7-6.1c1.8-1.2,3.7-2.6,5.4-4.3L61,66.7z M53.4,59.2
				c-1.7,1.7-3.6,3.1-5.4,4.3c-2.1-1.7-5.4-2.6-9.5-3.6c-9.4-2.5-22.3-5.9-32.1-22.6c1.1-6.2,4-12,8.4-16.7L53.4,59.2z M61.7,67.3
				L61.7,67.3l1.2-1.2L61.7,67.3z M16.1,19.3c2.5-2.4,5.3-4.3,8.5-5.8c0.4-0.2,0.7-0.3,1-0.4c2.1-0.9,4.2-1.6,6.4-2l0.2,0.2l0.1,0
				c17,9.8,20.4,22.8,22.9,32.3c1,3.9,1.9,7.1,3.5,9.3c-1.2,1.8-2.5,3.5-3.9,5L16.1,19.3z M65.5,61.4L65.5,61.4
				c-0.2,0.3-0.3,0.5-0.5,0.7l0,0c-0.8,1.2-1.8,2.3-2.7,3.3l-6.3-6.3c1.4-1.5,2.7-3.2,3.9-4.9c2.1,2,4.2,3,6.3,2.9
				c0.8,0,1.5-0.2,2.2-0.4C67.5,58.3,66.6,59.9,65.5,61.4z M67.9,28.7c2.2,4.5,3.3,9.3,3.3,14.3c0,3.8-0.6,7.4-1.9,10.9
				c-0.4,0.4-1.6,1.4-3.3,1.4c-1.7,0-3.5-0.9-5.3-2.7c3.9-6.6,6.2-14.8,6.9-24.5C67.7,28.4,67.8,28.5,67.9,28.7z M63.7,22.3
				L63.7,22.3c0.9,1,1.6,2.1,2.3,3.1c-0.4,10.3-2.5,19-6.4,25.8c-1.1-1.9-1.9-4.7-2.8-8.1c-1.2-4.7-2.8-10.5-6.2-16.4
				c-3.8-6.5-9-11.7-16.1-16.1c1.3-0.2,2.7-0.2,4.1-0.2C48.3,10.4,57.5,14.7,63.7,22.3z M18.9,71.2L18.9,71.2c0,0.1,0,0.1,0.1,0.1
				C19,71.3,19,71.2,18.9,71.2z M19,70.4l0.1-0.9c0,0,0,0,0,0L19,70.4z M13.7,19.3L13.7,19.3c0.2-0.2,0.4-0.4,0.6-0.6L13.7,19.3z
				 M62.3,67.9L62.3,67.9l0.5-0.5C62.6,67.5,62.5,67.7,62.3,67.9z M61.7,67.3L61.7,67.3l1.2-1.2L61.7,67.3z M61.7,67.3L61.7,67.3
				l1.2-1.2L61.7,67.3z"/>
		</defs>
		<clipPath id="SVGID_2_">
			<use xlink:href="#SVGID_1_"  style="overflow:visible;"/>
		</clipPath>
		<polygon class="st0" points="61.7,66.6 62.4,67.3 61.7,67.3 		"/>
		<polygon class="st1" points="62.1,66.1 62.8,66.8 62.8,67.3 62.4,67.3 61.7,66.6 61.7,66.1 		"/>
		<polygon class="st2" points="62.8,66.8 62.1,66.1 62.8,66.1 		"/>
		<polygon class="st0" points="61.7,66.6 62.4,67.3 61.7,67.3 		"/>
		<polygon class="st1" points="62.1,66.1 62.8,66.8 62.8,67.3 62.4,67.3 61.7,66.6 61.7,66.1 		"/>
		<polygon class="st2" points="62.8,66.8 62.1,66.1 62.8,66.1 		"/>
		<polygon class="st0" points="62.4,67.4 62.8,67.7 62.8,67.9 62.3,67.9 62.3,67.4 		"/>
		<polygon class="st1" points="62.8,67.7 62.4,67.4 62.8,67.4 		"/>
		<polygon class="st0" points="13.8,18.7 14.2,19.2 14.2,19.3 13.7,19.3 13.7,18.7 		"/>
		<polygon class="st1" points="14.2,19.2 13.8,18.7 14.2,18.7 		"/>
		<polygon class="st3" points="19,70.1 19.2,70.2 19.2,70.4 19,70.4 		"/>
		<polygon class="st4" points="19.2,70.2 19,70.1 19,69.6 19.2,69.6 		"/>
		<rect x="18.9" y="71.2" class="st5" width="0.1" height="0.1"/>
		<polygon class="st6" points="34.5,50.7 35,51.2 34.5,51.2 		"/>
		<polygon class="st7" points="34.5,49.8 35.9,51.2 35,51.2 34.5,50.7 		"/>
		<polygon class="st8" points="34.5,48.9 36.9,51.2 35.9,51.2 34.5,49.8 		"/>
		<polygon class="st9" points="34.5,47.9 37.8,51.2 36.9,51.2 34.5,48.9 		"/>
		<polygon class="st10" points="34.5,47 38.7,51.2 37.8,51.2 34.5,47.9 		"/>
		<polygon class="st11" points="34.5,46 39.7,51.2 38.7,51.2 34.5,47 		"/>
		<polygon class="st12" points="34.5,45.1 40.6,51.2 39.7,51.2 34.5,46 		"/>
		<polygon class="st13" points="34.5,44.1 41.6,51.2 40.6,51.2 34.5,45.1 		"/>
		<polygon class="st14" points="34.5,43.2 42.5,51.2 41.6,51.2 34.5,44.1 		"/>
		<polygon class="st15" points="34.5,42.3 43.4,51.2 42.5,51.2 34.5,43.2 		"/>
		<polygon class="st16" points="34.5,41.3 44.4,51.2 43.4,51.2 34.5,42.3 		"/>
		<polygon class="st17" points="34.5,40.4 45.3,51.2 44.4,51.2 34.5,41.3 		"/>
		<polygon class="st0" points="34.5,39.4 46.3,51.2 45.3,51.2 34.5,40.4 		"/>
		<polygon class="st1" points="34.5,38.5 47.2,51.2 46.3,51.2 34.5,39.4 		"/>
		<polygon class="st2" points="34.5,37.5 48.2,51.2 47.2,51.2 34.5,38.5 		"/>
		<polygon class="st18" points="34.5,36.6 49.1,51.2 48.2,51.2 34.5,37.5 		"/>
		<polygon class="st19" points="34.5,35.7 50,51.2 49.1,51.2 34.5,36.6 		"/>
		<polygon class="st20" points="34.5,34.7 51,51.2 50,51.2 34.5,35.7 		"/>
		<polygon class="st21" points="34.5,33.8 51.9,51.2 51,51.2 34.5,34.7 		"/>
		<polygon class="st22" points="34.5,32.8 52.9,51.2 51.9,51.2 34.5,33.8 		"/>
		<polygon class="st23" points="34.5,31.9 53.8,51.2 52.9,51.2 34.5,32.8 		"/>
		<polygon class="st24" points="34.5,31 54.8,51.2 53.8,51.2 34.5,31.9 		"/>
		<polygon class="st25" points="34.5,30 55.7,51.2 54.8,51.2 34.5,31 		"/>
		<polygon class="st26" points="34.5,29.1 56.6,51.2 55.7,51.2 34.5,30 		"/>
		<polygon class="st27" points="34.5,28.1 57.6,51.2 56.6,51.2 34.5,29.1 		"/>
		<polygon class="st28" points="34.5,27.2 58.5,51.2 57.6,51.2 34.5,28.1 		"/>
		<polygon class="st29" points="34.5,26.2 59.5,51.2 58.5,51.2 34.5,27.2 		"/>
		<polygon class="st30" points="34.5,25.3 60.4,51.2 59.5,51.2 34.5,26.2 		"/>
		<polygon class="st31" points="34.5,24.4 61.3,51.2 60.4,51.2 34.5,25.3 		"/>
		<polygon class="st32" points="34.5,23.4 62.3,51.2 61.3,51.2 34.5,24.4 		"/>
		<polygon class="st33" points="34.5,22.5 62.8,50.8 62.4,51.2 62.3,51.2 34.5,23.4 		"/>
		<polygon class="st34" points="34.5,21.5 63.3,50.3 62.8,50.8 34.5,22.5 		"/>
		<polygon class="st35" points="34.5,20.6 63.8,49.8 63.3,50.3 34.5,21.5 		"/>
		<polygon class="st36" points="34.5,19.7 64.2,49.4 63.8,49.8 34.5,20.6 		"/>
		<polygon class="st37" points="34.5,18.7 64.7,48.9 64.2,49.4 34.5,19.7 		"/>
		<polygon class="st38" points="34.5,17.8 65.2,48.4 64.7,48.9 34.5,18.7 		"/>
		<polygon class="st39" points="34.5,16.8 65.6,48 65.2,48.4 34.5,17.8 		"/>
		<polygon class="st40" points="34.5,15.9 66,47.4 66,47.6 65.6,48 34.5,16.8 		"/>
		<polygon class="st41" points="34.5,14.9 66,46.5 66,47.4 34.5,15.9 		"/>
		<polygon class="st42" points="34.5,14 66,45.5 66,46.5 34.5,14.9 		"/>
		<polygon class="st43" points="34.5,13.1 66,44.6 66,45.5 34.5,14 		"/>
		<polygon class="st44" points="34.5,12.1 66,43.6 66,44.6 34.5,13.1 		"/>
		<polygon class="st45" points="34.5,11.2 66,42.7 66,43.6 34.5,12.1 		"/>
		<polygon class="st46" points="34.7,10.4 66,41.8 66,42.7 34.5,11.2 34.5,10.4 		"/>
		<polygon class="st47" points="35.6,10.4 66,40.8 66,41.8 34.7,10.4 		"/>
		<polygon class="st48" points="36.5,10.4 66,39.9 66,40.8 35.6,10.4 		"/>
		<polygon class="st49" points="37.5,10.4 66,38.9 66,39.9 36.5,10.4 		"/>
		<polygon class="st50" points="38.4,10.4 66,38 66,38.9 37.5,10.4 		"/>
		<polygon class="st51" points="39.4,10.4 66,37 66,38 38.4,10.4 		"/>
		<polygon class="st52" points="40.3,10.4 66,36.1 66,37 39.4,10.4 		"/>
		<polygon class="st53" points="41.2,10.4 66,35.2 66,36.1 40.3,10.4 		"/>
		<polygon class="st54" points="42.2,10.4 66,34.2 66,35.2 41.2,10.4 		"/>
		<polygon class="st55" points="43.1,10.4 66,33.3 66,34.2 42.2,10.4 		"/>
		<polygon class="st56" points="44.1,10.4 66,32.3 66,33.3 43.1,10.4 		"/>
		<polygon class="st57" points="45,10.4 66,31.4 66,32.3 44.1,10.4 		"/>
		<polygon class="st58" points="46,10.4 66,30.5 66,31.4 45,10.4 		"/>
		<polygon class="st59" points="46.9,10.4 66,29.5 66,30.5 46,10.4 		"/>
		<polygon class="st60" points="47.8,10.4 66,28.6 66,29.5 46.9,10.4 		"/>
		<polygon class="st61" points="48.8,10.4 66,27.6 66,28.6 47.8,10.4 		"/>
		<polygon class="st62" points="49.7,10.4 66,26.7 66,27.6 48.8,10.4 		"/>
		<polygon class="st63" points="50.7,10.4 66,25.7 66,26.7 49.7,10.4 		"/>
		<polygon class="st64" points="51.6,10.4 66,24.8 66,25.7 50.7,10.4 		"/>
		<polygon class="st65" points="52.5,10.4 66,23.9 66,24.8 51.6,10.4 		"/>
		<polygon class="st66" points="53.5,10.4 66,22.9 66,23.9 52.5,10.4 		"/>
		<polygon class="st67" points="54.4,10.4 66,22 66,22.9 53.5,10.4 		"/>
		<polygon class="st68" points="55.4,10.4 66,21 66,22 54.4,10.4 		"/>
		<polygon class="st69" points="56.3,10.4 66,20.1 66,21 55.4,10.4 		"/>
		<polygon class="st70" points="57.3,10.4 66,19.2 66,20.1 56.3,10.4 		"/>
		<polygon class="st71" points="58.2,10.4 66,18.2 66,19.2 57.3,10.4 		"/>
		<polygon class="st72" points="59.1,10.4 66,17.3 66,18.2 58.2,10.4 		"/>
		<polygon class="st73" points="60.1,10.4 66,16.3 66,17.3 59.1,10.4 		"/>
		<polygon class="st74" points="61,10.4 66,15.4 66,16.3 60.1,10.4 		"/>
		<polygon class="st74" points="66,15.4 61,10.4 66,10.4 		"/>
		<polygon class="st26" points="60.7,55.3 60.8,55.4 60.7,55.4 		"/>
		<polygon class="st27" points="60.7,54.4 61.8,55.4 60.8,55.4 60.7,55.3 		"/>
		<polygon class="st28" points="60.7,53.4 62.7,55.4 61.8,55.4 60.7,54.4 		"/>
		<polygon class="st29" points="60.7,52.5 63.6,55.4 62.7,55.4 60.7,53.4 		"/>
		<polygon class="st30" points="60.7,51.5 64.6,55.4 63.6,55.4 60.7,52.5 		"/>
		<polygon class="st31" points="60.7,50.6 65.5,55.4 64.6,55.4 60.7,51.5 		"/>
		<polygon class="st32" points="60.7,49.6 66.5,55.4 65.5,55.4 60.7,50.6 		"/>
		<polygon class="st33" points="60.7,48.7 67.4,55.4 66.5,55.4 60.7,49.6 		"/>
		<polygon class="st34" points="60.7,47.8 68.4,55.4 67.4,55.4 60.7,48.7 		"/>
		<polygon class="st35" points="60.7,46.8 69.3,55.4 68.4,55.4 60.7,47.8 		"/>
		<polygon class="st36" points="60.7,45.9 70.2,55.4 69.3,55.4 60.7,46.8 		"/>
		<polygon class="st37" points="60.7,44.9 70.9,55.1 70.7,55.4 70.2,55.4 60.7,45.9 		"/>
		<polygon class="st38" points="60.7,44 71.2,54.5 71.2,54.9 70.9,55.1 60.7,44.9 		"/>
		<polygon class="st39" points="60.7,43.1 71.2,53.5 71.2,54.5 60.7,44 		"/>
		<polygon class="st40" points="60.7,42.1 71.2,52.6 71.2,53.5 60.7,43.1 		"/>
		<polygon class="st41" points="60.7,41.2 71.2,51.6 71.2,52.6 60.7,42.1 		"/>
		<polygon class="st42" points="60.7,40.2 71.2,50.7 71.2,51.6 60.7,41.2 		"/>
		<polygon class="st43" points="60.7,39.3 71.2,49.8 71.2,50.7 60.7,40.2 		"/>
		<polygon class="st44" points="60.7,38.3 71.2,48.8 71.2,49.8 60.7,39.3 		"/>
		<polygon class="st45" points="60.7,37.4 71.2,47.9 71.2,48.8 60.7,38.3 		"/>
		<polygon class="st46" points="60.7,36.5 71.2,46.9 71.2,47.9 60.7,37.4 		"/>
		<polygon class="st47" points="60.7,35.5 71.2,46 71.2,46.9 60.7,36.5 		"/>
		<polygon class="st48" points="60.7,34.6 71.2,45 71.2,46 60.7,35.5 		"/>
		<polygon class="st49" points="60.7,33.6 71.2,44.1 71.2,45 60.7,34.6 		"/>
		<polygon class="st50" points="60.7,32.7 71.2,43.2 71.2,44.1 60.7,33.6 		"/>
		<polygon class="st51" points="60.7,32.2 61,32 71.2,42.2 71.2,43.2 60.7,32.7 		"/>
		<polygon class="st52" points="61,32 61.4,31.5 71.2,41.3 71.2,42.2 		"/>
		<polygon class="st53" points="61.4,31.5 61.9,31 71.2,40.3 71.2,41.3 		"/>
		<polygon class="st54" points="61.9,31 62.4,30.6 71.2,39.4 71.2,40.3 		"/>
		<polygon class="st55" points="62.4,30.6 62.9,30.1 71.2,38.4 71.2,39.4 		"/>
		<polygon class="st56" points="62.9,30.1 63.3,29.6 71.2,37.5 71.2,38.4 		"/>
		<polygon class="st57" points="63.3,29.6 63.8,29.2 71.2,36.6 71.2,37.5 		"/>
		<polygon class="st58" points="63.8,29.2 64.3,28.7 71.2,35.6 71.2,36.6 		"/>
		<polygon class="st59" points="64.3,28.7 64.7,28.2 71.2,34.7 71.2,35.6 		"/>
		<polygon class="st60" points="64.7,28.2 64.8,28.2 65.6,28.2 71.2,33.7 71.2,34.7 		"/>
		<polygon class="st61" points="66.6,28.2 71.2,32.8 71.2,33.7 65.6,28.2 		"/>
		<polygon class="st62" points="67.5,28.2 71.2,31.9 71.2,32.8 66.6,28.2 		"/>
		<polygon class="st63" points="68.4,28.2 71.2,30.9 71.2,31.9 67.5,28.2 		"/>
		<polygon class="st64" points="69.4,28.2 71.2,30 71.2,30.9 68.4,28.2 		"/>
		<polygon class="st65" points="70.3,28.2 71.2,29 71.2,30 69.4,28.2 		"/>
		<polygon class="st66" points="71.2,29 70.3,28.2 71.2,28.2 		"/>
		<polygon class="st14" points="55.9,64.6 56.7,65.4 55.9,65.4 		"/>
		<polygon class="st15" points="55.9,63.7 57.7,65.4 56.7,65.4 55.9,64.6 		"/>
		<polygon class="st16" points="55.9,62.7 58.6,65.4 57.7,65.4 55.9,63.7 		"/>
		<polygon class="st17" points="55.9,61.8 59.6,65.4 58.6,65.4 55.9,62.7 		"/>
		<polygon class="st0" points="55.9,60.8 60.5,65.4 59.6,65.4 55.9,61.8 		"/>
		<polygon class="st1" points="55.9,59.9 61.5,65.4 60.5,65.4 55.9,60.8 		"/>
		<polygon class="st2" points="55.9,59 62.4,65.4 61.5,65.4 55.9,59.9 		"/>
		<polygon class="st18" points="55.9,58 63.3,65.4 62.4,65.4 55.9,59 		"/>
		<polygon class="st19" points="55.9,57.1 64.3,65.4 63.3,65.4 55.9,58 		"/>
		<polygon class="st20" points="55.9,56.1 65.2,65.4 65.1,65.4 64.3,65.4 55.9,57.1 		"/>
		<polygon class="st21" points="55.9,55.2 55.9,55.2 65.6,64.9 65.2,65.4 55.9,56.1 		"/>
		
			<rect x="60.7" y="53" transform="matrix(0.7071 -0.7071 0.7071 0.7071 -24.4217 60.6636)" class="st22" width="0.7" height="13.7"/>
		
			<rect x="61.2" y="52.5" transform="matrix(0.7071 -0.7071 0.7071 0.7071 -23.9507 60.8588)" class="st23" width="0.7" height="13.7"/>
		<polygon class="st24" points="56.9,54.3 57,54.2 57.7,54.2 67,63.5 66.6,64 		"/>
		<polygon class="st25" points="58.7,54.2 67.5,63 67,63.5 57.7,54.2 		"/>
		<polygon class="st26" points="59.6,54.2 68,62.5 67.5,63 58.7,54.2 		"/>
		<polygon class="st27" points="60.5,54.2 68.2,61.9 68.2,62.3 68,62.5 59.6,54.2 		"/>
		<polygon class="st28" points="61.5,54.2 68.2,60.9 68.2,61.9 60.5,54.2 		"/>
		<polygon class="st29" points="62.4,54.2 68.2,60 68.2,60.9 61.5,54.2 		"/>
		<polygon class="st30" points="63.4,54.2 68.2,59 68.2,60 62.4,54.2 		"/>
		<polygon class="st31" points="64.3,54.2 68.2,58.1 68.2,59 63.4,54.2 		"/>
		<polygon class="st32" points="65.2,54.2 68.2,57.1 68.2,58.1 64.3,54.2 		"/>
		<polygon class="st33" points="66.2,54.2 68.2,56.2 68.2,57.1 65.2,54.2 		"/>
		<polygon class="st34" points="67.1,54.2 68.2,55.3 68.2,56.2 66.2,54.2 		"/>
		<polygon class="st35" points="68.1,54.2 68.2,54.3 68.2,55.3 67.1,54.2 		"/>
		<polygon class="st36" points="68.2,54.3 68.1,54.2 68.2,54.2 		"/>
		<polygon class="st75" points="16.1,57.8 16.2,57.9 16.1,57.9 		"/>
		<polygon class="st76" points="16.1,56.8 17.2,57.9 16.2,57.9 16.1,57.8 		"/>
		<polygon class="st77" points="16.1,55.9 18.1,57.9 17.2,57.9 16.1,56.8 		"/>
		<polygon class="st78" points="16.1,55 19,57.9 18.1,57.9 16.1,55.9 		"/>
		<polygon class="st79" points="16.1,54 20,57.9 19,57.9 16.1,55 		"/>
		<polygon class="st80" points="16.1,53.1 20.9,57.9 20,57.9 16.1,54 		"/>
		<polygon class="st81" points="16.1,52.1 21.9,57.9 20.9,57.9 16.1,53.1 		"/>
		<polygon class="st82" points="16.1,51.2 22.8,57.9 21.9,57.9 16.1,52.1 		"/>
		<polygon class="st83" points="16.1,50.3 23.8,57.9 22.8,57.9 16.1,51.2 		"/>
		<polygon class="st84" points="16.1,49.3 24.7,57.9 23.8,57.9 16.1,50.3 		"/>
		<polygon class="st85" points="16.1,48.4 25.6,57.9 24.7,57.9 16.1,49.3 		"/>
		<polygon class="st86" points="16.1,47.4 26.6,57.9 25.6,57.9 16.1,48.4 		"/>
		<polygon class="st87" points="16.1,46.5 27.5,57.9 26.6,57.9 16.1,47.4 		"/>
		<polygon class="st88" points="16.1,45.5 28.5,57.9 27.5,57.9 16.1,46.5 		"/>
		<polygon class="st89" points="16.1,44.6 29.4,57.9 28.5,57.9 16.1,45.5 		"/>
		<polygon class="st90" points="16.1,43.7 30.3,57.9 29.4,57.9 16.1,44.6 		"/>
		<polygon class="st91" points="16.1,42.7 31.3,57.9 30.3,57.9 16.1,43.7 		"/>
		<polygon class="st92" points="16.1,41.8 32.2,57.9 31.3,57.9 16.1,42.7 		"/>
		<polygon class="st93" points="16.1,40.8 33.2,57.9 32.2,57.9 16.1,41.8 		"/>
		<polygon class="st94" points="16.1,39.9 34.1,57.9 33.2,57.9 16.1,40.8 		"/>
		<polygon class="st95" points="16.1,39 35.1,57.9 34.1,57.9 16.1,39.9 		"/>
		<polygon class="st96" points="16.1,38 36,57.9 35.1,57.9 16.1,39 		"/>
		<polygon class="st97" points="16.1,37.1 36.9,57.9 36,57.9 16.1,38 		"/>
		<polygon class="st98" points="16.1,36.1 37.9,57.9 36.9,57.9 16.1,37.1 		"/>
		<polygon class="st99" points="16.1,35.2 38.8,57.9 37.9,57.9 16.1,36.1 		"/>
		<polygon class="st100" points="16.1,34.2 39.8,57.9 38.8,57.9 16.1,35.2 		"/>
		<polygon class="st101" points="16.1,33.3 40.7,57.9 39.8,57.9 16.1,34.2 		"/>
		<polygon class="st6" points="16.1,32.4 41.6,57.9 40.7,57.9 16.1,33.3 		"/>
		<polygon class="st7" points="16.1,31.4 42.6,57.9 41.6,57.9 16.1,32.4 		"/>
		<polygon class="st8" points="16.1,30.5 43.5,57.9 42.6,57.9 16.1,31.4 		"/>
		<polygon class="st9" points="16.1,29.5 44.5,57.9 43.5,57.9 16.1,30.5 		"/>
		<polygon class="st10" points="16.1,28.6 45.4,57.9 44.5,57.9 16.1,29.5 		"/>
		<polygon class="st11" points="16.1,27.6 46.4,57.9 45.4,57.9 16.1,28.6 		"/>
		<polygon class="st12" points="16.1,26.7 47.3,57.9 46.4,57.9 16.1,27.6 		"/>
		<polygon class="st13" points="16.1,25.8 48.2,57.9 47.3,57.9 16.1,26.7 		"/>
		<polygon class="st14" points="16.1,24.8 49.2,57.9 48.2,57.9 16.1,25.8 		"/>
		<polygon class="st15" points="16.1,23.9 50.1,57.9 49.2,57.9 16.1,24.8 		"/>
		<polygon class="st16" points="16.1,22.9 51.1,57.9 50.1,57.9 16.1,23.9 		"/>
		<polygon class="st17" points="16.1,22 52,57.9 51.1,57.9 16.1,22.9 		"/>
		<polygon class="st0" points="16.1,21.1 53,57.9 52,57.9 16.1,22 		"/>
		<polygon class="st1" points="16.1,20.1 53.9,57.9 53,57.9 16.1,21.1 		"/>
		<polygon class="st2" points="16.1,19.2 54.8,57.9 53.9,57.9 16.1,20.1 		"/>
		<polygon class="st18" points="16.1,18.2 55.8,57.9 54.8,57.9 16.1,19.2 		"/>
		<polygon class="st19" points="16.1,17.3 56.7,57.9 55.8,57.9 16.1,18.2 		"/>
		<polygon class="st20" points="16.1,16.5 16.2,16.4 57.6,57.8 57.5,57.9 56.7,57.9 16.1,17.3 		"/>
		
			<rect x="36.8" y="7.6" transform="matrix(0.7071 -0.7071 0.7071 0.7071 -15.1951 37.0567)" class="st21" width="0.7" height="58.5"/>
		
			<rect x="37.3" y="7.1" transform="matrix(0.7071 -0.7071 0.7071 0.7071 -14.7242 37.2518)" class="st22" width="0.7" height="58.5"/>
		<polygon class="st23" points="17.1,15.5 17.6,15 58.6,56 58.6,56.8 58.5,56.9 		"/>
		<polygon class="st24" points="17.6,15 18.1,14.5 58.6,55 58.6,56 		"/>
		<polygon class="st25" points="18.1,14.5 18.6,14.1 58.6,54.1 58.6,55 		"/>
		<polygon class="st26" points="18.6,14.1 19,13.6 58.6,53.2 58.6,54.1 		"/>
		<polygon class="st27" points="19,13.6 19.5,13.1 58.6,52.2 58.6,53.2 		"/>
		<polygon class="st28" points="19.5,13.1 20,12.6 58.6,51.3 58.6,52.2 		"/>
		<polygon class="st29" points="20,12.6 20.4,12.2 58.6,50.3 58.6,51.3 		"/>
		<polygon class="st30" points="20.4,12.2 20.9,11.7 58.6,49.4 58.6,50.3 		"/>
		<polygon class="st31" points="20.9,11.7 21.4,11.2 58.6,48.4 58.6,49.4 		"/>
		<polygon class="st32" points="21.4,11.2 21.6,11 22.1,11 58.6,47.5 58.6,48.4 		"/>
		<polygon class="st33" points="23.1,11 58.6,46.6 58.6,47.5 22.1,11 		"/>
		<polygon class="st34" points="24,11 58.6,45.6 58.6,46.6 23.1,11 		"/>
		<polygon class="st35" points="25,11 58.6,44.7 58.6,45.6 24,11 		"/>
		<polygon class="st36" points="25.9,11 58.6,43.7 58.6,44.7 25,11 		"/>
		<polygon class="st37" points="26.8,11 58.6,42.8 58.6,43.7 25.9,11 		"/>
		<polygon class="st38" points="27.8,11 58.6,41.9 58.6,42.8 26.8,11 		"/>
		<polygon class="st39" points="28.7,11 58.6,40.9 58.6,41.9 27.8,11 		"/>
		<polygon class="st40" points="29.7,11 58.6,40 58.6,40.9 28.7,11 		"/>
		<polygon class="st41" points="30.6,11 58.6,39 58.6,40 29.7,11 		"/>
		<polygon class="st42" points="31.6,11 58.6,38.1 58.6,39 30.6,11 		"/>
		<polygon class="st43" points="32.5,11 58.6,37.1 58.6,38.1 31.6,11 		"/>
		<polygon class="st44" points="33.4,11 58.6,36.2 58.6,37.1 32.5,11 		"/>
		<polygon class="st45" points="34.4,11 58.6,35.3 58.6,36.2 33.4,11 		"/>
		<polygon class="st46" points="35.3,11 58.6,34.3 58.6,35.3 34.4,11 		"/>
		<polygon class="st47" points="36.3,11 58.6,33.4 58.6,34.3 35.3,11 		"/>
		<polygon class="st48" points="37.2,11 58.6,32.4 58.6,33.4 36.3,11 		"/>
		<polygon class="st49" points="38.1,11 58.6,31.5 58.6,32.4 37.2,11 		"/>
		<polygon class="st50" points="39.1,11 58.6,30.6 58.6,31.5 38.1,11 		"/>
		<polygon class="st51" points="40,11 58.6,29.6 58.6,30.6 39.1,11 		"/>
		<polygon class="st52" points="41,11 58.6,28.7 58.6,29.6 40,11 		"/>
		<polygon class="st53" points="41.9,11 58.6,27.7 58.6,28.7 41,11 		"/>
		<polygon class="st54" points="42.9,11 58.6,26.8 58.6,27.7 41.9,11 		"/>
		<polygon class="st55" points="43.8,11 58.6,25.8 58.6,26.8 42.9,11 		"/>
		<polygon class="st56" points="44.7,11 58.6,24.9 58.6,25.8 43.8,11 		"/>
		<polygon class="st57" points="45.7,11 58.6,24 58.6,24.9 44.7,11 		"/>
		<polygon class="st58" points="46.6,11 58.6,23 58.6,24 45.7,11 		"/>
		<polygon class="st59" points="47.6,11 58.6,22.1 58.6,23 46.6,11 		"/>
		<polygon class="st60" points="48.5,11 58.6,21.1 58.6,22.1 47.6,11 		"/>
		<polygon class="st61" points="49.5,11 58.6,20.2 58.6,21.1 48.5,11 		"/>
		<polygon class="st62" points="50.4,11 58.6,19.2 58.6,20.2 49.5,11 		"/>
		<polygon class="st63" points="51.3,11 58.6,18.3 58.6,19.2 50.4,11 		"/>
		<polygon class="st64" points="52.3,11 58.6,17.4 58.6,18.3 51.3,11 		"/>
		<polygon class="st65" points="53.2,11 58.6,16.4 58.6,17.4 52.3,11 		"/>
		<polygon class="st66" points="54.2,11 58.6,15.5 58.6,16.4 53.2,11 		"/>
		<polygon class="st67" points="55.1,11 58.6,14.5 58.6,15.5 54.2,11 		"/>
		<polygon class="st68" points="56,11 58.6,13.6 58.6,14.5 55.1,11 		"/>
		<polygon class="st69" points="57,11 58.6,12.7 58.6,13.6 56,11 		"/>
		<polygon class="st70" points="57.9,11 58.6,11.7 58.6,12.7 57,11 		"/>
		<polygon class="st71" points="58.6,11.7 57.9,11 58.6,11 		"/>
		<polygon class="st0" points="61.7,66.6 62.4,67.3 61.7,67.3 		"/>
		<polygon class="st1" points="62.1,66.1 62.8,66.8 62.8,67.3 62.4,67.3 61.7,66.6 61.7,66.1 		"/>
		<polygon class="st2" points="62.8,66.8 62.1,66.1 62.8,66.1 		"/>
		<polygon class="st102" points="6.4,63.1 6.7,63.5 6.4,63.5 		"/>
		<polygon class="st103" points="6.4,62.2 7.7,63.5 6.7,63.5 6.4,63.1 		"/>
		<polygon class="st104" points="6.4,61.3 8.6,63.5 7.7,63.5 6.4,62.2 		"/>
		<polygon class="st105" points="6.4,60.3 9.6,63.5 8.6,63.5 6.4,61.3 		"/>
		<polygon class="st106" points="6.4,59.4 10.5,63.5 9.6,63.5 6.4,60.3 		"/>
		<polygon class="st5" points="6.4,58.4 11.4,63.5 10.5,63.5 6.4,59.4 		"/>
		<polygon class="st3" points="6.4,57.5 12.4,63.5 11.4,63.5 6.4,58.4 		"/>
		<polygon class="st4" points="6.4,56.5 13.3,63.5 12.4,63.5 6.4,57.5 		"/>
		<polygon class="st107" points="6.4,55.6 14.3,63.5 13.3,63.5 6.4,56.5 		"/>
		<polygon class="st108" points="6.4,54.7 15.2,63.5 14.3,63.5 6.4,55.6 		"/>
		<polygon class="st109" points="6.4,53.7 16.2,63.5 15.2,63.5 6.4,54.7 		"/>
		<polygon class="st110" points="6.4,52.8 17.1,63.5 16.2,63.5 6.4,53.7 		"/>
		<polygon class="st111" points="6.4,51.8 18,63.5 17.1,63.5 6.4,52.8 		"/>
		<polygon class="st112" points="6.4,50.9 19,63.5 18,63.5 6.4,51.8 		"/>
		<polygon class="st113" points="6.4,50 19.9,63.5 19,63.5 6.4,50.9 		"/>
		<polygon class="st114" points="6.4,49 20.9,63.5 19.9,63.5 6.4,50 		"/>
		<polygon class="st75" points="6.4,48.1 21.8,63.5 20.9,63.5 6.4,49 		"/>
		<polygon class="st76" points="6.4,47.1 22.7,63.5 21.8,63.5 6.4,48.1 		"/>
		<polygon class="st77" points="6.4,46.2 23.7,63.5 22.7,63.5 6.4,47.1 		"/>
		<polygon class="st78" points="6.4,45.2 24.6,63.5 23.7,63.5 6.4,46.2 		"/>
		<polygon class="st79" points="6.4,44.3 25.6,63.5 24.6,63.5 6.4,45.2 		"/>
		<polygon class="st80" points="6.4,43.4 26.5,63.5 25.6,63.5 6.4,44.3 		"/>
		<polygon class="st81" points="6.4,42.4 27.5,63.5 26.5,63.5 6.4,43.4 		"/>
		<polygon class="st82" points="6.4,41.5 28.4,63.5 27.5,63.5 6.4,42.4 		"/>
		<polygon class="st83" points="6.4,40.5 29.3,63.5 28.4,63.5 6.4,41.5 		"/>
		<polygon class="st84" points="6.4,39.6 30.3,63.5 29.3,63.5 6.4,40.5 		"/>
		<polygon class="st85" points="6.4,38.7 31.2,63.5 30.3,63.5 6.4,39.6 		"/>
		<polygon class="st86" points="6.4,37.7 32.2,63.5 31.2,63.5 6.4,38.7 		"/>
		<polygon class="st87" points="6.4,36.8 33.1,63.5 32.2,63.5 6.4,37.7 		"/>
		<polygon class="st88" points="6.4,35.8 34,63.5 33.1,63.5 6.4,36.8 		"/>
		<polygon class="st89" points="6.4,34.9 35,63.5 34,63.5 6.4,35.8 		"/>
		<polygon class="st90" points="6.4,33.9 35.9,63.5 35,63.5 6.4,34.9 		"/>
		<polygon class="st91" points="6.4,33 36.9,63.5 35.9,63.5 6.4,33.9 		"/>
		<polygon class="st92" points="6.4,32.1 37.8,63.5 36.9,63.5 6.4,33 		"/>
		<polygon class="st93" points="6.4,31.1 38.8,63.5 37.8,63.5 6.4,32.1 		"/>
		<polygon class="st94" points="6.4,30.2 39.7,63.5 38.8,63.5 6.4,31.1 		"/>
		<polygon class="st95" points="6.4,29.2 40.6,63.5 39.7,63.5 6.4,30.2 		"/>
		<polygon class="st96" points="6.4,28.3 41.6,63.5 40.6,63.5 6.4,29.2 		"/>
		<polygon class="st97" points="6.4,27.4 42.5,63.5 41.6,63.5 6.4,28.3 		"/>
		<polygon class="st98" points="6.4,26.4 43.5,63.5 42.5,63.5 6.4,27.4 		"/>
		<polygon class="st99" points="6.4,26.2 6.8,25.8 44.4,63.5 43.5,63.5 6.4,26.4 		"/>
		<polygon class="st100" points="6.8,25.8 7.3,25.4 45.4,63.5 44.4,63.5 		"/>
		<polygon class="st101" points="7.3,25.4 7.7,24.9 46.3,63.5 45.4,63.5 		"/>
		<polygon class="st6" points="7.7,24.9 8.2,24.4 47.2,63.5 46.3,63.5 		"/>
		<polygon class="st7" points="8.2,24.4 8.7,23.9 48.2,63.5 47.2,63.5 		"/>
		<polygon class="st8" points="8.7,23.9 9.1,23.5 49.1,63.5 48.2,63.5 		"/>
		<polygon class="st9" points="9.1,23.5 9.6,23 50.1,63.5 49.1,63.5 		"/>
		<polygon class="st10" points="9.6,23 10.1,22.5 51,63.5 50.1,63.5 		"/>
		<polygon class="st11" points="10.1,22.5 10.6,22.1 51.9,63.5 51,63.5 		"/>
		<polygon class="st12" points="10.6,22.1 11,21.6 52.4,63 52,63.5 51.9,63.5 		"/>
		
			<rect x="31.6" y="12.8" transform="matrix(0.7071 -0.7071 0.7071 0.7071 -20.3779 34.9168)" class="st13" width="0.7" height="58.6"/>
		
			<rect x="32.1" y="12.3" transform="matrix(0.7071 -0.7071 0.7071 0.7071 -19.907 35.1119)" class="st14" width="0.7" height="58.6"/>
		<polygon class="st15" points="12,20.6 12,20.6 12.8,20.6 53.4,61.2 53.4,62 53.4,62.1 		"/>
		<polygon class="st16" points="13.8,20.6 53.4,60.2 53.4,61.2 12.8,20.6 		"/>
		<polygon class="st17" points="14.7,20.6 53.4,59.3 53.4,60.2 13.8,20.6 		"/>
		<polygon class="st0" points="15.7,20.6 53.4,58.3 53.4,59.3 14.7,20.6 		"/>
		<polygon class="st1" points="16.6,20.6 53.4,57.4 53.4,58.3 15.7,20.6 		"/>
		<polygon class="st2" points="17.6,20.6 53.4,56.5 53.4,57.4 16.6,20.6 		"/>
		<polygon class="st18" points="18.5,20.6 53.4,55.5 53.4,56.5 17.6,20.6 		"/>
		<polygon class="st19" points="19.4,20.6 53.4,54.6 53.4,55.5 18.5,20.6 		"/>
		<polygon class="st20" points="20.4,20.6 53.4,53.6 53.4,54.6 19.4,20.6 		"/>
		<polygon class="st21" points="21.3,20.6 53.4,52.7 53.4,53.6 20.4,20.6 		"/>
		<polygon class="st22" points="22.3,20.6 53.4,51.8 53.4,52.7 21.3,20.6 		"/>
		<polygon class="st23" points="23.2,20.6 53.4,50.8 53.4,51.8 22.3,20.6 		"/>
		<polygon class="st24" points="24.1,20.6 53.4,49.9 53.4,50.8 23.2,20.6 		"/>
		<polygon class="st25" points="25.1,20.6 53.4,48.9 53.4,49.9 24.1,20.6 		"/>
		<polygon class="st26" points="26,20.6 53.4,48 53.4,48.9 25.1,20.6 		"/>
		<polygon class="st27" points="27,20.6 53.4,47 53.4,48 26,20.6 		"/>
		<polygon class="st28" points="27.9,20.6 53.4,46.1 53.4,47 27,20.6 		"/>
		<polygon class="st29" points="28.9,20.6 53.4,45.2 53.4,46.1 27.9,20.6 		"/>
		<polygon class="st30" points="29.8,20.6 53.4,44.2 53.4,45.2 28.9,20.6 		"/>
		<polygon class="st31" points="30.7,20.6 53.4,43.3 53.4,44.2 29.8,20.6 		"/>
		<polygon class="st32" points="31.7,20.6 53.4,42.3 53.4,43.3 30.7,20.6 		"/>
		<polygon class="st33" points="32.6,20.6 53.4,41.4 53.4,42.3 31.7,20.6 		"/>
		<polygon class="st34" points="33.6,20.6 53.4,40.5 53.4,41.4 32.6,20.6 		"/>
		<polygon class="st35" points="34.5,20.6 53.4,39.5 53.4,40.5 33.6,20.6 		"/>
		<polygon class="st36" points="35.4,20.6 53.4,38.6 53.4,39.5 34.5,20.6 		"/>
		<polygon class="st37" points="36.4,20.6 53.4,37.6 53.4,38.6 35.4,20.6 		"/>
		<polygon class="st38" points="37.3,20.6 53.4,36.7 53.4,37.6 36.4,20.6 		"/>
		<polygon class="st39" points="38.3,20.6 53.4,35.7 53.4,36.7 37.3,20.6 		"/>
		<polygon class="st40" points="39.2,20.6 53.4,34.8 53.4,35.7 38.3,20.6 		"/>
		<polygon class="st41" points="40.2,20.6 53.4,33.9 53.4,34.8 39.2,20.6 		"/>
		<polygon class="st42" points="41.1,20.6 53.4,32.9 53.4,33.9 40.2,20.6 		"/>
		<polygon class="st43" points="42,20.6 53.4,32 53.4,32.9 41.1,20.6 		"/>
		<polygon class="st44" points="43,20.6 53.4,31 53.4,32 42,20.6 		"/>
		<polygon class="st45" points="43.9,20.6 53.4,30.1 53.4,31 43,20.6 		"/>
		<polygon class="st46" points="44.9,20.6 53.4,29.1 53.4,30.1 43.9,20.6 		"/>
		<polygon class="st47" points="45.8,20.6 53.4,28.2 53.4,29.1 44.9,20.6 		"/>
		<polygon class="st48" points="46.8,20.6 53.4,27.3 53.4,28.2 45.8,20.6 		"/>
		<polygon class="st49" points="47.7,20.6 53.4,26.3 53.4,27.3 46.8,20.6 		"/>
		<polygon class="st50" points="48.6,20.6 53.4,25.4 53.4,26.3 47.7,20.6 		"/>
		<polygon class="st51" points="49.6,20.6 53.4,24.4 53.4,25.4 48.6,20.6 		"/>
		<polygon class="st52" points="50.5,20.6 53.4,23.5 53.4,24.4 49.6,20.6 		"/>
		<polygon class="st53" points="51.5,20.6 53.4,22.6 53.4,23.5 50.5,20.6 		"/>
		<polygon class="st54" points="52.4,20.6 53.4,21.6 53.4,22.6 51.5,20.6 		"/>
		<polygon class="st55" points="53.3,20.6 53.4,20.7 53.4,21.6 52.4,20.6 		"/>
		<polygon class="st56" points="53.4,20.7 53.3,20.6 53.4,20.6 		"/>
		<polygon class="st95" points="49.3,72.1 50.1,73 49.3,73 		"/>
		<polygon class="st96" points="49.3,71.2 51.1,73 50.1,73 49.3,72.1 		"/>
		<polygon class="st97" points="49.3,70.2 52,73 51.1,73 49.3,71.2 		"/>
		<polygon class="st98" points="49.3,69.3 53,73 52,73 49.3,70.2 		"/>
		<polygon class="st99" points="49.3,68.3 53.9,73 53,73 49.3,69.3 		"/>
		<polygon class="st100" points="49.3,67.4 54.9,73 53.9,73 49.3,68.3 		"/>
		<polygon class="st101" points="49.3,66.4 55.8,73 54.9,73 49.3,67.4 		"/>
		<polygon class="st6" points="49.3,65.5 56.7,73 55.8,73 49.3,66.4 		"/>
		<polygon class="st7" points="49.3,64.6 57.6,72.9 57.6,73 56.7,73 49.3,65.5 		"/>
		<polygon class="st8" points="49.3,63.6 58.1,72.4 57.6,72.9 49.3,64.6 		"/>
		<polygon class="st9" points="49.3,62.7 58.6,72 58.1,72.4 49.3,63.6 		"/>
		<polygon class="st10" points="49.3,61.9 49.3,61.8 59,71.5 58.6,72 49.3,62.7 		"/>
		
			<rect x="54.1" y="59.6" transform="matrix(0.7071 -0.7071 0.7071 0.7071 -31.016 57.9352)" class="st11" width="0.7" height="13.7"/>
		
			<rect x="54.6" y="59.1" transform="matrix(0.7071 -0.7071 0.7071 0.7071 -30.5451 58.1303)" class="st12" width="0.7" height="13.7"/>
		<polygon class="st13" points="50.3,60.9 50.8,60.4 50.8,60.4 60.5,70.1 60,70.5 		"/>
		<polygon class="st14" points="51.7,60.4 60.9,69.6 60.5,70.1 50.8,60.4 		"/>
		<polygon class="st15" points="52.6,60.4 61,68.7 61,69.5 60.9,69.6 51.7,60.4 		"/>
		<polygon class="st16" points="53.6,60.4 61,67.8 61,68.7 52.6,60.4 		"/>
		<polygon class="st17" points="54.5,60.4 61,66.8 61,67.8 53.6,60.4 		"/>
		<polygon class="st0" points="55.5,60.4 61,65.9 61,66.8 54.5,60.4 		"/>
		<polygon class="st1" points="56.4,60.4 61,65 61,65.9 55.5,60.4 		"/>
		<polygon class="st2" points="57.4,60.4 61,64 61,65 56.4,60.4 		"/>
		<polygon class="st18" points="58.3,60.4 61,63.1 61,64 57.4,60.4 		"/>
		<polygon class="st19" points="59.2,60.4 61,62.1 61,63.1 58.3,60.4 		"/>
		<polygon class="st20" points="60.2,60.4 61,61.2 61,62.1 59.2,60.4 		"/>
		<polygon class="st21" points="61,61.2 60.2,60.4 61,60.4 		"/>
		<polygon class="st5" points="22.8,74.8 23.6,75.7 22.8,75.7 		"/>
		<polygon class="st3" points="22.8,73.8 24.6,75.7 23.6,75.7 22.8,74.8 		"/>
		<polygon class="st4" points="22.8,72.9 25.5,75.7 24.6,75.7 22.8,73.8 		"/>
		<polygon class="st107" points="22.8,71.9 26.5,75.7 25.5,75.7 22.8,72.9 		"/>
		<polygon class="st108" points="22.8,71 27.4,75.7 26.5,75.7 22.8,71.9 		"/>
		<polygon class="st109" points="22.8,70.1 28.4,75.7 27.4,75.7 22.8,71 		"/>
		<polygon class="st110" points="22.8,69.1 29.3,75.7 28.4,75.7 22.8,70.1 		"/>
		<polygon class="st111" points="22.8,68.7 23,68.5 30.2,75.7 29.3,75.7 22.8,69.1 		"/>
		<polygon class="st112" points="23,68.5 23.5,68 31.2,75.7 30.2,75.7 		"/>
		<polygon class="st113" points="23.5,68 24,67.5 32.1,75.7 31.2,75.7 		"/>
		<polygon class="st114" points="24,67.5 24.5,67 33.1,75.7 32.1,75.7 		"/>
		<polygon class="st75" points="24.5,67 24.9,66.6 34,75.7 33.1,75.7 		"/>
		<polygon class="st76" points="24.9,66.6 25.4,66.1 34.9,75.7 34,75.7 		"/>
		<polygon class="st77" points="25.4,66.1 25.9,65.6 35.9,75.7 34.9,75.7 		"/>
		<polygon class="st78" points="25.9,65.6 25.9,65.6 26.8,65.6 36.8,75.7 35.9,75.7 		"/>
		<polygon class="st79" points="27.7,65.6 37.8,75.7 36.8,75.7 26.8,65.6 		"/>
		<polygon class="st80" points="28.7,65.6 38.7,75.7 37.8,75.7 27.7,65.6 		"/>
		<polygon class="st81" points="29.6,65.6 39.7,75.7 38.7,75.7 28.7,65.6 		"/>
		<polygon class="st82" points="30.6,65.6 40.6,75.7 39.7,75.7 29.6,65.6 		"/>
		<polygon class="st83" points="31.5,65.6 41.5,75.7 40.6,75.7 30.6,65.6 		"/>
		<polygon class="st84" points="32.4,65.6 42.5,75.7 41.5,75.7 31.5,65.6 		"/>
		<polygon class="st85" points="33.4,65.6 43.4,75.7 42.5,75.7 32.4,65.6 		"/>
		<polygon class="st86" points="34.3,65.6 44.4,75.7 43.4,75.7 33.4,65.6 		"/>
		<polygon class="st87" points="35.3,65.6 45.3,75.7 44.4,75.7 34.3,65.6 		"/>
		<polygon class="st88" points="36.2,65.6 46.2,75.7 45.3,75.7 35.3,65.6 		"/>
		<polygon class="st89" points="37.2,65.6 47.2,75.7 46.2,75.7 36.2,65.6 		"/>
		<polygon class="st90" points="38.1,65.6 48.1,75.7 47.2,75.7 37.2,65.6 		"/>
		<polygon class="st91" points="39,65.6 49.1,75.7 48.1,75.7 38.1,65.6 		"/>
		<polygon class="st92" points="40,65.6 50,75.7 49.1,75.7 39,65.6 		"/>
		<polygon class="st93" points="40.9,65.6 50.3,75 50.3,75.4 50.1,75.7 50,75.7 40,65.6 		"/>
		<polygon class="st94" points="41.9,65.6 50.3,74.1 50.3,75 40.9,65.6 		"/>
		<polygon class="st95" points="42.8,65.6 50.3,73.2 50.3,74.1 41.9,65.6 		"/>
		<polygon class="st96" points="43.7,65.6 50.3,72.2 50.3,73.2 42.8,65.6 		"/>
		<polygon class="st97" points="44.7,65.6 50.3,71.3 50.3,72.2 43.7,65.6 		"/>
		<polygon class="st98" points="45.6,65.6 50.3,70.3 50.3,71.3 44.7,65.6 		"/>
		<polygon class="st99" points="46.6,65.6 50.3,69.4 50.3,70.3 45.6,65.6 		"/>
		<polygon class="st100" points="47.5,65.6 50.3,68.4 50.3,69.4 46.6,65.6 		"/>
		<polygon class="st101" points="48.5,65.6 50.3,67.5 50.3,68.4 47.5,65.6 		"/>
		<polygon class="st6" points="49.4,65.6 50.3,66.6 50.3,67.5 48.5,65.6 		"/>
		<polygon class="st7" points="50.3,66.6 49.4,65.6 50.3,65.6 		"/>
		<polygon class="st115" points="5.9,65.5 10.6,70.2 5.9,70.2 		"/>
		<polygon class="st115" points="5.9,64.5 11.6,70.2 10.6,70.2 5.9,65.5 		"/>
		<polygon class="st116" points="5.9,63.6 12.5,70.2 11.6,70.2 5.9,64.5 		"/>
		<polygon class="st102" points="5.9,62.6 13.4,70.2 12.5,70.2 5.9,63.6 		"/>
		<polygon class="st103" points="5.9,61.7 14.4,70.2 13.4,70.2 5.9,62.6 		"/>
		<polygon class="st104" points="5.9,60.8 15.3,70.2 14.4,70.2 5.9,61.7 		"/>
		<polygon class="st105" points="5.9,59.8 16.3,70.2 15.3,70.2 5.9,60.8 		"/>
		<polygon class="st106" points="5.9,58.9 17.2,70.2 16.3,70.2 5.9,59.8 		"/>
		<polygon class="st5" points="5.9,57.9 18.2,70.2 17.2,70.2 5.9,58.9 		"/>
		<polygon class="st3" points="5.9,57 19.1,70.2 18.2,70.2 5.9,57.9 		"/>
		<polygon class="st4" points="5.9,56 20,70.2 19.1,70.2 5.9,57 		"/>
		<polygon class="st107" points="5.9,55.1 21,70.2 20,70.2 5.9,56 		"/>
		<polygon class="st108" points="5.9,54.2 21.9,70.2 21,70.2 5.9,55.1 		"/>
		<polygon class="st109" points="5.9,53.2 22.9,70.2 21.9,70.2 5.9,54.2 		"/>
		<polygon class="st110" points="5.9,52.3 23.8,70.2 22.9,70.2 5.9,53.2 		"/>
		<polygon class="st111" points="5.9,51.3 24.7,70.2 23.8,70.2 5.9,52.3 		"/>
		<polygon class="st112" points="5.9,50.4 25.7,70.2 24.7,70.2 5.9,51.3 		"/>
		<polygon class="st113" points="5.9,49.5 26.6,70.2 25.7,70.2 5.9,50.4 		"/>
		<polygon class="st114" points="5.9,48.5 27.6,70.2 26.6,70.2 5.9,49.5 		"/>
		<polygon class="st75" points="5.9,47.6 28.5,70.2 27.6,70.2 5.9,48.5 		"/>
		<polygon class="st76" points="5.9,46.6 29.5,70.2 28.5,70.2 5.9,47.6 		"/>
		<polygon class="st77" points="5.9,45.7 30.4,70.2 29.5,70.2 5.9,46.6 		"/>
		<polygon class="st78" points="5.9,44.7 31.3,70.2 30.4,70.2 5.9,45.7 		"/>
		<polygon class="st79" points="5.9,43.8 32.3,70.2 31.3,70.2 5.9,44.7 		"/>
		<polygon class="st80" points="5.9,42.9 33.2,70.2 32.3,70.2 5.9,43.8 		"/>
		<polygon class="st81" points="5.9,41.9 34.2,70.2 33.2,70.2 5.9,42.9 		"/>
		<polygon class="st82" points="5.9,41 35.1,70.2 34.2,70.2 5.9,41.9 		"/>
		<polygon class="st83" points="5.9,40 36.1,70.2 35.1,70.2 5.9,41 		"/>
		<polygon class="st84" points="6.8,40 37,70.2 36.1,70.2 5.9,40 5.9,40 		"/>
		<polygon class="st85" points="7.8,40 37.9,70.2 37,70.2 6.8,40 		"/>
		<polygon class="st86" points="8.7,40 38.9,70.2 37.9,70.2 7.8,40 		"/>
		<polygon class="st87" points="9.6,40 39.8,70.2 38.9,70.2 8.7,40 		"/>
		<polygon class="st88" points="10.6,40 40.8,70.2 39.8,70.2 9.6,40 		"/>
		<polygon class="st89" points="11.5,40 41.7,70.2 40.8,70.2 10.6,40 		"/>
		<polygon class="st90" points="12.5,40 42.6,70.2 41.7,70.2 11.5,40 		"/>
		<polygon class="st91" points="13.4,40 43.5,70.1 43.5,70.2 42.6,70.2 12.5,40 		"/>
		<polygon class="st92" points="14.3,40 44,69.6 43.5,70.1 13.4,40 		"/>
		<polygon class="st93" points="15.3,40 44.5,69.2 44,69.6 14.3,40 		"/>
		<polygon class="st94" points="16.2,40 44.9,68.7 44.5,69.2 15.3,40 		"/>
		<polygon class="st95" points="17.2,40 45.4,68.2 44.9,68.7 16.2,40 		"/>
		<polygon class="st96" points="18.1,40 45.9,67.7 45.4,68.2 17.2,40 		"/>
		<polygon class="st97" points="19.1,40 46.3,67.3 45.9,67.7 18.1,40 		"/>
		<polygon class="st98" points="20,40 46.4,66.4 46.4,67.3 46.3,67.3 19.1,40 		"/>
		<polygon class="st99" points="20.9,40 46.4,65.4 46.4,66.4 20,40 		"/>
		<polygon class="st100" points="21.9,40 46.4,64.5 46.4,65.4 20.9,40 		"/>
		<polygon class="st101" points="22.8,40 46.4,63.5 46.4,64.5 21.9,40 		"/>
		<polygon class="st6" points="23.8,40 46.4,62.6 46.4,63.5 22.8,40 		"/>
		<polygon class="st7" points="24.7,40 46.4,61.6 46.4,62.6 23.8,40 		"/>
		<polygon class="st8" points="25.7,40 46.4,60.7 46.4,61.6 24.7,40 		"/>
		<polygon class="st9" points="26.6,40 46.4,59.8 46.4,60.7 25.7,40 		"/>
		<polygon class="st10" points="27.5,40 46.4,58.8 46.4,59.8 26.6,40 		"/>
		<polygon class="st11" points="28.5,40 46.4,57.9 46.4,58.8 27.5,40 		"/>
		<polygon class="st12" points="29.4,40 46.4,56.9 46.4,57.9 28.5,40 		"/>
		<polygon class="st13" points="30.4,40 46.4,56 46.4,56.9 29.4,40 		"/>
		<polygon class="st14" points="31.3,40 46.4,55.1 46.4,56 30.4,40 		"/>
		<polygon class="st15" points="32.2,40 46.4,54.1 46.4,55.1 31.3,40 		"/>
		<polygon class="st16" points="33.2,40 46.4,53.2 46.4,54.1 32.2,40 		"/>
		<polygon class="st17" points="34.1,40 46.4,52.2 46.4,53.2 33.2,40 		"/>
		<polygon class="st0" points="35.1,40 46.4,51.3 46.4,52.2 34.1,40 		"/>
		<polygon class="st1" points="36,40 46.4,50.3 46.4,51.3 35.1,40 		"/>
		<polygon class="st2" points="37,40 46.4,49.4 46.4,50.3 36,40 		"/>
		<polygon class="st18" points="37.9,40 46.4,48.5 46.4,49.4 37,40 		"/>
		<polygon class="st19" points="38.8,40 46.4,47.5 46.4,48.5 37.9,40 		"/>
		<polygon class="st20" points="39.8,40 46.4,46.6 46.4,47.5 38.8,40 		"/>
		<polygon class="st21" points="40.7,40 46.4,45.6 46.4,46.6 39.8,40 		"/>
		<polygon class="st22" points="41.7,40 46.4,44.7 46.4,45.6 40.7,40 		"/>
		<polygon class="st23" points="42.6,40 46.4,43.7 46.4,44.7 41.7,40 		"/>
		<polygon class="st24" points="43.5,40 46.4,42.8 46.4,43.7 42.6,40 		"/>
		<polygon class="st25" points="44.5,40 46.4,41.9 46.4,42.8 43.5,40 		"/>
		<polygon class="st26" points="45.4,40 46.4,40.9 46.4,41.9 44.5,40 		"/>
		<polygon class="st27" points="46.4,40.9 45.4,40 46.4,40 		"/>
		<polygon class="st3" points="19,70.1 19.2,70.2 19.2,70.4 19,70.4 		"/>
		<polygon class="st4" points="19.2,70.2 19,70.1 19,69.6 19.2,69.6 		"/>
		<polygon class="st115" points="4.2,63.7 17.8,77.4 4.2,77.4 		"/>
		<polygon class="st115" points="4.2,62.8 18.8,77.4 17.8,77.4 4.2,63.7 		"/>
		<polygon class="st116" points="4.2,61.8 19.7,77.4 18.8,77.4 4.2,62.8 		"/>
		<polygon class="st102" points="4.2,60.9 20.7,77.4 19.7,77.4 4.2,61.8 		"/>
		<polygon class="st103" points="4.2,60 21.6,77.4 20.7,77.4 4.2,60.9 		"/>
		<polygon class="st104" points="4.2,59 22.5,77.4 21.6,77.4 4.2,60 		"/>
		<polygon class="st105" points="4.2,58.1 23.5,77.4 22.5,77.4 4.2,59 		"/>
		<polygon class="st106" points="4.2,57.1 24.4,77.4 23.5,77.4 4.2,58.1 		"/>
		<polygon class="st5" points="4.2,56.2 25.4,77.4 24.4,77.4 4.2,57.1 		"/>
		<polygon class="st3" points="4.2,55.3 26.3,77.4 25.4,77.4 4.2,56.2 		"/>
		<polygon class="st4" points="4.2,54.3 27.3,77.4 26.3,77.4 4.2,55.3 		"/>
		<polygon class="st107" points="4.2,53.4 28.2,77.4 27.3,77.4 4.2,54.3 		"/>
		<polygon class="st108" points="4.2,52.4 29.1,77.4 28.2,77.4 4.2,53.4 		"/>
		<polygon class="st109" points="4.2,51.5 30.1,77.4 29.1,77.4 4.2,52.4 		"/>
		<polygon class="st110" points="4.2,50.5 31,77.4 30.1,77.4 4.2,51.5 		"/>
		<polygon class="st111" points="4.2,49.6 32,77.4 31,77.4 4.2,50.5 		"/>
		<polygon class="st112" points="4.2,48.7 32.9,77.4 32,77.4 4.2,49.6 		"/>
		<polygon class="st113" points="4.2,47.7 33.9,77.4 32.9,77.4 4.2,48.7 		"/>
		<polygon class="st114" points="4.2,46.8 34.8,77.4 33.9,77.4 4.2,47.7 		"/>
		<polygon class="st75" points="4.2,45.8 35.7,77.4 34.8,77.4 4.2,46.8 		"/>
		<polygon class="st76" points="4.2,44.9 36.7,77.4 35.7,77.4 4.2,45.8 		"/>
		<polygon class="st77" points="4.2,43.9 37.6,77.4 36.7,77.4 4.2,44.9 		"/>
		<polygon class="st78" points="4.2,43 38.6,77.4 37.6,77.4 4.2,43.9 		"/>
		<polygon class="st79" points="4.2,42.1 39.5,77.4 38.6,77.4 4.2,43 		"/>
		<polygon class="st80" points="4.2,41.1 40.4,77.4 39.5,77.4 4.2,42.1 		"/>
		<polygon class="st81" points="4.2,40.2 41.4,77.4 40.4,77.4 4.2,41.1 		"/>
		<polygon class="st82" points="4.2,39.2 42.3,77.4 41.4,77.4 4.2,40.2 		"/>
		<polygon class="st83" points="4.2,38.3 43.3,77.4 42.3,77.4 4.2,39.2 		"/>
		<polygon class="st84" points="4.2,37.4 44.2,77.4 43.3,77.4 4.2,38.3 		"/>
		<polygon class="st85" points="4.2,36.4 45.2,77.4 44.2,77.4 4.2,37.4 		"/>
		<polygon class="st86" points="4.2,35.5 46.1,77.4 45.2,77.4 4.2,36.4 		"/>
		<polygon class="st87" points="4.2,34.5 47,77.4 46.1,77.4 4.2,35.5 		"/>
		<polygon class="st88" points="4.2,33.6 48,77.4 47,77.4 4.2,34.5 		"/>
		<polygon class="st89" points="4.2,32.6 48.9,77.4 48,77.4 4.2,33.6 		"/>
		<polygon class="st90" points="4.2,31.7 49.9,77.4 48.9,77.4 4.2,32.6 		"/>
		<polygon class="st91" points="4.2,30.8 50.8,77.4 49.9,77.4 4.2,31.7 		"/>
		<polygon class="st92" points="4.2,29.8 51.7,77.4 50.8,77.4 4.2,30.8 		"/>
		<polygon class="st93" points="4.2,28.9 52.7,77.4 51.7,77.4 4.2,29.8 		"/>
		<polygon class="st94" points="4.2,27.9 53.6,77.4 52.7,77.4 4.2,28.9 		"/>
		<polygon class="st95" points="4.2,27 54.6,77.4 53.6,77.4 4.2,27.9 		"/>
		<polygon class="st96" points="4.2,26.1 55.5,77.4 54.6,77.4 4.2,27 		"/>
		<polygon class="st97" points="4.2,26 4.6,25.5 56,77 55.6,77.4 55.5,77.4 4.2,26.1 		"/>
		
			<rect x="30.2" y="14.7" transform="matrix(0.7071 -0.7071 0.7071 0.7071 -27.1228 36.5478)" class="st98" width="0.7" height="72.7"/>
		
			<rect x="30.7" y="14.2" transform="matrix(0.7071 -0.7071 0.7071 0.7071 -26.6518 36.7428)" class="st99" width="0.7" height="72.7"/>
		
			<rect x="31.2" y="13.7" transform="matrix(0.7071 -0.7071 0.7071 0.7071 -26.1809 36.9379)" class="st100" width="0.7" height="72.7"/>
		
			<rect x="31.6" y="13.2" transform="matrix(0.7071 -0.7071 0.7071 0.7071 -25.7099 37.133)" class="st101" width="0.7" height="72.7"/>
		
			<rect x="32.1" y="12.8" transform="matrix(0.7071 -0.7071 0.7071 0.7071 -25.239 37.328)" class="st6" width="0.7" height="72.7"/>
		
			<rect x="32.6" y="12.3" transform="matrix(0.7071 -0.7071 0.7071 0.7071 -24.768 37.5232)" class="st7" width="0.7" height="72.7"/>
		
			<rect x="33" y="11.8" transform="matrix(0.7071 -0.7071 0.7071 0.7071 -24.2971 37.7182)" class="st8" width="0.7" height="72.7"/>
		
			<rect x="33.5" y="11.4" transform="matrix(0.7071 -0.7071 0.7071 0.7071 -23.8261 37.9133)" class="st9" width="0.7" height="72.7"/>
		
			<rect x="34" y="10.9" transform="matrix(0.7071 -0.7071 0.7071 0.7071 -23.3552 38.1083)" class="st10" width="0.7" height="72.7"/>
		
			<rect x="34.5" y="10.4" transform="matrix(0.7071 -0.7071 0.7071 0.7071 -22.8843 38.3035)" class="st11" width="0.7" height="72.7"/>
		
			<rect x="34.9" y="9.9" transform="matrix(0.7071 -0.7071 0.7071 0.7071 -22.4133 38.4985)" class="st12" width="0.7" height="72.7"/>
		
			<rect x="35.4" y="9.5" transform="matrix(0.7071 -0.7071 0.7071 0.7071 -21.9424 38.6936)" class="st13" width="0.7" height="72.7"/>
		
			<rect x="35.9" y="9" transform="matrix(0.7071 -0.7071 0.7071 0.7071 -21.4714 38.8886)" class="st14" width="0.7" height="72.7"/>
		
			<rect x="36.3" y="8.5" transform="matrix(0.7071 -0.7071 0.7071 0.7071 -21.0005 39.0837)" class="st15" width="0.7" height="72.7"/>
		
			<rect x="36.8" y="8.1" transform="matrix(0.7071 -0.7071 0.7071 0.7071 -20.5295 39.2788)" class="st16" width="0.7" height="72.7"/>
		
			<rect x="37.3" y="7.6" transform="matrix(0.7071 -0.7071 0.7071 0.7071 -20.0586 39.4739)" class="st17" width="0.7" height="72.7"/>
		
			<rect x="37.8" y="7.1" transform="matrix(0.7071 -0.7071 0.7071 0.7071 -19.5876 39.6689)" class="st0" width="0.7" height="72.7"/>
		
			<rect x="38.2" y="6.6" transform="matrix(0.7071 -0.7071 0.7071 0.7071 -19.1167 39.864)" class="st1" width="0.7" height="72.7"/>
		
			<rect x="38.7" y="6.2" transform="matrix(0.7071 -0.7071 0.7071 0.7071 -18.6457 40.0591)" class="st2" width="0.7" height="72.7"/>
		
			<rect x="39.2" y="5.7" transform="matrix(0.7071 -0.7071 0.7071 0.7071 -18.1748 40.2542)" class="st18" width="0.7" height="72.7"/>
		
			<rect x="39.6" y="5.2" transform="matrix(0.7071 -0.7071 0.7071 0.7071 -17.7038 40.4492)" class="st19" width="0.7" height="72.7"/>
		
			<rect x="40.1" y="4.8" transform="matrix(0.7071 -0.7071 0.7071 0.7071 -17.2329 40.6443)" class="st20" width="0.7" height="72.7"/>
		
			<rect x="40.6" y="4.3" transform="matrix(0.7071 -0.7071 0.7071 0.7071 -16.7619 40.8394)" class="st21" width="0.7" height="72.7"/>
		
			<rect x="41.1" y="3.8" transform="matrix(0.7071 -0.7071 0.7071 0.7071 -16.291 41.0345)" class="st22" width="0.7" height="72.7"/>
		
			<rect x="41.5" y="3.3" transform="matrix(0.7071 -0.7071 0.7071 0.7071 -15.82 41.2295)" class="st23" width="0.7" height="72.7"/>
		
			<rect x="42" y="2.9" transform="matrix(0.7071 -0.7071 0.7071 0.7071 -15.3491 41.4246)" class="st24" width="0.7" height="72.7"/>
		
			<rect x="42.5" y="2.4" transform="matrix(0.7071 -0.7071 0.7071 0.7071 -14.8781 41.6197)" class="st25" width="0.7" height="72.7"/>
		
			<rect x="42.9" y="1.9" transform="matrix(0.7071 -0.7071 0.7071 0.7071 -14.4072 41.8147)" class="st26" width="0.7" height="72.7"/>
		
			<rect x="43.4" y="1.5" transform="matrix(0.7071 -0.7071 0.7071 0.7071 -13.9362 42.0098)" class="st27" width="0.7" height="72.7"/>
		
			<rect x="43.9" y="1" transform="matrix(0.7071 -0.7071 0.7071 0.7071 -13.4653 42.2049)" class="st28" width="0.7" height="72.7"/>
		<rect x="44.4" y="0.5" transform="matrix(0.7071 -0.7071 0.7071 0.7071 -12.9943 42.4)" class="st29" width="0.7" height="72.7"/>
		
			<rect x="44.8" y="0.1" transform="matrix(0.7071 -0.7071 0.7071 0.7071 -12.5234 42.595)" class="st30" width="0.7" height="72.7"/>
		
			<rect x="45.3" y="-0.4" transform="matrix(0.7071 -0.7071 0.7071 0.7071 -12.0525 42.7901)" class="st31" width="0.7" height="72.7"/>
		
			<rect x="45.8" y="-0.9" transform="matrix(0.7071 -0.7071 0.7071 0.7071 -11.5815 42.9852)" class="st32" width="0.7" height="72.7"/>
		
			<rect x="46.2" y="-1.4" transform="matrix(0.7071 -0.7071 0.7071 0.7071 -11.1106 43.1802)" class="st33" width="0.7" height="72.7"/>
		<polygon class="st34" points="21.1,9.1 21.5,8.6 21.6,8.6 72.9,60 72.9,60.1 72.5,60.5 		"/>
		<polygon class="st35" points="22.6,8.6 72.9,59 72.9,60 21.6,8.6 		"/>
		<polygon class="st36" points="23.5,8.6 72.9,58.1 72.9,59 22.6,8.6 		"/>
		<polygon class="st37" points="24.4,8.6 72.9,57.1 72.9,58.1 23.5,8.6 		"/>
		<polygon class="st38" points="25.4,8.6 72.9,56.2 72.9,57.1 24.4,8.6 		"/>
		<polygon class="st39" points="26.3,8.6 72.9,55.3 72.9,56.2 25.4,8.6 		"/>
		<polygon class="st40" points="27.3,8.6 72.9,54.3 72.9,55.3 26.3,8.6 		"/>
		<polygon class="st41" points="28.2,8.6 72.9,53.4 72.9,54.3 27.3,8.6 		"/>
		<polygon class="st42" points="29.2,8.6 72.9,52.4 72.9,53.4 28.2,8.6 		"/>
		<polygon class="st43" points="30.1,8.6 72.9,51.5 72.9,52.4 29.2,8.6 		"/>
		<polygon class="st44" points="31,8.6 72.9,50.5 72.9,51.5 30.1,8.6 		"/>
		<polygon class="st45" points="32,8.6 72.9,49.6 72.9,50.5 31,8.6 		"/>
		<polygon class="st46" points="32.9,8.6 72.9,48.7 72.9,49.6 32,8.6 		"/>
		<polygon class="st47" points="33.9,8.6 72.9,47.7 72.9,48.7 32.9,8.6 		"/>
		<polygon class="st48" points="34.8,8.6 72.9,46.8 72.9,47.7 33.9,8.6 		"/>
		<polygon class="st49" points="35.7,8.6 72.9,45.8 72.9,46.8 34.8,8.6 		"/>
		<polygon class="st50" points="36.7,8.6 72.9,44.9 72.9,45.8 35.7,8.6 		"/>
		<polygon class="st51" points="37.6,8.6 72.9,44 72.9,44.9 36.7,8.6 		"/>
		<polygon class="st52" points="38.6,8.6 72.9,43 72.9,44 37.6,8.6 		"/>
		<polygon class="st53" points="39.5,8.6 72.9,42.1 72.9,43 38.6,8.6 		"/>
		<polygon class="st54" points="40.5,8.6 72.9,41.1 72.9,42.1 39.5,8.6 		"/>
		<polygon class="st55" points="41.4,8.6 72.9,40.2 72.9,41.1 40.5,8.6 		"/>
		<polygon class="st56" points="42.3,8.6 72.9,39.2 72.9,40.2 41.4,8.6 		"/>
		<polygon class="st57" points="43.3,8.6 72.9,38.3 72.9,39.2 42.3,8.6 		"/>
		<polygon class="st58" points="44.2,8.6 72.9,37.4 72.9,38.3 43.3,8.6 		"/>
		<polygon class="st59" points="45.2,8.6 72.9,36.4 72.9,37.4 44.2,8.6 		"/>
		<polygon class="st60" points="46.1,8.6 72.9,35.5 72.9,36.4 45.2,8.6 		"/>
		<polygon class="st61" points="47,8.6 72.9,34.5 72.9,35.5 46.1,8.6 		"/>
		<polygon class="st62" points="48,8.6 72.9,33.6 72.9,34.5 47,8.6 		"/>
		<polygon class="st63" points="48.9,8.6 72.9,32.6 72.9,33.6 48,8.6 		"/>
		<polygon class="st64" points="49.9,8.6 72.9,31.7 72.9,32.6 48.9,8.6 		"/>
		<polygon class="st65" points="50.8,8.6 72.9,30.8 72.9,31.7 49.9,8.6 		"/>
		<polygon class="st66" points="51.8,8.6 72.9,29.8 72.9,30.8 50.8,8.6 		"/>
		<polygon class="st67" points="52.7,8.6 72.9,28.9 72.9,29.8 51.8,8.6 		"/>
		<polygon class="st68" points="53.6,8.6 72.9,27.9 72.9,28.9 52.7,8.6 		"/>
		<polygon class="st69" points="54.6,8.6 72.9,27 72.9,27.9 53.6,8.6 		"/>
		<polygon class="st70" points="55.5,8.6 72.9,26.1 72.9,27 54.6,8.6 		"/>
		<polygon class="st71" points="56.5,8.6 72.9,25.1 72.9,26.1 55.5,8.6 		"/>
		<polygon class="st72" points="57.4,8.6 72.9,24.2 72.9,25.1 56.5,8.6 		"/>
		<polygon class="st73" points="58.3,8.6 72.9,23.2 72.9,24.2 57.4,8.6 		"/>
		<polygon class="st74" points="59.3,8.6 72.9,22.3 72.9,23.2 58.3,8.6 		"/>
		<polygon class="st74" points="72.9,22.3 59.3,8.6 72.9,8.6 		"/>
		<polygon class="st1" points="14.3,18.3 14.7,18.7 14.3,18.7 		"/>
		<polygon class="st2" points="14.7,18.7 14.3,18.3 14.3,18.1 14.9,18.1 14.9,18.7 		"/>
		<polygon class="st3" points="19,70.1 19.2,70.2 19.2,70.4 19,70.4 		"/>
		<polygon class="st4" points="19.2,70.2 19,70.1 19,69.6 19.2,69.6 		"/>
		<polygon class="st1" points="62.9,66.9 63.3,67.3 62.9,67.3 		"/>
		<polygon class="st2" points="63.3,67.3 62.9,66.9 62.9,66.7 63.4,66.7 63.4,67.3 		"/>
		<polygon class="st0" points="61.7,66.6 62.4,67.3 61.7,67.3 		"/>
		<polygon class="st1" points="62.1,66.1 62.8,66.8 62.8,67.3 62.4,67.3 61.7,66.6 61.7,66.1 		"/>
		<polygon class="st2" points="62.8,66.8 62.1,66.1 62.8,66.1 		"/>
		<polygon class="st115" points="-2,57.5 24.8,84.4 -2,84.4 		"/>
		<polygon class="st115" points="-2,56.6 25.7,84.4 24.8,84.4 -2,57.5 		"/>
		<polygon class="st116" points="-2,55.6 26.7,84.4 25.7,84.4 -2,56.6 		"/>
		<polygon class="st102" points="-2,54.7 27.6,84.4 26.7,84.4 -2,55.6 		"/>
		<polygon class="st103" points="-2,53.8 28.6,84.4 27.6,84.4 -2,54.7 		"/>
		<polygon class="st104" points="-2,52.8 29.5,84.4 28.6,84.4 -2,53.8 		"/>
		<polygon class="st105" points="-2,51.9 30.5,84.4 29.5,84.4 -2,52.8 		"/>
		<polygon class="st106" points="-2,50.9 31.4,84.4 30.5,84.4 -2,51.9 		"/>
		<polygon class="st5" points="-2,50 32.3,84.4 31.4,84.4 -2,50.9 		"/>
		<polygon class="st3" points="-2,49.1 33.3,84.4 32.3,84.4 -2,50 		"/>
		<polygon class="st4" points="-2,48.1 34.2,84.4 33.3,84.4 -2,49.1 		"/>
		<polygon class="st107" points="-2,47.2 35.2,84.4 34.2,84.4 -2,48.1 		"/>
		<polygon class="st108" points="-2,46.2 36.1,84.4 35.2,84.4 -2,47.2 		"/>
		<polygon class="st109" points="-2,45.3 37,84.4 36.1,84.4 -2,46.2 		"/>
		<polygon class="st110" points="-2,44.3 38,84.4 37,84.4 -2,45.3 		"/>
		<polygon class="st111" points="-2,43.4 38.9,84.4 38,84.4 -2,44.3 		"/>
		<polygon class="st112" points="-2,42.5 39.9,84.4 38.9,84.4 -2,43.4 		"/>
		<polygon class="st113" points="-2,41.5 40.8,84.4 39.9,84.4 -2,42.5 		"/>
		<polygon class="st114" points="-2,40.6 41.8,84.4 40.8,84.4 -2,41.5 		"/>
		<polygon class="st75" points="-2,39.6 42.7,84.4 41.8,84.4 -2,40.6 		"/>
		<polygon class="st76" points="-2,38.7 43.6,84.4 42.7,84.4 -2,39.6 		"/>
		<polygon class="st77" points="-2,37.8 44.6,84.4 43.6,84.4 -2,38.7 		"/>
		<polygon class="st78" points="-2,36.8 45.5,84.4 44.6,84.4 -2,37.8 		"/>
		<polygon class="st79" points="-2,35.9 46.5,84.4 45.5,84.4 -2,36.8 		"/>
		<polygon class="st80" points="-2,34.9 47.4,84.4 46.5,84.4 -2,35.9 		"/>
		<polygon class="st81" points="-2,34 48.4,84.4 47.4,84.4 -2,34.9 		"/>
		<polygon class="st82" points="-2,33 49.3,84.4 48.4,84.4 -2,34 		"/>
		<polygon class="st83" points="-2,32.1 50.2,84.4 49.3,84.4 -2,33 		"/>
		<polygon class="st84" points="-2,31.2 51.2,84.4 50.2,84.4 -2,32.1 		"/>
		<polygon class="st85" points="-2,30.2 52.1,84.4 51.2,84.4 -2,31.2 		"/>
		<polygon class="st86" points="-2,29.3 53.1,84.4 52.1,84.4 -2,30.2 		"/>
		<polygon class="st87" points="-2,28.7 -1.8,28.5 53.8,84.2 53.6,84.4 53.1,84.4 -2,29.3 		"/>
		
			<rect x="25.9" y="16.8" transform="matrix(0.7071 -0.7071 0.7071 0.7071 -31.9906 34.9793)" class="st88" width="0.7" height="78.7"/>
		
			<rect x="26.4" y="16.3" transform="matrix(0.7071 -0.7071 0.7071 0.7071 -31.5196 35.1744)" class="st89" width="0.7" height="78.7"/>
		
			<rect x="26.8" y="15.8" transform="matrix(0.7071 -0.7071 0.7071 0.7071 -31.0487 35.3694)" class="st90" width="0.7" height="78.7"/>
		
			<rect x="27.3" y="15.4" transform="matrix(0.7071 -0.7071 0.7071 0.7071 -30.5778 35.5645)" class="st91" width="0.7" height="78.7"/>
		
			<rect x="27.8" y="14.9" transform="matrix(0.7071 -0.7071 0.7071 0.7071 -30.1068 35.7596)" class="st92" width="0.7" height="78.7"/>
		
			<rect x="28.3" y="14.4" transform="matrix(0.7071 -0.7071 0.7071 0.7071 -29.6359 35.9547)" class="st93" width="0.7" height="78.7"/>
		
			<rect x="28.7" y="13.9" transform="matrix(0.7071 -0.7071 0.7071 0.7071 -29.1649 36.1497)" class="st94" width="0.7" height="78.7"/>
		
			<rect x="29.2" y="13.5" transform="matrix(0.7071 -0.7071 0.7071 0.7071 -28.694 36.3448)" class="st95" width="0.7" height="78.7"/>
		
			<rect x="29.7" y="13" transform="matrix(0.7071 -0.7071 0.7071 0.7071 -28.223 36.5399)" class="st96" width="0.7" height="78.7"/>
		
			<rect x="30.1" y="12.5" transform="matrix(0.7071 -0.7071 0.7071 0.7071 -27.7521 36.735)" class="st97" width="0.7" height="78.7"/>
		
			<rect x="30.6" y="12.1" transform="matrix(0.7071 -0.7071 0.7071 0.7071 -27.2811 36.93)" class="st98" width="0.7" height="78.7"/>
		
			<rect x="31.1" y="11.6" transform="matrix(0.7071 -0.7071 0.7071 0.7071 -26.8102 37.1251)" class="st99" width="0.7" height="78.7"/>
		
			<rect x="31.5" y="11.1" transform="matrix(0.7071 -0.7071 0.7071 0.7071 -26.3392 37.3202)" class="st100" width="0.7" height="78.7"/>
		
			<rect x="32" y="10.6" transform="matrix(0.7071 -0.7071 0.7071 0.7071 -25.8683 37.5152)" class="st101" width="0.7" height="78.7"/>
		
			<rect x="32.5" y="10.2" transform="matrix(0.7071 -0.7071 0.7071 0.7071 -25.3973 37.7103)" class="st6" width="0.7" height="78.7"/>
		<rect x="33" y="9.7" transform="matrix(0.7071 -0.7071 0.7071 0.7071 -24.9264 37.9054)" class="st7" width="0.7" height="78.7"/>
		
			<rect x="33.4" y="9.2" transform="matrix(0.7071 -0.7071 0.7071 0.7071 -24.4554 38.1005)" class="st8" width="0.7" height="78.7"/>
		
			<rect x="33.9" y="8.8" transform="matrix(0.7071 -0.7071 0.7071 0.7071 -23.9845 38.2955)" class="st9" width="0.7" height="78.7"/>
		
			<rect x="34.4" y="8.3" transform="matrix(0.7071 -0.7071 0.7071 0.7071 -23.5135 38.4906)" class="st10" width="0.7" height="78.7"/>
		
			<rect x="34.8" y="7.8" transform="matrix(0.7071 -0.7071 0.7071 0.7071 -23.0426 38.6857)" class="st11" width="0.7" height="78.7"/>
		
			<rect x="35.3" y="7.3" transform="matrix(0.7071 -0.7071 0.7071 0.7071 -22.5716 38.8808)" class="st12" width="0.7" height="78.7"/>
		
			<rect x="35.8" y="6.9" transform="matrix(0.7071 -0.7071 0.7071 0.7071 -22.1007 39.0758)" class="st13" width="0.7" height="78.7"/>
		
			<rect x="36.3" y="6.4" transform="matrix(0.7071 -0.7071 0.7071 0.7071 -21.6297 39.2709)" class="st14" width="0.7" height="78.7"/>
		
			<rect x="36.7" y="5.9" transform="matrix(0.7071 -0.7071 0.7071 0.7071 -21.1588 39.466)" class="st15" width="0.7" height="78.7"/>
		
			<rect x="37.2" y="5.5" transform="matrix(0.7071 -0.7071 0.7071 0.7071 -20.6879 39.6611)" class="st16" width="0.7" height="78.7"/>
		
			<rect x="37.7" y="5" transform="matrix(0.7071 -0.7071 0.7071 0.7071 -20.2169 39.8561)" class="st17" width="0.7" height="78.7"/>
		
			<rect x="38.1" y="4.5" transform="matrix(0.7071 -0.7071 0.7071 0.7071 -19.746 40.0512)" class="st0" width="0.7" height="78.7"/>
		
			<rect x="38.6" y="4.1" transform="matrix(0.7071 -0.7071 0.7071 0.7071 -19.275 40.2463)" class="st1" width="0.7" height="78.7"/>
		
			<rect x="39.1" y="3.6" transform="matrix(0.7071 -0.7071 0.7071 0.7071 -18.8041 40.4414)" class="st2" width="0.7" height="78.7"/>
		
			<rect x="39.6" y="3.1" transform="matrix(0.7071 -0.7071 0.7071 0.7071 -18.3331 40.6364)" class="st18" width="0.7" height="78.7"/>
		
			<rect x="40" y="2.6" transform="matrix(0.7071 -0.7071 0.7071 0.7071 -17.8622 40.8315)" class="st19" width="0.7" height="78.7"/>
		
			<rect x="40.5" y="2.2" transform="matrix(0.7071 -0.7071 0.7071 0.7071 -17.3912 41.0266)" class="st20" width="0.7" height="78.7"/>
		
			<rect x="41" y="1.7" transform="matrix(0.7071 -0.7071 0.7071 0.7071 -16.9203 41.2216)" class="st21" width="0.7" height="78.7"/>
		
			<rect x="41.4" y="1.2" transform="matrix(0.7071 -0.7071 0.7071 0.7071 -16.4493 41.4167)" class="st22" width="0.7" height="78.7"/>
		
			<rect x="41.9" y="0.8" transform="matrix(0.7071 -0.7071 0.7071 0.7071 -15.9784 41.6118)" class="st23" width="0.7" height="78.7"/>
		
			<rect x="42.4" y="0.3" transform="matrix(0.7071 -0.7071 0.7071 0.7071 -15.5074 41.8069)" class="st24" width="0.7" height="78.7"/>
		
			<rect x="42.8" y="-0.2" transform="matrix(0.7071 -0.7071 0.7071 0.7071 -15.0365 42.0019)" class="st25" width="0.7" height="78.7"/>
		
			<rect x="43.3" y="-0.7" transform="matrix(0.7071 -0.7071 0.7071 0.7071 -14.5655 42.197)" class="st26" width="0.7" height="78.7"/>
		
			<rect x="43.8" y="-1.1" transform="matrix(0.7071 -0.7071 0.7071 0.7071 -14.0946 42.392)" class="st27" width="0.7" height="78.7"/>
		
			<rect x="44.3" y="-1.6" transform="matrix(0.7071 -0.7071 0.7071 0.7071 -13.6236 42.5871)" class="st28" width="0.7" height="78.7"/>
		
			<rect x="44.7" y="-2.1" transform="matrix(0.7071 -0.7071 0.7071 0.7071 -13.1527 42.7822)" class="st29" width="0.7" height="78.7"/>
		
			<rect x="45.2" y="-2.5" transform="matrix(0.7071 -0.7071 0.7071 0.7071 -12.6817 42.9773)" class="st30" width="0.7" height="78.7"/>
		
			<rect x="45.7" y="-3" transform="matrix(0.7071 -0.7071 0.7071 0.7071 -12.2108 43.1724)" class="st31" width="0.7" height="78.7"/>
		
			<rect x="46.1" y="-3.5" transform="matrix(0.7071 -0.7071 0.7071 0.7071 -11.7398 43.3674)" class="st32" width="0.7" height="78.7"/>
		
			<rect x="46.6" y="-4" transform="matrix(0.7071 -0.7071 0.7071 0.7071 -11.2689 43.5625)" class="st33" width="0.7" height="78.7"/>
		
			<rect x="47.1" y="-4.4" transform="matrix(0.7071 -0.7071 0.7071 0.7071 -10.7979 43.7576)" class="st34" width="0.7" height="78.7"/>
		
			<rect x="47.6" y="-4.9" transform="matrix(0.7071 -0.7071 0.7071 0.7071 -10.327 43.9527)" class="st35" width="0.7" height="78.7"/>
		
			<rect x="48" y="-5.4" transform="matrix(0.7071 -0.7071 0.7071 0.7071 -9.8561 44.1477)" class="st36" width="0.7" height="78.7"/>
		
			<rect x="48.5" y="-5.8" transform="matrix(0.7071 -0.7071 0.7071 0.7071 -9.3851 44.3428)" class="st37" width="0.7" height="78.7"/>
		
			<rect x="49" y="-6.3" transform="matrix(0.7071 -0.7071 0.7071 0.7071 -8.9142 44.5379)" class="st38" width="0.7" height="78.7"/>
		
			<rect x="49.4" y="-6.8" transform="matrix(0.7071 -0.7071 0.7071 0.7071 -8.4432 44.733)" class="st39" width="0.7" height="78.7"/>
		
			<rect x="49.9" y="-7.3" transform="matrix(0.7071 -0.7071 0.7071 0.7071 -7.9723 44.928)" class="st40" width="0.7" height="78.7"/>
		
			<rect x="50.4" y="-7.7" transform="matrix(0.7071 -0.7071 0.7071 0.7071 -7.5013 45.1231)" class="st41" width="0.7" height="78.7"/>
		
			<rect x="50.9" y="-8.2" transform="matrix(0.7071 -0.7071 0.7071 0.7071 -7.0304 45.3182)" class="st42" width="0.7" height="78.7"/>
		
			<rect x="51.3" y="-8.7" transform="matrix(0.7071 -0.7071 0.7071 0.7071 -6.5594 45.5133)" class="st43" width="0.7" height="78.7"/>
		<polygon class="st44" points="24.1,2.6 24.3,2.4 24.8,2.4 79.9,57.5 79.9,58.1 79.7,58.3 		"/>
		<polygon class="st45" points="25.8,2.4 79.9,56.6 79.9,57.5 24.8,2.4 		"/>
		<polygon class="st46" points="26.7,2.4 79.9,55.6 79.9,56.6 25.8,2.4 		"/>
		<polygon class="st47" points="27.7,2.4 79.9,54.7 79.9,55.6 26.7,2.4 		"/>
		<polygon class="st48" points="28.6,2.4 79.9,53.7 79.9,54.7 27.7,2.4 		"/>
		<polygon class="st49" points="29.5,2.4 79.9,52.8 79.9,53.7 28.6,2.4 		"/>
		<polygon class="st50" points="30.5,2.4 79.9,51.9 79.9,52.8 29.5,2.4 		"/>
		<polygon class="st51" points="31.4,2.4 79.9,50.9 79.9,51.9 30.5,2.4 		"/>
		<polygon class="st52" points="32.4,2.4 79.9,50 79.9,50.9 31.4,2.4 		"/>
		<polygon class="st53" points="33.3,2.4 79.9,49 79.9,50 32.4,2.4 		"/>
		<polygon class="st54" points="34.2,2.4 79.9,48.1 79.9,49 33.3,2.4 		"/>
		<polygon class="st55" points="35.2,2.4 79.9,47.1 79.9,48.1 34.2,2.4 		"/>
		<polygon class="st56" points="36.1,2.4 79.9,46.2 79.9,47.1 35.2,2.4 		"/>
		<polygon class="st57" points="37.1,2.4 79.9,45.3 79.9,46.2 36.1,2.4 		"/>
		<polygon class="st58" points="38,2.4 79.9,44.3 79.9,45.3 37.1,2.4 		"/>
		<polygon class="st59" points="39,2.4 79.9,43.4 79.9,44.3 38,2.4 		"/>
		<polygon class="st60" points="39.9,2.4 79.9,42.4 79.9,43.4 39,2.4 		"/>
		<polygon class="st61" points="40.8,2.4 79.9,41.5 79.9,42.4 39.9,2.4 		"/>
		<polygon class="st62" points="41.8,2.4 79.9,40.6 79.9,41.5 40.8,2.4 		"/>
		<polygon class="st63" points="42.7,2.4 79.9,39.6 79.9,40.6 41.8,2.4 		"/>
		<polygon class="st64" points="43.7,2.4 79.9,38.7 79.9,39.6 42.7,2.4 		"/>
		<polygon class="st65" points="44.6,2.4 79.9,37.7 79.9,38.7 43.7,2.4 		"/>
		<polygon class="st66" points="45.5,2.4 79.9,36.8 79.9,37.7 44.6,2.4 		"/>
		<polygon class="st67" points="46.5,2.4 79.9,35.8 79.9,36.8 45.5,2.4 		"/>
		<polygon class="st68" points="47.4,2.4 79.9,34.9 79.9,35.8 46.5,2.4 		"/>
		<polygon class="st69" points="48.4,2.4 79.9,34 79.9,34.9 47.4,2.4 		"/>
		<polygon class="st70" points="49.3,2.4 79.9,33 79.9,34 48.4,2.4 		"/>
		<polygon class="st71" points="50.3,2.4 79.9,32.1 79.9,33 49.3,2.4 		"/>
		<polygon class="st72" points="51.2,2.4 79.9,31.1 79.9,32.1 50.3,2.4 		"/>
		<polygon class="st73" points="52.1,2.4 79.9,30.2 79.9,31.1 51.2,2.4 		"/>
		<polygon class="st74" points="53.1,2.4 79.9,29.3 79.9,30.2 52.1,2.4 		"/>
		<polygon class="st74" points="79.9,29.3 53.1,2.4 79.9,2.4 		"/>
		<polygon class="st115" points="-3.8,55.7 26.6,86.1 -3.8,86.1 		"/>
		<polygon class="st115" points="-3.8,54.8 27.5,86.1 26.6,86.1 -3.8,55.7 		"/>
		<polygon class="st116" points="-3.8,53.9 28.5,86.1 27.5,86.1 -3.8,54.8 		"/>
		<polygon class="st102" points="-3.8,52.9 29.4,86.1 28.5,86.1 -3.8,53.9 		"/>
		<polygon class="st103" points="-3.8,52 30.4,86.1 29.4,86.1 -3.8,52.9 		"/>
		<polygon class="st104" points="-3.8,51 31.3,86.1 30.4,86.1 -3.8,52 		"/>
		<polygon class="st105" points="-3.8,50.1 32.2,86.1 31.3,86.1 -3.8,51 		"/>
		<polygon class="st106" points="-3.8,49.2 33.2,86.1 32.2,86.1 -3.8,50.1 		"/>
		<polygon class="st5" points="-3.8,48.2 34.1,86.1 33.2,86.1 -3.8,49.2 		"/>
		<polygon class="st3" points="-3.8,47.3 35.1,86.1 34.1,86.1 -3.8,48.2 		"/>
		<polygon class="st4" points="-3.8,46.3 36,86.1 35.1,86.1 -3.8,47.3 		"/>
		<polygon class="st107" points="-3.8,45.4 36.9,86.1 36,86.1 -3.8,46.3 		"/>
		<polygon class="st108" points="-3.8,44.4 37.9,86.1 36.9,86.1 -3.8,45.4 		"/>
		<polygon class="st109" points="-3.8,43.5 38.8,86.1 37.9,86.1 -3.8,44.4 		"/>
		<polygon class="st110" points="-3.8,42.6 39.8,86.1 38.8,86.1 -3.8,43.5 		"/>
		<polygon class="st111" points="-3.8,41.6 40.7,86.1 39.8,86.1 -3.8,42.6 		"/>
		<polygon class="st112" points="-3.8,40.7 41.7,86.1 40.7,86.1 -3.8,41.6 		"/>
		<polygon class="st113" points="-3.8,39.7 42.6,86.1 41.7,86.1 -3.8,40.7 		"/>
		<polygon class="st114" points="-3.8,38.8 43.5,86.1 42.6,86.1 -3.8,39.7 		"/>
		<polygon class="st75" points="-3.8,37.9 44.5,86.1 43.5,86.1 -3.8,38.8 		"/>
		<polygon class="st76" points="-3.8,36.9 45.4,86.1 44.5,86.1 -3.8,37.9 		"/>
		<polygon class="st77" points="-3.8,36 46.4,86.1 45.4,86.1 -3.8,36.9 		"/>
		<polygon class="st78" points="-3.8,35 47.3,86.1 46.4,86.1 -3.8,36 		"/>
		<polygon class="st79" points="-3.8,34.1 48.2,86.1 47.3,86.1 -3.8,35 		"/>
		<polygon class="st80" points="-3.8,33.1 49.2,86.1 48.2,86.1 -3.8,34.1 		"/>
		<polygon class="st81" points="-3.8,32.2 50.1,86.1 49.2,86.1 -3.8,33.1 		"/>
		<polygon class="st82" points="-3.8,31.3 51.1,86.1 50.1,86.1 -3.8,32.2 		"/>
		<polygon class="st83" points="-3.8,30.3 52,86.1 51.1,86.1 -3.8,31.3 		"/>
		<polygon class="st84" points="-3.8,29.4 53,86.1 52,86.1 -3.8,30.3 		"/>
		<polygon class="st85" points="-3.8,28.4 53.9,86.1 53,86.1 -3.8,29.4 		"/>
		<polygon class="st86" points="-3.8,28.2 -3.4,27.8 54.5,85.8 54.1,86.1 53.9,86.1 -3.8,28.4 		"/>
		
			<rect x="25.4" y="15.6" transform="matrix(0.7071 -0.7071 0.7071 0.7071 -32.4615 34.7842)" class="st87" width="0.7" height="81.9"/>
		
			<rect x="25.9" y="15.1" transform="matrix(0.7071 -0.7071 0.7071 0.7071 -31.9906 34.9793)" class="st88" width="0.7" height="81.9"/>
		
			<rect x="26.4" y="14.7" transform="matrix(0.7071 -0.7071 0.7071 0.7071 -31.5196 35.1744)" class="st89" width="0.7" height="81.9"/>
		
			<rect x="26.8" y="14.2" transform="matrix(0.7071 -0.7071 0.7071 0.7071 -31.0487 35.3694)" class="st90" width="0.7" height="81.9"/>
		
			<rect x="27.3" y="13.7" transform="matrix(0.7071 -0.7071 0.7071 0.7071 -30.5778 35.5645)" class="st91" width="0.7" height="81.9"/>
		
			<rect x="27.8" y="13.3" transform="matrix(0.7071 -0.7071 0.7071 0.7071 -30.1068 35.7596)" class="st92" width="0.7" height="81.9"/>
		
			<rect x="28.3" y="12.8" transform="matrix(0.7071 -0.7071 0.7071 0.7071 -29.6359 35.9547)" class="st93" width="0.7" height="81.9"/>
		
			<rect x="28.7" y="12.3" transform="matrix(0.7071 -0.7071 0.7071 0.7071 -29.1649 36.1497)" class="st94" width="0.7" height="81.9"/>
		
			<rect x="29.2" y="11.8" transform="matrix(0.7071 -0.7071 0.7071 0.7071 -28.694 36.3448)" class="st95" width="0.7" height="81.9"/>
		
			<rect x="29.7" y="11.4" transform="matrix(0.7071 -0.7071 0.7071 0.7071 -28.223 36.5399)" class="st96" width="0.7" height="81.9"/>
		
			<rect x="30.1" y="10.9" transform="matrix(0.7071 -0.7071 0.7071 0.7071 -27.7521 36.735)" class="st97" width="0.7" height="81.9"/>
		
			<rect x="30.6" y="10.4" transform="matrix(0.7071 -0.7071 0.7071 0.7071 -27.2811 36.93)" class="st98" width="0.7" height="81.9"/>
		
			<rect x="31.1" y="10" transform="matrix(0.7071 -0.7071 0.7071 0.7071 -26.8102 37.1251)" class="st99" width="0.7" height="81.9"/>
		
			<rect x="31.5" y="9.5" transform="matrix(0.7071 -0.7071 0.7071 0.7071 -26.3392 37.3202)" class="st100" width="0.7" height="81.9"/>
		<rect x="32" y="9" transform="matrix(0.7071 -0.7071 0.7071 0.7071 -25.8683 37.5152)" class="st101" width="0.7" height="81.9"/>
		
			<rect x="32.5" y="8.6" transform="matrix(0.7071 -0.7071 0.7071 0.7071 -25.3973 37.7103)" class="st6" width="0.7" height="81.9"/>
		<rect x="33" y="8.1" transform="matrix(0.7071 -0.7071 0.7071 0.7071 -24.9264 37.9054)" class="st7" width="0.7" height="81.9"/>
		
			<rect x="33.4" y="7.6" transform="matrix(0.7071 -0.7071 0.7071 0.7071 -24.4554 38.1005)" class="st8" width="0.7" height="81.9"/>
		
			<rect x="33.9" y="7.1" transform="matrix(0.7071 -0.7071 0.7071 0.7071 -23.9845 38.2955)" class="st9" width="0.7" height="81.9"/>
		
			<rect x="34.4" y="6.7" transform="matrix(0.7071 -0.7071 0.7071 0.7071 -23.5135 38.4906)" class="st10" width="0.7" height="81.9"/>
		
			<rect x="34.8" y="6.2" transform="matrix(0.7071 -0.7071 0.7071 0.7071 -23.0426 38.6857)" class="st11" width="0.7" height="81.9"/>
		
			<rect x="35.3" y="5.7" transform="matrix(0.7071 -0.7071 0.7071 0.7071 -22.5716 38.8808)" class="st12" width="0.7" height="81.9"/>
		
			<rect x="35.8" y="5.3" transform="matrix(0.7071 -0.7071 0.7071 0.7071 -22.1007 39.0758)" class="st13" width="0.7" height="81.9"/>
		
			<rect x="36.3" y="4.8" transform="matrix(0.7071 -0.7071 0.7071 0.7071 -21.6297 39.2709)" class="st14" width="0.7" height="81.9"/>
		
			<rect x="36.7" y="4.3" transform="matrix(0.7071 -0.7071 0.7071 0.7071 -21.1588 39.466)" class="st15" width="0.7" height="81.9"/>
		
			<rect x="37.2" y="3.8" transform="matrix(0.7071 -0.7071 0.7071 0.7071 -20.6879 39.6611)" class="st16" width="0.7" height="81.9"/>
		
			<rect x="37.7" y="3.4" transform="matrix(0.7071 -0.7071 0.7071 0.7071 -20.2169 39.8561)" class="st17" width="0.7" height="81.9"/>
		
			<rect x="38.1" y="2.9" transform="matrix(0.7071 -0.7071 0.7071 0.7071 -19.746 40.0512)" class="st0" width="0.7" height="81.9"/>
		
			<rect x="38.6" y="2.4" transform="matrix(0.7071 -0.7071 0.7071 0.7071 -19.275 40.2463)" class="st1" width="0.7" height="81.9"/>
		<rect x="39.1" y="2" transform="matrix(0.7071 -0.7071 0.7071 0.7071 -18.8041 40.4414)" class="st2" width="0.7" height="81.9"/>
		
			<rect x="39.6" y="1.5" transform="matrix(0.7071 -0.7071 0.7071 0.7071 -18.3331 40.6364)" class="st18" width="0.7" height="81.9"/>
		<rect x="40" y="1" transform="matrix(0.7071 -0.7071 0.7071 0.7071 -17.8622 40.8315)" class="st19" width="0.7" height="81.9"/>
		
			<rect x="40.5" y="0.5" transform="matrix(0.7071 -0.7071 0.7071 0.7071 -17.3912 41.0266)" class="st20" width="0.7" height="81.9"/>
		
			<rect x="41" y="0.1" transform="matrix(0.7071 -0.7071 0.7071 0.7071 -16.9203 41.2216)" class="st21" width="0.7" height="81.9"/>
		
			<rect x="41.4" y="-0.4" transform="matrix(0.7071 -0.7071 0.7071 0.7071 -16.4493 41.4167)" class="st22" width="0.7" height="81.9"/>
		
			<rect x="41.9" y="-0.9" transform="matrix(0.7071 -0.7071 0.7071 0.7071 -15.9784 41.6118)" class="st23" width="0.7" height="81.9"/>
		
			<rect x="42.4" y="-1.3" transform="matrix(0.7071 -0.7071 0.7071 0.7071 -15.5074 41.8069)" class="st24" width="0.7" height="81.9"/>
		
			<rect x="42.8" y="-1.8" transform="matrix(0.7071 -0.7071 0.7071 0.7071 -15.0365 42.0019)" class="st25" width="0.7" height="81.9"/>
		
			<rect x="43.3" y="-2.3" transform="matrix(0.7071 -0.7071 0.7071 0.7071 -14.5655 42.197)" class="st26" width="0.7" height="81.9"/>
		
			<rect x="43.8" y="-2.8" transform="matrix(0.7071 -0.7071 0.7071 0.7071 -14.0946 42.392)" class="st27" width="0.7" height="81.9"/>
		
			<rect x="44.3" y="-3.2" transform="matrix(0.7071 -0.7071 0.7071 0.7071 -13.6236 42.5871)" class="st28" width="0.7" height="81.9"/>
		
			<rect x="44.7" y="-3.7" transform="matrix(0.7071 -0.7071 0.7071 0.7071 -13.1527 42.7822)" class="st29" width="0.7" height="81.9"/>
		
			<rect x="45.2" y="-4.2" transform="matrix(0.7071 -0.7071 0.7071 0.7071 -12.6817 42.9773)" class="st30" width="0.7" height="81.9"/>
		
			<rect x="45.7" y="-4.6" transform="matrix(0.7071 -0.7071 0.7071 0.7071 -12.2108 43.1724)" class="st31" width="0.7" height="81.9"/>
		
			<rect x="46.1" y="-5.1" transform="matrix(0.7071 -0.7071 0.7071 0.7071 -11.7398 43.3674)" class="st32" width="0.7" height="81.9"/>
		
			<rect x="46.6" y="-5.6" transform="matrix(0.7071 -0.7071 0.7071 0.7071 -11.2689 43.5625)" class="st33" width="0.7" height="81.9"/>
		
			<rect x="47.1" y="-6" transform="matrix(0.7071 -0.7071 0.7071 0.7071 -10.7979 43.7576)" class="st34" width="0.7" height="81.9"/>
		
			<rect x="47.6" y="-6.5" transform="matrix(0.7071 -0.7071 0.7071 0.7071 -10.327 43.9527)" class="st35" width="0.7" height="81.9"/>
		<rect x="48" y="-7" transform="matrix(0.7071 -0.7071 0.7071 0.7071 -9.8561 44.1477)" class="st36" width="0.7" height="81.9"/>
		
			<rect x="48.5" y="-7.5" transform="matrix(0.7071 -0.7071 0.7071 0.7071 -9.3851 44.3428)" class="st37" width="0.7" height="81.9"/>
		
			<rect x="49" y="-7.9" transform="matrix(0.7071 -0.7071 0.7071 0.7071 -8.9142 44.5379)" class="st38" width="0.7" height="81.9"/>
		
			<rect x="49.4" y="-8.4" transform="matrix(0.7071 -0.7071 0.7071 0.7071 -8.4432 44.733)" class="st39" width="0.7" height="81.9"/>
		
			<rect x="49.9" y="-8.9" transform="matrix(0.7071 -0.7071 0.7071 0.7071 -7.9723 44.928)" class="st40" width="0.7" height="81.9"/>
		
			<rect x="50.4" y="-9.3" transform="matrix(0.7071 -0.7071 0.7071 0.7071 -7.5013 45.1231)" class="st41" width="0.7" height="81.9"/>
		
			<rect x="50.9" y="-9.8" transform="matrix(0.7071 -0.7071 0.7071 0.7071 -7.0304 45.3182)" class="st42" width="0.7" height="81.9"/>
		
			<rect x="51.3" y="-10.3" transform="matrix(0.7071 -0.7071 0.7071 0.7071 -6.5594 45.5133)" class="st43" width="0.7" height="81.9"/>
		
			<rect x="51.8" y="-10.8" transform="matrix(0.7071 -0.7071 0.7071 0.7071 -6.0885 45.7083)" class="st44" width="0.7" height="81.9"/>
		<polygon class="st45" points="23.4,1 23.8,0.6 24,0.6 81.7,58.3 81.7,58.6 81.3,58.9 		"/>
		<polygon class="st46" points="24.9,0.6 81.7,57.4 81.7,58.3 24,0.6 		"/>
		<polygon class="st47" points="25.9,0.6 81.7,56.5 81.7,57.4 24.9,0.6 		"/>
		<polygon class="st48" points="26.8,0.6 81.7,55.5 81.7,56.5 25.9,0.6 		"/>
		<polygon class="st49" points="27.8,0.6 81.7,54.6 81.7,55.5 26.8,0.6 		"/>
		<polygon class="st50" points="28.7,0.6 81.7,53.6 81.7,54.6 27.8,0.6 		"/>
		<polygon class="st51" points="29.6,0.6 81.7,52.7 81.7,53.6 28.7,0.6 		"/>
		<polygon class="st52" points="30.6,0.6 81.7,51.8 81.7,52.7 29.6,0.6 		"/>
		<polygon class="st53" points="31.5,0.6 81.7,50.8 81.7,51.8 30.6,0.6 		"/>
		<polygon class="st54" points="32.5,0.6 81.7,49.9 81.7,50.8 31.5,0.6 		"/>
		<polygon class="st55" points="33.4,0.6 81.7,48.9 81.7,49.9 32.5,0.6 		"/>
		<polygon class="st56" points="34.3,0.6 81.7,48 81.7,48.9 33.4,0.6 		"/>
		<polygon class="st57" points="35.3,0.6 81.7,47 81.7,48 34.3,0.6 		"/>
		<polygon class="st58" points="36.2,0.6 81.7,46.1 81.7,47 35.3,0.6 		"/>
		<polygon class="st59" points="37.2,0.6 81.7,45.2 81.7,46.1 36.2,0.6 		"/>
		<polygon class="st60" points="38.1,0.6 81.7,44.2 81.7,45.2 37.2,0.6 		"/>
		<polygon class="st61" points="39.1,0.6 81.7,43.3 81.7,44.2 38.1,0.6 		"/>
		<polygon class="st62" points="40,0.6 81.7,42.3 81.7,43.3 39.1,0.6 		"/>
		<polygon class="st63" points="40.9,0.6 81.7,41.4 81.7,42.3 40,0.6 		"/>
		<polygon class="st64" points="41.9,0.6 81.7,40.5 81.7,41.4 40.9,0.6 		"/>
		<polygon class="st65" points="42.8,0.6 81.7,39.5 81.7,40.5 41.9,0.6 		"/>
		<polygon class="st66" points="43.8,0.6 81.7,38.6 81.7,39.5 42.8,0.6 		"/>
		<polygon class="st67" points="44.7,0.6 81.7,37.6 81.7,38.6 43.8,0.6 		"/>
		<polygon class="st68" points="45.7,0.6 81.7,36.7 81.7,37.6 44.7,0.6 		"/>
		<polygon class="st69" points="46.6,0.6 81.7,35.7 81.7,36.7 45.7,0.6 		"/>
		<polygon class="st70" points="47.5,0.6 81.7,34.8 81.7,35.7 46.6,0.6 		"/>
		<polygon class="st71" points="48.5,0.6 81.7,33.9 81.7,34.8 47.5,0.6 		"/>
		<polygon class="st72" points="49.4,0.6 81.7,32.9 81.7,33.9 48.5,0.6 		"/>
		<polygon class="st73" points="50.4,0.6 81.7,32 81.7,32.9 49.4,0.6 		"/>
		<polygon class="st74" points="51.3,0.6 81.7,31 81.7,32 50.4,0.6 		"/>
		<polygon class="st74" points="81.7,31 51.3,0.6 81.7,0.6 		"/>
	</g>
</g>
<g>
	<path class="st117" d="M122,44.2V1.1h0.9l28.7,33v-33h4.2v43.1h-1l-28.4-32.6v32.6H122z"/>
	<path class="st117" d="M197.9,36.2l3.7-2.2c2.6,4.7,5.6,7.1,8.9,7.1c1.4,0,2.8-0.3,4.1-1c1.3-0.7,2.2-1.6,2.9-2.7
		c0.7-1.1,1-2.3,1-3.6c0-1.4-0.5-2.9-1.5-4.2c-1.3-1.9-3.8-4.2-7.4-6.9c-3.6-2.7-5.8-4.7-6.7-5.9c-1.5-2-2.3-4.2-2.3-6.6
		c0-1.9,0.4-3.6,1.3-5.1c0.9-1.5,2.2-2.8,3.8-3.6c1.6-0.9,3.4-1.3,5.3-1.3c2,0,3.9,0.5,5.7,1.5c1.8,1,3.6,2.9,5.6,5.6l-3.5,2.7
		c-1.6-2.1-3-3.6-4.1-4.2s-2.4-1-3.7-1c-1.7,0-3.2,0.5-4.3,1.6c-1.1,1.1-1.7,2.4-1.7,3.9c0,0.9,0.2,1.8,0.6,2.7
		c0.4,0.9,1.1,1.8,2.1,2.9c0.6,0.5,2.4,2,5.6,4.3c3.7,2.8,6.3,5.2,7.7,7.4c1.4,2.1,2.1,4.3,2.1,6.5c0,3.1-1.2,5.8-3.6,8.1
		c-2.4,2.3-5.3,3.5-8.7,3.5c-2.6,0-5-0.7-7.1-2.1C201.7,41.8,199.7,39.4,197.9,36.2z"/>
	<path class="st117" d="M285.9,1.1L306,44.2h-4.7L294.6,30H276l-6.7,14.2h-4.8l20.4-43.1H285.9z M285.3,10.2L278,25.8h14.7
		L285.3,10.2z"/>
	<path class="st117" d="M348.6,1.1h8.6c4.9,0,8.2,0.2,10,0.6c2.5,0.6,4.5,1.9,6,3.7c1.6,1.9,2.3,4.3,2.3,7.1c0,2.9-0.8,5.2-2.3,7.1
		s-3.6,3.1-6.3,3.8c-2,0.5-5.6,0.7-11,0.7h-3.1v20h-4.3V1.1z M352.9,5.3v14.6l7.3,0.1c2.9,0,5.1-0.3,6.5-0.8
		c1.4-0.5,2.4-1.4,3.2-2.6c0.8-1.2,1.2-2.5,1.2-4c0-1.4-0.4-2.8-1.2-4c-0.8-1.2-1.8-2.1-3.1-2.6c-1.3-0.5-3.4-0.8-6.3-0.8H352.9z"/>
</g>
<g>
	<path class="st118" d="M132.7,64.3h1.9v17.1H133l-10.3-13.8v13.8h-1.8V64.3h1.5L132.7,78V64.3z"/>
	<path class="st118" d="M150.8,74.1c0.5,0.7,0.8,1.6,0.8,2.7c0,1.5-0.5,2.6-1.5,3.4c-1,0.8-2.4,1.2-4.2,1.2h-7.1V64.3h6.9
		c1.7,0,3.1,0.4,4.1,1.2c1,0.8,1.5,1.9,1.5,3.3c0,0.9-0.2,1.7-0.7,2.4c-0.5,0.7-1.1,1.2-2,1.5C149.5,72.9,150.2,73.3,150.8,74.1z
		 M140.7,71.9h4.6c1.3,0,2.2-0.3,2.9-0.8c0.7-0.5,1-1.3,1-2.3c0-2-1.3-2.9-3.9-2.9h-4.6V71.9z M148.7,79c0.6-0.5,0.9-1.3,0.9-2.3
		c0-2.1-1.3-3.1-3.9-3.1h-5v6.2h5C147.1,79.7,148.1,79.5,148.7,79z"/>
	<path class="st118" d="M168,81.4l-1.9-4.4h-8.9l-1.9,4.4h-2l7.5-17.1h1.7l7.5,17.1H168z M157.9,75.3h7.5l-3.8-8.8L157.9,75.3z"/>
	<path class="st118" d="M177.9,79.4l0.7-1.5c0.8,0.7,1.7,1.2,2.6,1.5c0.9,0.3,1.9,0.5,3.1,0.5c1.4,0,2.4-0.3,3.2-0.8
		c0.7-0.5,1.1-1.3,1.1-2.3c0-0.6-0.2-1-0.5-1.4s-0.8-0.6-1.4-0.9c-0.6-0.2-1.4-0.4-2.3-0.6c-1.3-0.3-2.4-0.6-3.2-0.9
		s-1.5-0.8-2.1-1.5c-0.5-0.6-0.8-1.5-0.8-2.5c0-1,0.3-1.8,0.8-2.6c0.5-0.7,1.2-1.3,2.2-1.7s2-0.6,3.3-0.6c1.2,0,2.3,0.2,3.3,0.6
		c1,0.4,1.9,0.9,2.6,1.6l-0.8,1.5c-0.8-0.7-1.6-1.2-2.4-1.5c-0.8-0.3-1.7-0.5-2.7-0.5c-1.3,0-2.4,0.3-3.1,0.9
		c-0.8,0.6-1.1,1.3-1.1,2.3c0,0.9,0.3,1.5,1,1.9c0.7,0.4,1.7,0.8,3,1.1c1.5,0.4,2.6,0.7,3.5,1c0.8,0.3,1.5,0.7,2.1,1.3
		c0.6,0.6,0.8,1.4,0.8,2.4c0,1-0.3,1.8-0.8,2.5c-0.5,0.7-1.2,1.3-2.2,1.7c-1,0.4-2.1,0.6-3.3,0.6C181.6,81.6,179.5,80.8,177.9,79.4z
		"/>
	<path class="st118" d="M196.1,70.8v6.6c0,0.9,0.2,1.5,0.6,1.9c0.4,0.4,0.9,0.5,1.6,0.5c0.4,0,0.9-0.1,1.3-0.2v1.7
		c-0.5,0.2-1.1,0.2-1.7,0.2c-1.2,0-2.1-0.3-2.7-1c-0.6-0.6-1-1.6-1-2.9v-6.9h-2.4v-1.5h2.4v-3.1l1.9-0.7v3.8h3.5v1.5H196.1z"/>
	<path class="st118" d="M212.5,69.3v12.1h-1.9v-2.2c-0.4,0.8-0.9,1.3-1.6,1.7c-0.7,0.4-1.5,0.6-2.5,0.6c-1.1,0-2-0.3-2.8-0.8
		c-0.8-0.5-1.4-1.2-1.9-2.2c-0.4-0.9-0.7-2-0.7-3.3s0.2-2.3,0.7-3.3c0.4-1,1.1-1.7,1.9-2.2c0.8-0.5,1.7-0.8,2.8-0.8
		c0.9,0,1.8,0.2,2.5,0.6c0.7,0.4,1.2,1,1.6,1.8v-2.1H212.5z M209.6,78.7c0.6-0.8,1-2,1-3.4c0-1.5-0.3-2.6-1-3.4
		c-0.6-0.8-1.6-1.2-2.7-1.2c-1.2,0-2.1,0.4-2.8,1.2c-0.7,0.8-1,2-1,3.4s0.3,2.6,1,3.4c0.7,0.8,1.6,1.2,2.8,1.2
		C208.1,79.9,209,79.5,209.6,78.7z"/>
	<path class="st118" d="M218.9,70.8v6.6c0,0.9,0.2,1.5,0.6,1.9c0.4,0.4,0.9,0.5,1.6,0.5c0.4,0,0.9-0.1,1.3-0.2v1.7
		c-0.5,0.2-1.1,0.2-1.7,0.2c-1.2,0-2.1-0.3-2.7-1c-0.6-0.6-1-1.6-1-2.9v-6.9h-2.4v-1.5h2.4v-3.1l1.9-0.7v3.8h3.5v1.5H218.9z"/>
	<path class="st118" d="M224.5,64.2h2.4v2.2h-2.4V64.2z M224.7,81.4V69.3h1.9v12.1H224.7z"/>
	<path class="st118" d="M232.4,80.8c-0.9-0.5-1.5-1.2-2-2.2c-0.5-0.9-0.7-2-0.7-3.3s0.2-2.3,0.7-3.3s1.2-1.7,2.1-2.2
		c0.9-0.5,1.9-0.8,3.1-0.8c0.8,0,1.6,0.1,2.4,0.4c0.8,0.3,1.4,0.7,1.9,1.2l-0.6,1.4c-0.6-0.5-1.2-0.8-1.8-1.1
		c-0.6-0.2-1.1-0.3-1.7-0.3c-1.2,0-2.2,0.4-2.9,1.2c-0.7,0.8-1.1,2-1.1,3.4c0,1.5,0.3,2.6,1,3.4c0.7,0.8,1.7,1.2,2.9,1.2
		c0.6,0,1.2-0.1,1.7-0.3c0.6-0.2,1.2-0.6,1.8-1.1l0.6,1.4c-0.5,0.5-1.2,0.9-1.9,1.1c-0.8,0.3-1.6,0.4-2.4,0.4
		C234.3,81.5,233.3,81.3,232.4,80.8z"/>
	<path class="st118" d="M261.8,81.4L260,77H251l-1.9,4.4h-2l7.5-17.1h1.7l7.5,17.1H261.8z M251.7,75.3h7.5l-3.8-8.8L251.7,75.3z"/>
	<path class="st118" d="M276.5,73.8v7.6h-1.9v-7.5c0-1.1-0.2-1.9-0.7-2.5c-0.4-0.5-1.2-0.8-2.1-0.8c-1.1,0-2,0.3-2.7,1
		c-0.7,0.7-1,1.6-1,2.8v6.9h-1.9v-8.7c0-1.2-0.1-2.4-0.2-3.4h1.8l0.2,2.2c0.4-0.8,0.9-1.4,1.7-1.8c0.7-0.4,1.6-0.6,2.5-0.6
		C275.1,69,276.5,70.6,276.5,73.8z"/>
	<path class="st118" d="M290.8,69.3v12.1h-1.9v-2.2c-0.4,0.8-0.9,1.3-1.6,1.7c-0.7,0.4-1.5,0.6-2.5,0.6c-1.1,0-2-0.3-2.8-0.8
		c-0.8-0.5-1.4-1.2-1.9-2.2c-0.4-0.9-0.7-2-0.7-3.3s0.2-2.3,0.7-3.3c0.4-1,1.1-1.7,1.9-2.2c0.8-0.5,1.7-0.8,2.8-0.8
		c0.9,0,1.8,0.2,2.5,0.6c0.7,0.4,1.2,1,1.6,1.8v-2.1H290.8z M287.9,78.7c0.6-0.8,1-2,1-3.4c0-1.5-0.3-2.6-1-3.4
		c-0.6-0.8-1.6-1.2-2.7-1.2c-1.2,0-2.1,0.4-2.8,1.2c-0.7,0.8-1,2-1,3.4s0.3,2.6,1,3.4s1.6,1.2,2.8,1.2
		C286.4,79.9,287.3,79.5,287.9,78.7z"/>
	<path class="st118" d="M294.6,81.4V63.7h1.9v17.7H294.6z"/>
	<path class="st118" d="M310.9,69.3l-5.6,13.2c-0.6,1.4-1.3,2.4-2.2,3c-0.9,0.6-2,1.1-3.3,1.3l-0.4-1.5c1.1-0.3,2-0.6,2.6-1
		s1.1-1.1,1.5-2l0.5-1.1l-5.1-12h2l4.1,10l4.1-10H310.9z"/>
	<path class="st118" d="M314.6,79.8h7.8v1.5h-10.2V80l7.6-9.2h-7.3v-1.5h9.7v1.4L314.6,79.8z"/>
	<path class="st118" d="M325.1,64.2h2.4v2.2h-2.4V64.2z M325.3,81.4V69.3h1.9v12.1H325.3z"/>
	<path class="st118" d="M341.4,73.8v7.6h-1.9v-7.5c0-1.1-0.2-1.9-0.7-2.5c-0.4-0.5-1.2-0.8-2.1-0.8c-1.1,0-2,0.3-2.7,1
		c-0.7,0.7-1,1.6-1,2.8v6.9H331v-8.7c0-1.2-0.1-2.4-0.2-3.4h1.8l0.2,2.2c0.4-0.8,0.9-1.4,1.7-1.8s1.6-0.6,2.5-0.6
		C340,69,341.4,70.6,341.4,73.8z"/>
	<path class="st118" d="M355.8,69.3v12c0,1.8-0.5,3.1-1.4,4.1c-0.9,0.9-2.3,1.4-4.1,1.4c-1.8,0-3.4-0.4-4.8-1.2l0.3-1.6
		c0.8,0.4,1.5,0.7,2.2,0.9s1.4,0.3,2.2,0.3c1.2,0,2-0.3,2.6-0.9c0.6-0.6,0.9-1.5,0.9-2.7v-2.9c-0.4,0.8-0.9,1.4-1.6,1.8
		s-1.6,0.6-2.5,0.6c-1.1,0-2-0.2-2.8-0.7s-1.5-1.2-1.9-2.1c-0.4-0.9-0.7-2-0.7-3.1c0-1.2,0.2-2.2,0.7-3.1c0.4-0.9,1.1-1.6,1.9-2.1
		c0.8-0.5,1.8-0.7,2.8-0.7c1,0,1.8,0.2,2.5,0.6c0.7,0.4,1.3,1,1.6,1.8v-2.1H355.8z M352.9,78.2c0.7-0.8,1-1.8,1-3.2
		c0-1.4-0.3-2.4-1-3.2c-0.7-0.8-1.6-1.2-2.7-1.2c-1.2,0-2.1,0.4-2.8,1.2c-0.7,0.8-1,1.8-1,3.2c0,1.4,0.3,2.4,1,3.2
		c0.7,0.8,1.6,1.2,2.8,1.2C351.3,79.4,352.2,79,352.9,78.2z"/>
	<path class="st118" d="M380.3,80.2l-1.1,1.3c-1.3-0.6-2.4-1.4-3.4-2.3c-0.7,0.7-1.5,1.3-2.3,1.7c-0.9,0.4-1.8,0.6-2.8,0.6
		c-1.1,0-2-0.2-2.9-0.6c-0.8-0.4-1.5-0.9-1.9-1.6s-0.7-1.4-0.7-2.3c0-1,0.3-1.9,0.9-2.8c0.6-0.8,1.6-1.7,3-2.5
		c-0.8-0.9-1.3-1.6-1.6-2.2c-0.3-0.6-0.4-1.2-0.4-1.8c0-1.1,0.4-2,1.2-2.7c0.8-0.7,1.8-1,3-1c1.2,0,2.1,0.3,2.8,0.9
		c0.7,0.6,1,1.5,1,2.5c0,0.8-0.3,1.6-0.8,2.3c-0.5,0.7-1.4,1.4-2.7,2.3l4,4.5c0.8-1.5,1.2-3.2,1.2-5.3h1.7c0,1.3-0.2,2.5-0.5,3.6
		s-0.7,2.1-1.3,3C377.8,78.8,378.9,79.6,380.3,80.2z M374.8,78.1l-4.6-5.1c-1.1,0.7-1.9,1.3-2.4,2s-0.7,1.3-0.7,2.1
		c0,0.9,0.3,1.6,1,2.1s1.5,0.8,2.6,0.8C372.4,80,373.7,79.3,374.8,78.1z M369.7,66.2c-0.4,0.4-0.6,0.9-0.6,1.6
		c0,0.5,0.1,0.9,0.3,1.3c0.2,0.4,0.7,1,1.3,1.8c1.1-0.7,1.8-1.2,2.2-1.7c0.4-0.5,0.6-1,0.6-1.6c0-0.6-0.2-1.1-0.6-1.5
		c-0.4-0.4-0.9-0.6-1.5-0.6C370.7,65.6,370.1,65.8,369.7,66.2z"/>
	<path class="st118" d="M388.4,64.3h6.8c1.8,0,3.1,0.4,4.1,1.3c1,0.8,1.5,2,1.5,3.5c0,1.5-0.5,2.7-1.5,3.5c-1,0.9-2.4,1.3-4.1,1.3
		h-4.8v7.5h-2V64.3z M395.1,72.2c1.3,0,2.2-0.3,2.9-0.8s1-1.3,1-2.4c0-1-0.3-1.8-1-2.3c-0.6-0.5-1.6-0.8-2.9-0.8h-4.7v6.3H395.1z"/>
	<path class="st118" d="M410.3,69.2l0,1.8c-0.4-0.1-0.8-0.2-1.3-0.2c-1.2,0-2,0.4-2.6,1.1c-0.6,0.7-0.9,1.6-0.9,2.7v6.9h-1.9v-8.7
		c0-1.2-0.1-2.4-0.2-3.4h1.8l0.2,2.2c0.3-0.8,0.8-1.4,1.5-1.9s1.4-0.6,2.3-0.6C409.6,69,410,69.1,410.3,69.2z"/>
	<path class="st118" d="M422.1,75.3h-8.9c0,1.5,0.4,2.7,1.1,3.5c0.7,0.8,1.7,1.2,3,1.2c1.4,0,2.7-0.5,3.9-1.4l0.6,1.4
		c-0.5,0.5-1.2,0.9-2,1.2c-0.8,0.3-1.7,0.4-2.5,0.4c-1.9,0-3.4-0.6-4.4-1.7c-1.1-1.1-1.6-2.6-1.6-4.6c0-1.2,0.2-2.3,0.7-3.3
		c0.5-1,1.2-1.7,2-2.2c0.9-0.5,1.8-0.8,3-0.8c1.6,0,2.9,0.5,3.8,1.6s1.4,2.5,1.4,4.3V75.3z M414.6,71.4c-0.6,0.6-1,1.5-1.2,2.6h7
		c-0.1-1.1-0.4-2-1-2.6c-0.6-0.6-1.4-0.9-2.4-0.9S415.2,70.8,414.6,71.4z"/>
	<path class="st118" d="M435.7,63.7v17.7h-1.9v-2.2c-0.4,0.8-0.9,1.3-1.6,1.7c-0.7,0.4-1.5,0.6-2.5,0.6c-1.1,0-2-0.3-2.8-0.8
		s-1.4-1.3-1.9-2.2s-0.7-2.1-0.7-3.3c0-1.2,0.2-2.3,0.7-3.3c0.4-0.9,1.1-1.7,1.9-2.2s1.8-0.8,2.8-0.8c0.9,0,1.8,0.2,2.5,0.6
		c0.7,0.4,1.2,1,1.6,1.7v-7.6H435.7z M432.8,78.7c0.6-0.8,1-2,1-3.4c0-1.5-0.3-2.6-1-3.4c-0.6-0.8-1.6-1.2-2.7-1.2
		c-1.2,0-2.1,0.4-2.8,1.2c-0.7,0.8-1,1.9-1,3.4c0,1.5,0.3,2.6,1,3.5s1.6,1.2,2.8,1.2C431.3,79.9,432.2,79.5,432.8,78.7z"/>
	<path class="st118" d="M439.3,64.2h2.4v2.2h-2.4V64.2z M439.5,81.4V69.3h1.9v12.1H439.5z"/>
	<path class="st118" d="M447.2,80.8c-0.9-0.5-1.5-1.2-2-2.2c-0.5-0.9-0.7-2-0.7-3.3s0.2-2.3,0.7-3.3c0.5-1,1.2-1.7,2.1-2.2
		c0.9-0.5,1.9-0.8,3.1-0.8c0.8,0,1.6,0.1,2.4,0.4c0.8,0.3,1.4,0.7,1.9,1.2l-0.6,1.4c-0.6-0.5-1.2-0.8-1.8-1.1
		c-0.6-0.2-1.1-0.3-1.7-0.3c-1.2,0-2.2,0.4-2.9,1.2c-0.7,0.8-1.1,2-1.1,3.4c0,1.5,0.3,2.6,1,3.4c0.7,0.8,1.7,1.2,2.9,1.2
		c0.6,0,1.2-0.1,1.7-0.3c0.6-0.2,1.2-0.6,1.8-1.1l0.6,1.4c-0.5,0.5-1.2,0.9-1.9,1.1c-0.8,0.3-1.6,0.4-2.4,0.4
		C449.1,81.5,448.1,81.3,447.2,80.8z"/>
	<path class="st118" d="M459.7,70.8v6.6c0,0.9,0.2,1.5,0.6,1.9c0.4,0.4,0.9,0.5,1.6,0.5c0.4,0,0.9-0.1,1.3-0.2v1.7
		c-0.5,0.2-1.1,0.2-1.7,0.2c-1.2,0-2.1-0.3-2.7-1c-0.6-0.6-1-1.6-1-2.9v-6.9h-2.4v-1.5h2.4v-3.1l1.9-0.7v3.8h3.5v1.5H459.7z"/>
	<path class="st118" d="M465.3,64.2h2.4v2.2h-2.4V64.2z M465.5,81.4V69.3h1.9v12.1H465.5z"/>
	<path class="st118" d="M481.6,73.8v7.6h-1.9v-7.5c0-1.1-0.2-1.9-0.7-2.5c-0.4-0.5-1.2-0.8-2.1-0.8c-1.1,0-2,0.3-2.7,1
		c-0.7,0.7-1,1.6-1,2.8v6.9h-1.9v-8.7c0-1.2-0.1-2.4-0.2-3.4h1.8l0.2,2.2c0.4-0.8,0.9-1.4,1.7-1.8s1.6-0.6,2.5-0.6
		C480.1,69,481.6,70.6,481.6,73.8z"/>
	<path class="st118" d="M496,69.3v12c0,1.8-0.5,3.1-1.4,4.1c-0.9,0.9-2.3,1.4-4.1,1.4c-1.8,0-3.4-0.4-4.8-1.2l0.3-1.6
		c0.8,0.4,1.5,0.7,2.2,0.9s1.4,0.3,2.2,0.3c1.2,0,2-0.3,2.6-0.9c0.6-0.6,0.9-1.5,0.9-2.7v-2.9c-0.4,0.8-0.9,1.4-1.6,1.8
		s-1.6,0.6-2.5,0.6c-1.1,0-2-0.2-2.8-0.7s-1.5-1.2-1.9-2.1c-0.4-0.9-0.7-2-0.7-3.1c0-1.2,0.2-2.2,0.7-3.1c0.4-0.9,1.1-1.6,1.9-2.1
		c0.8-0.5,1.8-0.7,2.8-0.7c1,0,1.8,0.2,2.5,0.6c0.7,0.4,1.3,1,1.6,1.8v-2.1H496z M493.1,78.2c0.7-0.8,1-1.8,1-3.2
		c0-1.4-0.3-2.4-1-3.2c-0.7-0.8-1.6-1.2-2.7-1.2c-1.2,0-2.1,0.4-2.8,1.2c-0.7,0.8-1,1.8-1,3.2c0,1.4,0.3,2.4,1,3.2
		c0.7,0.8,1.6,1.2,2.8,1.2C491.5,79.4,492.4,79,493.1,78.2z"/>
</g>
</svg>
