<?xml version="1.0" encoding="utf-8"?>
<!-- Generator: Adobe Illustrator 22.0.1, SVG Export Plug-In . SVG Version: 6.00 Build 0)  -->
<svg version="1.1" id="圖層_1" xmlns="http://www.w3.org/2000/svg" xmlns:xlink="http://www.w3.org/1999/xlink" x="0px" y="0px"
	 viewBox="0 0 497.9 95.3" style="enable-background:new 0 0 497.9 95.3;" xml:space="preserve">
<style type="text/css">
	.st0{fill:url(#SVGID_1_);}
	.st1{fill:#4057A5;}
	.st2{fill:#101A39;}
</style>
<linearGradient id="SVGID_1_" gradientUnits="userSpaceOnUse" x1="-70.5102" y1="454.3288" x2="7.4142" y2="454.3288" gradientTransform="matrix(0.7071 -0.7071 0.7071 0.7071 -260.0071 -292.8162)">
	<stop  offset="0" style="stop-color:#8B3F74"/>
	<stop  offset="1" style="stop-color:#101A39"/>
</linearGradient>
<path class="st0" d="M66.5,78.3c-15.2,15.2-39.9,15.2-55.1,0s-15.2-39.9,0-55.1s39.9-15.2,55.1,0S81.7,63.1,66.5,78.3z M12.5,24.3
	C-2,38.9-2,62.6,12.5,77.2s38.2,14.6,52.8,0s14.6-38.2,0-52.8S27.1,9.8,12.5,24.3z M61.7,74.6L61.7,74.6l1.2-1.2L61.7,74.6z
	 M62.9,74.6l0.5-0.5l0,0C63.3,74.3,63.1,74.4,62.9,74.6z M19,77.8l0.1-0.9c0,0,0,0,0,0L19,77.8z M14.3,26c0.2-0.2,0.4-0.4,0.6-0.5
	l0,0L14.3,26z M38.6,16c-4.8,0-9.4,1-13.7,2.8c-0.3,0.1-0.6,0.3-1,0.5c-3.3,1.6-6.3,3.7-9,6.2c-0.2,0.2-0.4,0.4-0.6,0.5l-0.1,0.1
	c-0.2,0.2-0.4,0.4-0.5,0.6c-6.1,6.4-9.5,14.8-9.5,23.7c0,2.8,0.3,5.6,1,8.3c0.4,1.6,0.9,3.2,1.5,4.7c1.9,4.5,4.7,8.7,8.3,12
	c0.1,0.1,0.1,0.1,0.2,0.2c1.2,1.1,2.4,2.1,3.7,3c0,0,0.1,0,0.1,0.1c1.9,1.3,3.9,2.4,6.1,3.4c0,0,0.1,0,0.1,0c0.1,0,0.1,0,0.1,0.1
	c2.6,1.1,5.4,1.8,8.1,2.2c1.7,0.3,3.4,0.4,5.1,0.4c1.7,0,3.4-0.1,5.1-0.4c7-1.1,13.5-4.2,18.6-9.1c0.2-0.2,0.4-0.3,0.5-0.5l0.1-0.1
	c0.2-0.2,0.4-0.4,0.5-0.5c1.1-1.1,2.1-2.3,3-3.6c0.2-0.2,0.4-0.5,0.5-0.7l0-0.1c3.9-5.7,6-12.4,6-19.4c0-5.3-1.2-10.3-3.5-15
	c-1.2-2.4-2.7-4.7-4.4-6.8l0,0C58.5,20.6,48.9,16,38.6,16z M19.2,76.9L19,77.8L19.2,76.9C19.2,76.9,19.2,76.9,19.2,76.9z M19.7,77
	c-1.1-0.8-2.2-1.7-3.3-2.7l0,0c0,0-0.1-0.1-0.1-0.1l0,0c-3.4-3.2-6.1-7.1-7.9-11.4c-0.6-1.4-1.1-2.9-1.5-4.5c-0.6-2.6-1-5.3-1-7.9
	c0-1,0-2,0.1-3C10.3,54,15.4,59,21.7,62.6c5.9,3.4,11.7,5,16.4,6.2c3.5,0.9,6.4,1.7,8.3,2.9c-5.3,3-10.7,4.3-14.9,4.9
	C25.8,77.5,21.1,77.1,19.7,77z M43.4,82.7c-1.6,0.2-3.2,0.4-4.9,0.4c-1.6,0-3.2-0.1-4.8-0.4c-2.6-0.4-5.2-1.1-7.7-2.1l0,0l0,0
	l-0.1,0c0,0,0,0,0,0l-0.2-0.1l0,0c-1-0.4-2-0.9-2.9-1.4c2.3,0.1,5.4,0,8.9-0.5c4.6-0.6,10.4-2.1,16.1-5.5c1.7,1.7,2.6,3.5,2.5,5.1
	c0,1.7-1,2.8-1.4,3.3C47.1,81.9,45.3,82.4,43.4,82.7z M61,74.1c-2.8,2.6-6,4.7-9.4,6.2c0.2-0.6,0.4-1.4,0.4-2.2c0-2-0.9-4.1-2.7-6.1
	c1.8-1.2,3.7-2.6,5.4-4.3L61,74.1z M53.4,66.5c-1.7,1.7-3.6,3.1-5.4,4.3c-2.1-1.7-5.4-2.6-9.5-3.6c-9.4-2.5-22.3-5.9-32.1-22.6
	c1.1-6.2,4-12,8.4-16.7L53.4,66.5z M61.7,74.6L61.7,74.6l1.2-1.2L61.7,74.6z M16.1,26.7c2.5-2.4,5.3-4.3,8.5-5.8
	c0.4-0.2,0.7-0.3,1-0.4c2.1-0.9,4.2-1.6,6.4-2l0.2,0.2l0.1,0c17,9.8,20.4,22.8,22.9,32.3c1,3.9,1.9,7.1,3.5,9.3
	c-1.2,1.8-2.5,3.5-3.9,5L16.1,26.7z M65.5,68.8L65.5,68.8c-0.2,0.3-0.3,0.5-0.5,0.7l0,0c-0.8,1.2-1.8,2.3-2.7,3.3l-6.3-6.3
	c1.4-1.5,2.7-3.2,3.9-4.9c2.1,2,4.2,3,6.3,2.9c0.8,0,1.5-0.2,2.2-0.4C67.5,65.6,66.6,67.2,65.5,68.8z M67.9,36.1
	c2.2,4.5,3.3,9.3,3.3,14.3c0,3.8-0.6,7.4-1.9,10.9c-0.4,0.4-1.6,1.4-3.3,1.4c-1.7,0-3.5-0.9-5.3-2.7c3.9-6.6,6.2-14.8,6.9-24.5
	C67.7,35.7,67.8,35.9,67.9,36.1z M63.7,29.6L63.7,29.6c0.9,1,1.6,2.1,2.3,3.1c-0.4,10.3-2.5,19-6.4,25.8c-1.1-1.9-1.9-4.7-2.8-8.1
	C55.5,45.8,54,39.9,50.6,34c-3.8-6.5-9-11.7-16.1-16.1c1.3-0.2,2.7-0.2,4.1-0.2C48.3,17.7,57.5,22.1,63.7,29.6z M18.9,78.6
	L18.9,78.6c0,0.1,0,0.1,0.1,0.1C19,78.6,19,78.6,18.9,78.6z M19,77.8l0.1-0.9c0,0,0,0,0,0L19,77.8z M13.7,26.7L13.7,26.7
	c0.2-0.2,0.4-0.4,0.6-0.6L13.7,26.7z M62.3,75.2L62.3,75.2l0.5-0.5C62.6,74.9,62.5,75.1,62.3,75.2z M61.7,74.6L61.7,74.6l1.2-1.2
	L61.7,74.6z M61.7,74.6L61.7,74.6l1.2-1.2L61.7,74.6z"/>
<g>
	<path class="st1" d="M122,51.5V8.4h0.9l28.7,33v-33h4.2v43.1h-1l-28.4-32.6v32.6H122z"/>
	<path class="st1" d="M197.9,43.5l3.7-2.2c2.6,4.7,5.6,7.1,8.9,7.1c1.4,0,2.8-0.3,4.1-1c1.3-0.7,2.2-1.6,2.9-2.7
		c0.7-1.1,1-2.3,1-3.6c0-1.4-0.5-2.9-1.5-4.2c-1.3-1.9-3.8-4.2-7.4-6.9c-3.6-2.7-5.8-4.7-6.7-5.9c-1.5-2-2.3-4.2-2.3-6.6
		c0-1.9,0.4-3.6,1.3-5.1c0.9-1.5,2.2-2.8,3.8-3.6c1.6-0.9,3.4-1.3,5.3-1.3c2,0,3.9,0.5,5.7,1.5c1.8,1,3.6,2.9,5.6,5.6l-3.5,2.7
		c-1.6-2.1-3-3.6-4.1-4.2s-2.4-1-3.7-1c-1.7,0-3.2,0.5-4.3,1.6c-1.1,1.1-1.7,2.4-1.7,3.9c0,0.9,0.2,1.8,0.6,2.7
		c0.4,0.9,1.1,1.8,2.1,2.9c0.6,0.5,2.4,2,5.6,4.3c3.7,2.8,6.3,5.2,7.7,7.4c1.4,2.1,2.1,4.3,2.1,6.5c0,3.1-1.2,5.8-3.6,8.1
		s-5.3,3.5-8.7,3.5c-2.6,0-5-0.7-7.1-2.1C201.7,49.1,199.7,46.8,197.9,43.5z"/>
	<path class="st1" d="M285.9,8.4L306,51.5h-4.7l-6.8-14.2H276l-6.7,14.2h-4.8l20.4-43.1H285.9z M285.3,17.6L278,33.2h14.7
		L285.3,17.6z"/>
	<path class="st1" d="M348.6,8.4h8.6c4.9,0,8.2,0.2,10,0.6c2.5,0.6,4.5,1.9,6,3.7s2.3,4.3,2.3,7.1c0,2.9-0.8,5.2-2.3,7.1
		s-3.6,3.1-6.3,3.8c-2,0.5-5.6,0.7-11,0.7h-3.1v20h-4.3V8.4z M352.9,12.7v14.6l7.3,0.1c2.9,0,5.1-0.3,6.5-0.8s2.4-1.4,3.2-2.6
		c0.8-1.2,1.2-2.5,1.2-4c0-1.4-0.4-2.8-1.2-4c-0.8-1.2-1.8-2.1-3.1-2.6s-3.4-0.8-6.3-0.8H352.9z"/>
</g>
<g>
	<path class="st2" d="M132.7,71.6h1.9v17.1H133L122.7,75v13.8h-1.8V71.6h1.5l10.3,13.8V71.6z"/>
	<path class="st2" d="M150.8,81.4c0.5,0.7,0.8,1.6,0.8,2.7c0,1.5-0.5,2.6-1.5,3.4c-1,0.8-2.4,1.2-4.2,1.2h-7.1V71.6h6.9
		c1.7,0,3.1,0.4,4.1,1.2c1,0.8,1.5,1.9,1.5,3.3c0,0.9-0.2,1.7-0.7,2.4c-0.5,0.7-1.1,1.2-2,1.5C149.5,80.2,150.2,80.7,150.8,81.4z
		 M140.7,79.2h4.6c1.3,0,2.2-0.3,2.9-0.8c0.7-0.5,1-1.3,1-2.3c0-2-1.3-2.9-3.9-2.9h-4.6V79.2z M148.7,86.3c0.6-0.5,0.9-1.3,0.9-2.3
		c0-2.1-1.3-3.1-3.9-3.1h-5v6.2h5C147.1,87.1,148.1,86.8,148.7,86.3z"/>
	<path class="st2" d="M168,88.7l-1.9-4.4h-8.9l-1.9,4.4h-2l7.5-17.1h1.7l7.5,17.1H168z M157.9,82.7h7.5l-3.8-8.8L157.9,82.7z"/>
	<path class="st2" d="M177.9,86.8l0.7-1.5c0.8,0.7,1.7,1.2,2.6,1.5c0.9,0.3,1.9,0.5,3.1,0.5c1.4,0,2.4-0.3,3.2-0.8
		c0.7-0.5,1.1-1.3,1.1-2.3c0-0.6-0.2-1-0.5-1.4s-0.8-0.6-1.4-0.9c-0.6-0.2-1.4-0.4-2.3-0.6c-1.3-0.3-2.4-0.6-3.2-0.9
		s-1.5-0.8-2.1-1.5c-0.5-0.6-0.8-1.5-0.8-2.5c0-1,0.3-1.8,0.8-2.6c0.5-0.7,1.2-1.3,2.2-1.7s2-0.6,3.3-0.6c1.2,0,2.3,0.2,3.3,0.6
		c1,0.4,1.9,0.9,2.6,1.6l-0.8,1.5c-0.8-0.7-1.6-1.2-2.4-1.5c-0.8-0.3-1.7-0.5-2.7-0.5c-1.3,0-2.4,0.3-3.1,0.9
		c-0.8,0.6-1.1,1.3-1.1,2.3c0,0.9,0.3,1.5,1,1.9c0.7,0.4,1.7,0.8,3,1.1c1.5,0.4,2.6,0.7,3.5,1c0.8,0.3,1.5,0.7,2.1,1.3
		c0.6,0.6,0.8,1.4,0.8,2.4c0,1-0.3,1.8-0.8,2.5c-0.5,0.7-1.2,1.3-2.2,1.7c-1,0.4-2.1,0.6-3.3,0.6C181.6,88.9,179.5,88.2,177.9,86.8z
		"/>
	<path class="st2" d="M196.1,78.2v6.6c0,0.9,0.2,1.5,0.6,1.9c0.4,0.4,0.9,0.5,1.6,0.5c0.4,0,0.9-0.1,1.3-0.2v1.7
		c-0.5,0.2-1.1,0.2-1.7,0.2c-1.2,0-2.1-0.3-2.7-1c-0.6-0.6-1-1.6-1-2.9v-6.9h-2.4v-1.5h2.4v-3.1l1.9-0.7v3.8h3.5v1.5H196.1z"/>
	<path class="st2" d="M212.5,76.7v12.1h-1.9v-2.2c-0.4,0.8-0.9,1.3-1.6,1.7c-0.7,0.4-1.5,0.6-2.5,0.6c-1.1,0-2-0.3-2.8-0.8
		c-0.8-0.5-1.4-1.2-1.9-2.2c-0.4-0.9-0.7-2-0.7-3.3s0.2-2.3,0.7-3.3c0.4-1,1.1-1.7,1.9-2.2c0.8-0.5,1.7-0.8,2.8-0.8
		c0.9,0,1.8,0.2,2.5,0.6c0.7,0.4,1.2,1,1.6,1.8v-2.1H212.5z M209.6,86.1c0.6-0.8,1-2,1-3.4c0-1.5-0.3-2.6-1-3.4
		c-0.6-0.8-1.6-1.2-2.7-1.2c-1.2,0-2.1,0.4-2.8,1.2c-0.7,0.8-1,2-1,3.4s0.3,2.6,1,3.4c0.7,0.8,1.6,1.2,2.8,1.2
		C208.1,87.3,209,86.9,209.6,86.1z"/>
	<path class="st2" d="M218.9,78.2v6.6c0,0.9,0.2,1.5,0.6,1.9c0.4,0.4,0.9,0.5,1.6,0.5c0.4,0,0.9-0.1,1.3-0.2v1.7
		c-0.5,0.2-1.1,0.2-1.7,0.2c-1.2,0-2.1-0.3-2.7-1c-0.6-0.6-1-1.6-1-2.9v-6.9h-2.4v-1.5h2.4v-3.1l1.9-0.7v3.8h3.5v1.5H218.9z"/>
	<path class="st2" d="M224.5,71.5h2.4v2.2h-2.4V71.5z M224.7,88.7V76.7h1.9v12.1H224.7z"/>
	<path class="st2" d="M232.4,88.1c-0.9-0.5-1.5-1.2-2-2.2c-0.5-0.9-0.7-2-0.7-3.3s0.2-2.3,0.7-3.3s1.2-1.7,2.1-2.2
		c0.9-0.5,1.9-0.8,3.1-0.8c0.8,0,1.6,0.1,2.4,0.4c0.8,0.3,1.4,0.7,1.9,1.2l-0.6,1.4c-0.6-0.5-1.2-0.8-1.8-1.1
		c-0.6-0.2-1.1-0.3-1.7-0.3c-1.2,0-2.2,0.4-2.9,1.2c-0.7,0.8-1.1,2-1.1,3.4c0,1.5,0.3,2.6,1,3.4c0.7,0.8,1.7,1.2,2.9,1.2
		c0.6,0,1.2-0.1,1.7-0.3c0.6-0.2,1.2-0.6,1.8-1.1l0.6,1.4c-0.5,0.5-1.2,0.9-1.9,1.1c-0.8,0.3-1.6,0.4-2.4,0.4
		C234.3,88.9,233.3,88.6,232.4,88.1z"/>
	<path class="st2" d="M261.8,88.7l-1.9-4.4H251l-1.9,4.4h-2l7.5-17.1h1.7l7.5,17.1H261.8z M251.7,82.7h7.5l-3.8-8.8L251.7,82.7z"/>
	<path class="st2" d="M276.5,81.1v7.6h-1.9v-7.5c0-1.1-0.2-1.9-0.7-2.5c-0.4-0.5-1.2-0.8-2.1-0.8c-1.1,0-2,0.3-2.7,1
		c-0.7,0.7-1,1.6-1,2.8v6.9h-1.9V80c0-1.2-0.1-2.4-0.2-3.4h1.8l0.2,2.2c0.4-0.8,0.9-1.4,1.7-1.8s1.6-0.6,2.5-0.6
		C275.1,76.4,276.5,78,276.5,81.1z"/>
	<path class="st2" d="M290.8,76.7v12.1h-1.9v-2.2c-0.4,0.8-0.9,1.3-1.6,1.7c-0.7,0.4-1.5,0.6-2.5,0.6c-1.1,0-2-0.3-2.8-0.8
		c-0.8-0.5-1.4-1.2-1.9-2.2c-0.4-0.9-0.7-2-0.7-3.3s0.2-2.3,0.7-3.3s1.1-1.7,1.9-2.2c0.8-0.5,1.7-0.8,2.8-0.8c0.9,0,1.8,0.2,2.5,0.6
		c0.7,0.4,1.2,1,1.6,1.8v-2.1H290.8z M287.9,86.1c0.6-0.8,1-2,1-3.4c0-1.5-0.3-2.6-1-3.4c-0.6-0.8-1.6-1.2-2.7-1.2
		c-1.2,0-2.1,0.4-2.8,1.2c-0.7,0.8-1,2-1,3.4s0.3,2.6,1,3.4c0.7,0.8,1.6,1.2,2.8,1.2C286.4,87.3,287.3,86.9,287.9,86.1z"/>
	<path class="st2" d="M294.6,88.7V71.1h1.9v17.7H294.6z"/>
	<path class="st2" d="M310.9,76.7l-5.6,13.2c-0.6,1.4-1.3,2.4-2.2,3c-0.9,0.6-2,1.1-3.3,1.3l-0.4-1.5c1.1-0.3,2-0.6,2.6-1
		s1.1-1.1,1.5-2l0.5-1.1l-5.1-12h2l4.1,10l4.1-10H310.9z"/>
	<path class="st2" d="M314.6,87.2h7.8v1.5h-10.2v-1.3l7.6-9.2h-7.3v-1.5h9.7v1.4L314.6,87.2z"/>
	<path class="st2" d="M325.1,71.5h2.4v2.2h-2.4V71.5z M325.3,88.7V76.7h1.9v12.1H325.3z"/>
	<path class="st2" d="M341.4,81.1v7.6h-1.9v-7.5c0-1.1-0.2-1.9-0.7-2.5c-0.4-0.5-1.2-0.8-2.1-0.8c-1.1,0-2,0.3-2.7,1
		c-0.7,0.7-1,1.6-1,2.8v6.9H331V80c0-1.2-0.1-2.4-0.2-3.4h1.8l0.2,2.2c0.4-0.8,0.9-1.4,1.7-1.8c0.7-0.4,1.6-0.6,2.5-0.6
		C340,76.4,341.4,78,341.4,81.1z"/>
	<path class="st2" d="M355.8,76.7v12c0,1.8-0.5,3.1-1.4,4.1s-2.3,1.4-4.1,1.4c-1.8,0-3.4-0.4-4.8-1.2l0.3-1.6
		c0.8,0.4,1.5,0.7,2.2,0.9c0.7,0.2,1.4,0.3,2.2,0.3c1.2,0,2-0.3,2.6-0.9c0.6-0.6,0.9-1.5,0.9-2.7v-2.9c-0.4,0.8-0.9,1.4-1.6,1.8
		s-1.6,0.6-2.5,0.6c-1.1,0-2-0.2-2.8-0.7c-0.8-0.5-1.5-1.2-1.9-2.1s-0.7-2-0.7-3.1c0-1.2,0.2-2.2,0.7-3.1s1.1-1.6,1.9-2.1
		c0.8-0.5,1.8-0.7,2.8-0.7c1,0,1.8,0.2,2.5,0.6c0.7,0.4,1.3,1,1.6,1.8v-2.1H355.8z M352.9,85.6c0.7-0.8,1-1.8,1-3.2
		c0-1.4-0.3-2.4-1-3.2c-0.7-0.8-1.6-1.2-2.7-1.2c-1.2,0-2.1,0.4-2.8,1.2c-0.7,0.8-1,1.8-1,3.2c0,1.4,0.3,2.4,1,3.2
		c0.7,0.8,1.6,1.2,2.8,1.2C351.3,86.7,352.2,86.3,352.9,85.6z"/>
	<path class="st2" d="M380.3,87.6l-1.1,1.3c-1.3-0.6-2.4-1.4-3.4-2.3c-0.7,0.7-1.5,1.3-2.3,1.7s-1.8,0.6-2.8,0.6
		c-1.1,0-2-0.2-2.9-0.6c-0.8-0.4-1.5-0.9-1.9-1.6s-0.7-1.4-0.7-2.3c0-1,0.3-1.9,0.9-2.8c0.6-0.8,1.6-1.7,3-2.5
		c-0.8-0.9-1.3-1.6-1.6-2.2s-0.4-1.2-0.4-1.8c0-1.1,0.4-2,1.2-2.7c0.8-0.7,1.8-1,3-1c1.2,0,2.1,0.3,2.8,0.9c0.7,0.6,1,1.5,1,2.5
		c0,0.8-0.3,1.6-0.8,2.3c-0.5,0.7-1.4,1.4-2.7,2.3l4,4.5c0.8-1.5,1.2-3.2,1.2-5.3h1.7c0,1.3-0.2,2.5-0.5,3.6c-0.3,1.1-0.7,2.1-1.3,3
		C377.8,86.2,378.9,87,380.3,87.6z M374.8,85.5l-4.6-5.1c-1.1,0.7-1.9,1.3-2.4,2c-0.5,0.6-0.7,1.3-0.7,2.1c0,0.9,0.3,1.6,1,2.1
		s1.5,0.8,2.6,0.8C372.4,87.3,373.7,86.7,374.8,85.5z M369.7,73.6c-0.4,0.4-0.6,0.9-0.6,1.6c0,0.5,0.1,0.9,0.3,1.3
		c0.2,0.4,0.7,1,1.3,1.8c1.1-0.7,1.8-1.2,2.2-1.7c0.4-0.5,0.6-1,0.6-1.6c0-0.6-0.2-1.1-0.6-1.5S372,73,371.4,73
		C370.7,73,370.1,73.2,369.7,73.6z"/>
	<path class="st2" d="M388.4,71.6h6.8c1.8,0,3.1,0.4,4.1,1.3c1,0.8,1.5,2,1.5,3.5c0,1.5-0.5,2.7-1.5,3.5c-1,0.9-2.4,1.3-4.1,1.3
		h-4.8v7.5h-2V71.6z M395.1,79.6c1.3,0,2.2-0.3,2.9-0.8c0.6-0.5,1-1.3,1-2.4c0-1-0.3-1.8-1-2.3c-0.6-0.5-1.6-0.8-2.9-0.8h-4.7v6.3
		H395.1z"/>
	<path class="st2" d="M410.3,76.5l0,1.8c-0.4-0.1-0.8-0.2-1.3-0.2c-1.2,0-2,0.4-2.6,1.1c-0.6,0.7-0.9,1.6-0.9,2.7v6.9h-1.9V80
		c0-1.2-0.1-2.4-0.2-3.4h1.8l0.2,2.2c0.3-0.8,0.8-1.4,1.5-1.9s1.4-0.6,2.3-0.6C409.6,76.4,410,76.4,410.3,76.5z"/>
	<path class="st2" d="M422.1,82.6h-8.9c0,1.5,0.4,2.7,1.1,3.5c0.7,0.8,1.7,1.2,3,1.2c1.4,0,2.7-0.5,3.9-1.4l0.6,1.4
		c-0.5,0.5-1.2,0.9-2,1.2s-1.7,0.4-2.5,0.4c-1.9,0-3.4-0.6-4.4-1.7c-1.1-1.1-1.6-2.6-1.6-4.6c0-1.2,0.2-2.3,0.7-3.3
		c0.5-1,1.2-1.7,2-2.2c0.9-0.5,1.8-0.8,3-0.8c1.6,0,2.9,0.5,3.8,1.6s1.4,2.5,1.4,4.3V82.6z M414.6,78.8c-0.6,0.6-1,1.5-1.2,2.6h7
		c-0.1-1.1-0.4-2-1-2.6s-1.4-0.9-2.4-0.9C416,77.9,415.2,78.2,414.6,78.8z"/>
	<path class="st2" d="M435.7,71.1v17.7h-1.9v-2.2c-0.4,0.8-0.9,1.3-1.6,1.7c-0.7,0.4-1.5,0.6-2.5,0.6c-1.1,0-2-0.3-2.8-0.8
		c-0.8-0.5-1.4-1.3-1.9-2.2c-0.4-1-0.7-2.1-0.7-3.3c0-1.2,0.2-2.3,0.7-3.3c0.4-0.9,1.1-1.7,1.9-2.2c0.8-0.5,1.8-0.8,2.8-0.8
		c0.9,0,1.8,0.2,2.5,0.6s1.2,1,1.6,1.7v-7.6H435.7z M432.8,86.1c0.6-0.8,1-2,1-3.4c0-1.5-0.3-2.6-1-3.4c-0.6-0.8-1.6-1.2-2.7-1.2
		c-1.2,0-2.1,0.4-2.8,1.2c-0.7,0.8-1,1.9-1,3.4c0,1.5,0.3,2.6,1,3.5c0.7,0.8,1.6,1.2,2.8,1.2C431.3,87.3,432.2,86.9,432.8,86.1z"/>
	<path class="st2" d="M439.3,71.5h2.4v2.2h-2.4V71.5z M439.5,88.7V76.7h1.9v12.1H439.5z"/>
	<path class="st2" d="M447.2,88.1c-0.9-0.5-1.5-1.2-2-2.2c-0.5-0.9-0.7-2-0.7-3.3s0.2-2.3,0.7-3.3c0.5-1,1.2-1.7,2.1-2.2
		c0.9-0.5,1.9-0.8,3.1-0.8c0.8,0,1.6,0.1,2.4,0.4c0.8,0.3,1.4,0.7,1.9,1.2l-0.6,1.4c-0.6-0.5-1.2-0.8-1.8-1.1
		c-0.6-0.2-1.1-0.3-1.7-0.3c-1.2,0-2.2,0.4-2.9,1.2c-0.7,0.8-1.1,2-1.1,3.4c0,1.5,0.3,2.6,1,3.4c0.7,0.8,1.7,1.2,2.9,1.2
		c0.6,0,1.2-0.1,1.7-0.3c0.6-0.2,1.2-0.6,1.8-1.1l0.6,1.4c-0.5,0.5-1.2,0.9-1.9,1.1c-0.8,0.3-1.6,0.4-2.4,0.4
		C449.1,88.9,448.1,88.6,447.2,88.1z"/>
	<path class="st2" d="M459.7,78.2v6.6c0,0.9,0.2,1.5,0.6,1.9c0.4,0.4,0.9,0.5,1.6,0.5c0.4,0,0.9-0.1,1.3-0.2v1.7
		c-0.5,0.2-1.1,0.2-1.7,0.2c-1.2,0-2.1-0.3-2.7-1c-0.6-0.6-1-1.6-1-2.9v-6.9h-2.4v-1.5h2.4v-3.1l1.9-0.7v3.8h3.5v1.5H459.7z"/>
	<path class="st2" d="M465.3,71.5h2.4v2.2h-2.4V71.5z M465.5,88.7V76.7h1.9v12.1H465.5z"/>
	<path class="st2" d="M481.6,81.1v7.6h-1.9v-7.5c0-1.1-0.2-1.9-0.7-2.5c-0.4-0.5-1.2-0.8-2.1-0.8c-1.1,0-2,0.3-2.7,1
		c-0.7,0.7-1,1.6-1,2.8v6.9h-1.9V80c0-1.2-0.1-2.4-0.2-3.4h1.8l0.2,2.2c0.4-0.8,0.9-1.4,1.7-1.8c0.7-0.4,1.6-0.6,2.5-0.6
		C480.1,76.4,481.6,78,481.6,81.1z"/>
	<path class="st2" d="M496,76.7v12c0,1.8-0.5,3.1-1.4,4.1s-2.3,1.4-4.1,1.4c-1.8,0-3.4-0.4-4.8-1.2l0.3-1.6c0.8,0.4,1.5,0.7,2.2,0.9
		c0.7,0.2,1.4,0.3,2.2,0.3c1.2,0,2-0.3,2.6-0.9c0.6-0.6,0.9-1.5,0.9-2.7v-2.9c-0.4,0.8-0.9,1.4-1.6,1.8s-1.6,0.6-2.5,0.6
		c-1.1,0-2-0.2-2.8-0.7c-0.8-0.5-1.5-1.2-1.9-2.1s-0.7-2-0.7-3.1c0-1.2,0.2-2.2,0.7-3.1s1.1-1.6,1.9-2.1c0.8-0.5,1.8-0.7,2.8-0.7
		c1,0,1.8,0.2,2.5,0.6c0.7,0.4,1.3,1,1.6,1.8v-2.1H496z M493.1,85.6c0.7-0.8,1-1.8,1-3.2c0-1.4-0.3-2.4-1-3.2
		c-0.7-0.8-1.6-1.2-2.7-1.2c-1.2,0-2.1,0.4-2.8,1.2c-0.7,0.8-1,1.8-1,3.2c0,1.4,0.3,2.4,1,3.2c0.7,0.8,1.6,1.2,2.8,1.2
		C491.5,86.7,492.4,86.3,493.1,85.6z"/>
</g>
</svg>
